<?xml version="1.0" encoding="UTF-8"?>
<svg width="303px" height="95px" viewBox="0 0 303 95" version="1.1" xmlns="http://www.w3.org/2000/svg" xmlns:xlink="http://www.w3.org/1999/xlink">
    <!-- Generator: Sketch 46 (44423) - http://www.bohemiancoding.com/sketch -->
    <title>ask-here</title>
    <desc>Created with Sketch.</desc>
    <defs></defs>
    <g id="Page-1" stroke="none" stroke-width="1" fill="none" fill-rule="evenodd">
        <g id="ask-here" transform="translate(1.000000, 2.000000)">
            <path d="M291.902647,0.3 L8.69486321,0.3 C4.19771698,0.3 0.6,3.6 0.6,7.5 L0.6,65 C0.6,69 4.31014564,72.2 8.69486321,72.2 L32.9794529,72.2 C37.4765991,72.2 41.0743161,75.5 41.0743161,79.4 L41.0743161,87.3 C41.0743161,91.3 44.1098898,92.7 47.8200354,90.5 L71.9921964,76.1 C75.702342,73.9 82.4480614,72.1 86.9452076,72.1 L291.902647,72.1 C296.399793,72.1 299.99751,68.8 299.99751,64.9 L299.99751,7.5 C300.109939,3.5 296.399793,0.3 291.902647,0.3" id="Shape" stroke="#000000" stroke-width="3"></path>
            <path d="M35.16,51.48 C28.68,51.48 23.688,49.368 20.52,45.288 L26.088,40.584 C28.728,43.464 31.656,45 35.496,45 C38.472,45 40.632,43.608 40.632,41.496 C40.632,39.864 39.432,38.904 34.92,37.08 C30.552,35.304 26.664,32.952 26.664,28.008 C26.664,21.144 32.808,16.92 40.008,16.92 C45.768,16.92 49.752,18.888 52.584,21.912 L47.496,27 C44.952,24.648 42.696,23.4 39.432,23.4 C36.312,23.4 34.536,25.128 34.536,26.808 C34.536,28.584 35.88,29.352 40.44,31.224 C45.048,33.096 48.504,35.4 48.504,40.296 C48.504,47.352 42.216,51.48 35.16,51.48 Z M49.32,58.68 L58.248,25.272 L65.544,25.272 L64.776,28.056 C66.984,25.992 69.144,24.792 72.024,24.792 C77.64,24.792 81.912,28.872 81.912,35.832 C81.912,44.952 74.952,51.48 67.704,51.48 C63.672,51.48 61.32,49.8 59.64,47.256 L56.616,58.68 L49.32,58.68 Z M66.744,45.336 C70.68,45.336 74.376,41.496 74.376,36.312 C74.376,32.952 72.264,30.936 69,30.936 C64.968,30.936 61.224,34.968 61.224,39.864 C61.224,43.128 63.528,45.336 66.744,45.336 Z M98.28,51.576 C94.968,51.576 92.232,50.616 90.168,49.032 L87.72,51.24 L81.336,51.24 L87.384,45.768 C86.424,43.992 85.896,41.928 85.896,39.672 C85.896,31.992 92.52,24.792 100.776,24.792 C103.944,24.792 106.632,25.656 108.648,27.192 L111,25.032 L117.384,25.032 L111.528,30.36 C112.584,32.136 113.16,34.296 113.16,36.696 C113.16,44.376 106.536,51.576 98.28,51.576 Z M92.952,41.16 L103.608,31.464 C102.744,30.984 101.784,30.792 100.632,30.792 C95.784,30.792 92.808,35.736 92.808,39.48 C92.808,40.104 92.856,40.632 92.952,41.16 Z M98.424,45.576 C103.272,45.576 106.248,40.632 106.248,36.888 C106.248,36.168 106.2,35.448 106.056,34.872 L95.208,44.76 C96.072,45.288 97.176,45.576 98.424,45.576 Z M115.032,51 L121.896,25.272 L129.192,25.272 L127.8,30.456 C130.392,26.664 133.368,24.456 137.592,24.792 L135.528,32.424 L135.144,32.424 C130.296,32.424 126.552,35.208 124.776,41.88 L122.328,51 L115.032,51 Z M147.048,58.776 C141.864,58.776 136.872,57.48 133.464,55.176 L137.304,50.184 C139.992,51.96 143.352,53.016 146.568,53.016 C149.016,53.016 150.744,52.344 152.136,50.952 C153.24,49.848 153.912,48.36 154.488,46.344 L154.728,45.48 C152.04,47.88 149.832,48.888 146.664,48.888 C141.72,48.888 137.112,45.768 137.112,39.912 C137.112,31.32 144.072,24.792 151.176,24.792 C155.592,24.792 157.656,26.904 159,29.256 L160.056,25.272 L167.352,25.272 L161.832,45.96 C160.44,51.144 159.384,53.16 157.32,55.224 C154.968,57.576 151.752,58.776 147.048,58.776 Z M149.544,43.08 C153.576,43.08 157.128,39.672 157.128,35.592 C157.128,32.664 155.112,30.888 152.04,30.888 C147.96,30.888 144.648,34.536 144.648,38.52 C144.648,41.544 146.664,43.08 149.544,43.08 Z M181.512,51 L188.808,51 L192.696,36.552 C193.512,33.48 195.384,31.416 198.264,31.416 C200.52,31.416 201.816,32.52 201.816,34.584 C201.816,35.208 201.672,36.168 201.48,36.888 L197.688,51 L204.984,51 L208.68,37.176 C209.112,35.544 209.544,33.72 209.544,32.28 C209.544,27.624 206.568,24.792 201.96,24.792 C199.08,24.792 196.776,26.328 194.952,27.96 L198.12,15.96 L190.824,15.96 L181.512,51 Z M220.344,40.68 C220.584,43.704 222.36,45.72 226.2,45.72 C228.12,45.72 229.8,45.144 231.912,43.656 L235.272,48.168 C232.968,50.088 229.752,51.576 225.384,51.576 C217.992,51.576 213.48,47.256 213.48,40.152 C213.48,32.712 219.528,24.792 228.744,24.792 C235.416,24.792 239.256,29.112 239.256,34.824 C239.256,36.648 238.776,38.712 237.96,40.68 L220.344,40.68 Z M220.968,36.12 L232.152,36.12 C232.296,35.64 232.392,35.064 232.392,34.44 C232.392,32.328 231.144,30.648 228.168,30.648 C224.856,30.648 222.168,32.856 220.968,36.12 Z M240.504,51 L247.368,25.272 L254.664,25.272 L253.272,30.456 C255.864,26.664 258.84,24.456 263.064,24.792 L261,32.424 L260.616,32.424 C255.768,32.424 252.024,35.208 250.248,41.88 L247.8,51 L240.504,51 Z M266.136,39.576 L270.168,39.576 L278.088,18.36 L278.376,17.4 L269.832,17.4 L269.544,18.36 L266.136,39.576 Z M261.192,51 L263.256,43.32 L271.032,43.32 L268.968,51 L261.192,51 Z" id="Spørg-her!" fill="#000000"></path>
        </g>
    </g>
</svg>