<?xml version="1.0" encoding="UTF-8"?>
<svg width="270px" height="95px" viewBox="0 0 270 95" version="1.1" xmlns="http://www.w3.org/2000/svg" xmlns:xlink="http://www.w3.org/1999/xlink">
    <!-- Generator: Sketch 45.2 (43514) - http://www.bohemiancoding.com/sketch -->
    <title>Icons web-12 copy</title>
    <desc>Created with Sketch.</desc>
    <defs></defs>
    <g id="Page-1" stroke="none" stroke-width="1" fill="none" fill-rule="evenodd">
        <g id="Icons-web-12-copy" transform="translate(1.000000, 2.000000)">
            <path d="M259.7,0.3 L7.8,0.3 C3.8,0.3 0.6,3.6 0.6,7.5 L0.6,65 C0.6,69 3.9,72.2 7.8,72.2 L29.4,72.2 C33.4,72.2 36.6,75.5 36.6,79.4 L36.6,87.3 C36.6,91.3 39.3,92.7 42.6,90.5 L64.1,76.1 C67.4,73.9 73.4,72.1 77.4,72.1 L259.7,72.1 C263.7,72.1 266.9,68.8 266.9,64.9 L266.9,7.5 C267,3.5 263.7,0.3 259.7,0.3" id="Shape" stroke="#000000" stroke-width="3"></path>
            <path d="M17.7363,52.5123 L41.2083,18.6723 L48.3123,18.6723 L53.6403,52.5123 L46.0563,52.5123 L45.0003,44.9763 L30.7923,44.9763 L25.7043,52.5123 L17.7363,52.5123 Z M35.2083,38.4483 L44.1363,38.4483 L42.6003,27.3603 L35.2083,38.4483 Z M67.6083,53.0883 C63.7203,53.0883 59.0643,51.6003 56.0403,48.4323 L60.2643,44.0643 C62.9523,46.7523 65.8323,47.5203 68.1363,47.5203 C70.0563,47.5203 71.2083,46.7043 71.2083,45.2643 C71.2083,44.3043 70.0083,43.6323 68.2323,42.8643 C64.2003,41.1363 60.7443,39.4563 60.7443,35.3283 C60.7443,30.1923 64.6803,26.3043 71.0643,26.3043 C75.2403,26.3043 79.0803,28.1283 81.1923,30.0003 L77.2563,34.6083 C74.7603,32.6403 72.6483,31.8723 70.5363,31.8723 C68.7603,31.8723 67.7043,32.6883 67.7043,34.0323 C67.7043,35.0403 68.9523,35.7603 71.1123,36.7203 C74.4723,38.2083 78.1683,39.9843 78.1683,44.0163 C78.1683,49.6323 73.7523,53.0883 67.6083,53.0883 Z M81.0483,52.5123 L90.4563,17.4723 L97.7523,17.4723 L92.8563,35.6163 L103.2723,26.7843 L112.7763,26.7843 L100.3443,36.8163 L105.9603,52.5123 L97.8003,52.5123 L94.1523,41.6163 L90.4563,44.5923 L88.3443,52.5123 L81.0483,52.5123 Z M123.8163,52.5123 L131.1123,52.5123 L135.0003,38.0643 C135.8163,34.9923 137.6883,32.9283 140.5683,32.9283 C142.8243,32.9283 144.1203,34.0323 144.1203,36.0963 C144.1203,36.7203 143.9763,37.6803 143.7843,38.4003 L139.9923,52.5123 L147.2883,52.5123 L150.9843,38.6883 C151.4163,37.0563 151.8483,35.2323 151.8483,33.7923 C151.8483,29.1363 148.8723,26.3043 144.2643,26.3043 C141.3843,26.3043 139.0803,27.8403 137.2563,29.4723 L140.4243,17.4723 L133.1283,17.4723 L123.8163,52.5123 Z M162.6483,42.1923 C162.8883,45.2163 164.6643,47.2323 168.5043,47.2323 C170.4243,47.2323 172.1043,46.6563 174.2163,45.1683 L177.5763,49.6803 C175.2723,51.6003 172.0563,53.0883 167.6883,53.0883 C160.2963,53.0883 155.7843,48.7683 155.7843,41.6643 C155.7843,34.2243 161.8323,26.3043 171.0483,26.3043 C177.7203,26.3043 181.5603,30.6243 181.5603,36.3363 C181.5603,38.1603 181.0803,40.2243 180.2643,42.1923 L162.6483,42.1923 Z M163.2723,37.6323 L174.4563,37.6323 C174.6003,37.1523 174.6963,36.5763 174.6963,35.9523 C174.6963,33.8403 173.4483,32.1603 170.4723,32.1603 C167.1603,32.1603 164.4723,34.3683 163.2723,37.6323 Z M182.8083,52.5123 L189.6723,26.7843 L196.9683,26.7843 L195.5763,31.9683 C198.1683,28.1763 201.1443,25.9683 205.3683,26.3043 L203.3043,33.9363 L202.9203,33.9363 C198.0723,33.9363 194.3283,36.7203 192.5523,43.3923 L190.1043,52.5123 L182.8083,52.5123 Z M211.6563,42.1923 C211.8963,45.2163 213.6723,47.2323 217.5123,47.2323 C219.4323,47.2323 221.1123,46.6563 223.2243,45.1683 L226.5843,49.6803 C224.2803,51.6003 221.0643,53.0883 216.6963,53.0883 C209.3043,53.0883 204.7923,48.7683 204.7923,41.6643 C204.7923,34.2243 210.8403,26.3043 220.0563,26.3043 C226.7283,26.3043 230.5683,30.6243 230.5683,36.3363 C230.5683,38.1603 230.0883,40.2243 229.2723,42.1923 L211.6563,42.1923 Z M212.2803,37.6323 L223.4643,37.6323 C223.6083,37.1523 223.7043,36.5763 223.7043,35.9523 C223.7043,33.8403 222.4563,32.1603 219.4803,32.1603 C216.1683,32.1603 213.4803,34.3683 212.2803,37.6323 Z M237.3363,41.0883 L241.3683,41.0883 L249.2883,19.8723 L249.5763,18.9123 L241.0323,18.9123 L240.7443,19.8723 L237.3363,41.0883 Z M232.3923,52.5123 L240.1683,52.5123 L242.2323,44.8323 L234.4563,44.8323 L232.3923,52.5123 Z" id="Ask-here!" fill="#000000"></path>
        </g>
    </g>
</svg>