<?xml version="1.0" encoding="UTF-8"?>
<svg width="95px" height="95px" viewBox="0 0 95 95" version="1.1" xmlns="http://www.w3.org/2000/svg" xmlns:xlink="http://www.w3.org/1999/xlink">
    <!-- Generator: Sketch 45.2 (43514) - http://www.bohemiancoding.com/sketch -->
    <title>Shape</title>
    <desc>Created with Sketch.</desc>
    <defs></defs>
    <g id="Page-1" stroke="none" stroke-width="1" fill="none" fill-rule="evenodd">
        <g id="Icons-web-01-copy" transform="translate(-279.000000, -57.000000)">
            <path d="M372.7,79 L365.7,79 L365.7,74.7 C365.7,74.1 365.2,73.6 364.6,73.6 L354.6,73.6 C350.5,73.6 346.5,73 342.7,71.7 C341.1,71.2 339.5,70.9 337.9,70.9 C334.5,70.9 331.2,72 328.5,74.1 L327,75.3 L326.1,73.6 C321,63.7 310.5,57.3 299.4,57.3 C298.8,57.3 298.3,57.8 298.3,58.4 L298.3,73.6 L288.5,73.6 C287.9,73.6 287.4,74.1 287.4,74.7 L287.4,79 L280.4,79 C279.8,79 279.3,79.5 279.3,80.1 L279.3,148.1 C279.3,148.7 279.8,149.2 280.4,149.2 L320.1,149.2 L320.1,150.8 C320.1,151.4 320.6,151.9 321.2,151.9 L332.1,151.9 C332.7,151.9 333.2,151.4 333.2,150.8 L333.2,149.2 L372.9,149.2 C373.5,149.2 374,148.7 374,148.1 L374,80.1 C373.8,79.5 373.3,79 372.7,79 Z M327.6,77.8 L328.6,76.8 C331.1,74.3 334.3,73 337.8,73 C339.2,73 340.6,73.2 341.9,73.7 C346,75.1 350.2,75.8 354.5,75.8 L363.4,75.8 L363.4,136.1 L354.5,136.1 C350.4,136.1 346.4,135.5 342.6,134.2 C338.4,132.8 333.7,133.3 330,135.5 L327.6,136.9 L327.6,77.8 L327.6,77.8 Z M300.4,59.4 L302.2,59.6 C312.5,60.7 321.6,67.6 325.3,77.3 L325.4,77.6 L325.4,134.2 L322.6,130.7 C317.5,124.5 309.9,120.5 301.9,119.8 L300.4,119.7 L300.4,59.4 L300.4,59.4 Z M289.5,75.8 L298.1,75.8 L298.1,120.9 C298.1,121.5 298.6,122 299.2,122 C307,122 314.4,125.3 319.7,131 L323.1,134.6 L318.2,133.6 C315.6,133.1 312.8,133.2 310.3,134.1 C306.4,135.4 302.4,136 298.4,136 L289.5,136 L289.5,75.8 L289.5,75.8 Z M371.6,147 L331.9,147 C331.3,147 330.8,147.5 330.8,148.1 L330.8,149.7 L322.2,149.7 L322.2,148.1 C322.2,147.5 321.7,147 321.1,147 L281.4,147 L281.4,81.2 L287.3,81.2 L287.3,137.2 C287.3,137.8 287.8,138.3 288.4,138.3 L298.4,138.3 C302.7,138.3 306.9,137.6 311,136.3 C312.3,135.8 313.7,135.6 315.1,135.6 C318.6,135.6 321.9,136.9 324.3,139.4 L325.6,140.7 C325.8,140.9 326.1,141 326.4,141 C326.7,141 327,140.9 327.2,140.7 L328.5,139.4 C331,136.9 334.2,135.6 337.7,135.6 C339.1,135.6 340.5,135.8 341.8,136.3 C345.9,137.7 350.1,138.3 354.4,138.3 L364.4,138.3 C365,138.3 365.5,137.8 365.5,137.2 L365.5,81.2 L371.4,81.2 L371.4,147 L371.6,147 Z" id="Shape" fill="#000000" fill-rule="nonzero"></path>
            <g id="Group"></g>
        </g>
    </g>
</svg>