<?xml version="1.0" encoding="UTF-8"?>
<svg width="111px" height="111px" viewBox="0 0 120 101" version="1.1" xmlns="http://www.w3.org/2000/svg" xmlns:xlink="http://www.w3.org/1999/xlink">
  <!-- Generator: Sketch 45.2 (43514) - http://www.bohemiancoding.com/sketch -->
  <title>Group</title>
  <desc>Created with Sketch.</desc>
  <defs></defs>
  <g id="Page-1" stroke="none" stroke-width="1" fill="none" fill-rule="evenodd">
    <g id="Group" fill-rule="nonzero" fill="#000">
      <path d="M119.1,85.9 C119.1,80.3 115.9,75.5 111.2,73.1 L111.2,73.2 L111.6,73.4 C114.1,74.8 116.1,76.8 117.4,79.3 C119.6,83.6 119.5,88.5 117.5,92.5 C118.5,90.5 119.1,88.3 119.1,85.9 Z" id="Shape"></path>
      <path
        d="M117.4,79.3 C116.2,76.9 114.1,74.8 111.6,73.4 L111.2,73.2 L111.2,73.1 L111.3,72.7 C112.2,67.7 112.8,61.5 109.4,57.3 C108.7,56.4 107.7,55.7 106.4,55.2 C105.3,54.8 104.1,54.7 102.9,54.6 L102.5,54.6 C102.3,54.6 102.1,54.6 101.9,54.6 L101.2,54.6 L101.2,50 C101.2,49.4 100.6,48.8 100,48.8 L97.2,48.8 L97.3,48 C97.4,47.3 97.6,46.7 97.7,46 C98.2,44 98.6,41.9 99,39.8 C100.1,33.6 100.3,28.5 99.6,23.7 C99.2,21 98.3,18.4 97.1,15.9 C95.8,13.5 94,11.2 91.5,9.2 C85.9,4.6 80.3,1.9 74.7,1.1 C69.8,0.4 64.9,1.1 60.1,3.1 C56.6,4.6 53.1,6.9 49.7,9.9 C47.6,11.8 45.6,14 43.7,16.5 C43.1,17.3 42.7,17.8 42.4,18.6 C40.9,22.9 39.5,27.1 38,31.4 C35.3,39.2 32.7,47.1 30,54.9 C27.2,63 24.5,71.1 21.7,79.2 L20.2,83.6 C19,87.1 17.8,90.7 16.6,94.2 C16.6,94.3 16.5,94.3 16.5,94.4 L16.4,95 L2,95 C1.3,95 0.8,95.6 0.8,96.2 C0.8,96.9 1.4,97.4 2,97.4 L33.3,97.4 C34,97.4 34.5,96.8 34.5,96.2 C34.5,95.6 33.9,95 33.3,95 L18.9,95 L19.2,94.1 C20.1,91.5 20.9,89 21.8,86.4 C24.3,79 26.8,71.5 29.4,64.1 L33.2,53.1 C34.8,48.5 36.3,43.8 37.9,39.2 L44.8,18.9 L44.9,18.8 C45,18.6 45.2,18.4 45.4,18.1 L45.7,17.7 L45.8,17.4 L45.9,17.4 C45.9,17.4 45.9,17.4 45.9,17.4 L45.9,17.4 C46.3,16.9 46.7,16.5 47,16 C48,14.8 49.1,13.7 50.2,12.6 C51,11.8 51.7,11.2 52.3,10.7 C52.7,10.4 53,10.1 53.4,9.8 L53.9,9.4 C54,9.3 54.2,9.2 54.3,9.1 L54.4,9 C56.1,7.7 58,6.6 59.9,5.7 L60,5.6 C60.2,5.5 60.4,5.4 60.6,5.3 C60.7,5.2 60.9,5.2 61,5.1 L61.1,5 L61.3,5 C61.8,4.8 62.2,4.6 62.7,4.5 C63.8,4.1 64.9,3.8 66.1,3.6 C66.5,3.5 67,3.4 67.6,3.3 L67.7,3.3 C67.7,3.3 67.8,3.3 68,3.3 C68.1,3.3 68.3,3.3 68.3,3.3 C68.6,3.3 69,3.2 69.3,3.2 C70.5,3.1 71.7,3.2 73.1,3.3 C73.3,3.3 73.4,3.3 73.6,3.4 L73.8,3.4 C74,3.4 74.1,3.4 74.2,3.5 C74.4,3.5 74.5,3.6 74.7,3.6 C75.3,3.7 76,3.8 76.8,4 C77.4,4.2 78.1,4.4 78.8,4.6 C79,4.7 79.3,4.8 79.6,4.9 L79.8,5 C80,5 80.1,5.1 80.3,5.2 C80.4,5.3 80.6,5.3 80.6,5.3 L80.8,5.4 C84.3,6.9 87.3,9 89.2,10.5 C91.9,12.7 93.5,14.5 94.9,17.2 C95.1,17.5 95.2,17.8 95.4,18.1 C95.4,18.2 95.5,18.2 95.5,18.3 L95.7,18.9 C95.9,19.5 96.2,20.1 96.4,20.8 C96.8,22 97.1,23.3 97.3,24.7 L97.3,24.7 L97.3,24.8 C97.3,24.9 97.3,24.9 97.3,24.9 L97.3,25 C97.3,25.1 97.3,25.2 97.3,25.3 C97.3,25.6 97.4,25.9 97.4,26.2 L97.4,26.3 C97.5,27 97.5,27.7 97.5,28.5 C97.5,29.7 97.5,31.1 97.4,32.5 C97.4,33.1 97.3,33.8 97.2,34.4 L97.1,35.3 C97.1,35.4 97.1,35.6 97.1,35.7 L97.1,36 C96.9,37.2 96.7,38.4 96.5,39.7 C96.2,41.5 95.7,43.3 95.3,45.1 L95.1,46 C95,46.6 94.8,47.3 94.7,47.9 L94.6,48.5 L91.5,48.5 C90.8,48.5 90.3,49.1 90.3,49.7 L90.3,54.7 L89.7,54.8 C85.8,55.2 81.9,55.9 78.1,56.9 C72.3,58.4 67.1,60.6 62.6,63.3 C57.1,66.6 52.3,71.1 48.4,76.7 C46.9,78.8 45.9,80.8 45.2,82.7 C45.1,82.8 45.1,83 45.1,83.1 C45.1,83.2 45,83.3 45,83.4 L45,83.5 L45,83.6 C44.7,84.6 44.5,85.6 44.5,86.6 C44.5,86.7 44.5,86.8 44.5,86.9 C44.4,89.7 45.8,92.2 48.2,94 C50.8,96 54.4,96.6 57.1,97 C58.5,97.2 60,97.2 61.4,97.2 L96,97.2 C98.4,99.1 101.5,100.2 104.8,100.2 C108.4,100.2 111.7,98.8 114.2,96.6 L114.2,96.6 C114.3,96.5 114.5,96.4 114.6,96.2 C114.7,96.1 114.9,96 115,95.8 C115.3,95.5 115.6,95.2 115.8,94.9 C116,94.7 116.1,94.5 116.3,94.3 C116.5,94.1 116.6,93.9 116.7,93.7 C117,93.3 117.3,92.8 117.5,92.4 C119.5,88.5 119.6,83.5 117.4,79.3 Z M92.8,51 L98.8,51 L98.8,54.3 L98.1,54.3 C96.5,54.3 95,54.4 93.5,54.5 L92.8,54.5 L92.8,51 L92.8,51 Z M47.2,84.4 C47.5,83.3 48.1,82.2 48.4,82.2 L72,82.2 C73.2,82.2 74.2,83.2 74.2,84.6 C74.2,85.9 73.2,87 72,87 L47,87 C46.8,86.9 46.9,85.6 47.2,84.4 Z M78.5,94.9 C76.6,94.9 74.7,94.9 72.8,94.9 C70.9,94.9 69,94.9 67.1,94.9 C64.8,94.9 62.5,94.9 60.1,94.9 C58.3,94.9 56.8,94.7 55.2,94.4 C54.4,94.2 53.6,94 52.9,93.8 C52.6,93.7 52.2,93.6 51.9,93.5 L51.2,93.2 C51.2,93.2 51.2,93.2 51.1,93.2 L50.8,93.1 C50.5,92.9 50.1,92.8 49.8,92.6 C49.7,92.5 49.3,92.3 49.3,92.3 L49,92.1 C48.8,92 48.7,91.8 48.5,91.6 L48.4,91.5 C48.3,91.4 48.2,91.3 48.1,91.1 C48.1,91.1 48,91 48,91 L47.8,90.6 C47.7,90.5 47.7,90.5 47.6,90.4 L47,89.4 L71.6,89.4 C73.9,89.4 75.9,87.8 76.3,85.6 C76.6,84.2 76.2,82.8 75.3,81.7 C74.4,80.6 73,79.9 71.6,79.9 L49.1,79.9 L50.5,77.8 C52.5,75 54.8,72.4 57.3,70.1 C58.5,69 59.3,68.4 60.6,67.4 C61.7,66.6 63,65.8 64.4,65 C65.7,64.3 67,63.6 68.3,63 C68.8,62.8 69.3,62.5 69.8,62.3 L70,62.2 L70.4,62 L70.8,61.9 C71.2,61.7 71.5,61.6 71.9,61.5 C76.5,59.7 81.6,58.4 87,57.6 C87.2,57.6 87.3,57.6 87.5,57.5 L87.7,57.5 C87.9,57.5 88.2,57.4 88.3,57.4 C88.9,57.3 89.5,57.3 90,57.2 C91,57.1 92,57 93.1,56.9 C94.8,56.8 96.5,56.7 98.1,56.7 L99.3,56.7 C100.6,56.7 102,56.7 103.5,56.9 L103.7,56.9 C103.8,56.9 103.8,56.9 103.9,56.9 L104,56.9 C104.2,56.9 104.3,57 104.5,57 C104.7,57 104.9,57.1 105.1,57.2 L105.5,57.4 C105.8,57.5 106,57.7 106.2,57.8 L106.6,58.1 C106.8,58.2 106.9,58.4 107,58.5 C107.1,58.6 107.3,58.8 107.4,58.9 L107.4,58.9 C107.5,59 107.5,59 107.5,59.1 C107.7,59.4 107.9,59.7 108.1,60.1 L108.1,60.2 C108.1,60.2 108.1,60.3 108.2,60.3 L108.4,60.9 C108.5,61.4 108.7,61.8 108.7,62.2 C108.8,62.6 108.9,63 108.9,63.3 C108.9,63.4 108.9,63.7 109,63.8 L109.1,64.5 C109.2,65.4 109.2,66.3 109.1,67.4 C109,68.4 109,69.4 108.8,70.4 L108.8,70.6 C108.8,70.8 108.8,70.9 108.7,71 L108.6,72 C107.3,71.6 105.8,71.4 104.3,71.4 C96.4,71.4 89.9,77.9 89.9,85.8 C89.9,89.2 91.1,92.3 93.1,94.8 L78.5,94.8 L78.5,94.9 Z M104.7,98 C98,98 92.6,92.6 92.6,85.9 C92.6,79.2 98,73.8 104.7,73.8 C111.4,73.8 116.8,79.2 116.8,85.9 C116.8,92.6 111.4,98 104.7,98 Z"
        id="Shape"></path>
    </g>
  </g>
</svg>
