<?xml version="1.0" encoding="UTF-8"?>
<svg width="121px" height="101px" viewBox="0 0 121 101" version="1.1" xmlns="http://www.w3.org/2000/svg" xmlns:xlink="http://www.w3.org/1999/xlink">
    <!-- Generator: Sketch 45.2 (43514) - http://www.bohemiancoding.com/sketch -->
    <title>Group</title>
    <desc>Created with Sketch.</desc>
    <defs></defs>
    <g id="Page-1" stroke="none" stroke-width="1" fill="none" fill-rule="evenodd">
        <g id="Group" fill-rule="nonzero" fill="#FFFFFF">
            <path d="M73.9,0.5 C48.2,0.5 27.2,21.4 27.2,47.2 C27.2,51.7 27.9,56.2 29.2,60.6 L29.5,61.6 L28.5,61.7 C18.5,62.3 11.6,64.4 10,67.3 L9.8,67.7 L9,67.8 C4,67.9 0,71.9 0,76.9 C0,81.9 4.1,86 9.1,86 L12.5,86 L12.7,86.6 C14.4,92.5 16.3,96.8 16.3,97 C16.4,97.3 16.6,97.5 16.9,97.6 C17.2,97.7 24.3,100.6 33.2,100.6 C42.1,100.6 49.2,97.7 49.5,97.6 C49.8,97.5 50,97.3 50.1,97 C50.1,96.9 51.3,94.1 52.7,90 L53,89.1 L53.9,89.5 C60.1,92.5 67.1,94 74,94 C80.2,94 86.3,92.8 91.8,90.5 C97.4,88.2 102.5,84.8 106.9,80.3 C115.7,71.5 120.6,59.8 120.6,47.3 C120.6,21.5 99.7,0.5 73.9,0.5 Z M9,83.5 C5.3,83.5 2.2,80.5 2.2,76.7 C2.2,73 5.1,70.1 8.7,69.9 L9.5,69.9 L9.5,70.7 C9.7,74.1 10.3,78.1 11.4,82.4 L11.7,83.4 L9,83.5 Z M11.8,68.6 L12,68.2 C13.2,66.1 22,63.8 33.2,63.8 C44.3,63.8 53.2,66.1 54.4,68.2 L54.6,68.6 L54.4,69 C53.2,71.1 44.3,73.4 33.2,73.4 C22.1,73.4 13.2,71.1 12,69 L11.8,68.6 Z M48.3,95.1 L48.2,95.4 L47.9,95.5 C45.7,96.3 40,98.1 33.3,98.1 C26.6,98.1 20.8,96.3 18.7,95.5 L18.4,95.4 L18.3,95.1 C17.2,92.3 13.5,82.6 12.4,73.5 L12.2,72 L13.5,72.6 C15.4,73.5 17.9,74.2 21.1,74.7 L21.8,74.8 L24.1,75.1 L25,75.2 C28.5,75.6 31.5,75.6 33.4,75.6 C39.7,75.6 48.3,74.8 53.2,72.5 L54.5,71.9 L54.3,73.4 C53.1,82.7 49.4,92.4 48.3,95.1 Z M73.9,91.6 C67.1,91.6 60.4,90 54.3,87 L53.7,86.7 L53.9,86 C55.9,79.3 56.9,73.4 56.9,68.6 C56.9,63.9 45,61.5 33.3,61.5 L32,61.5 L31.8,60.9 C30.4,56.5 29.6,51.9 29.6,47.2 C29.6,22.7 49.5,2.8 74,2.8 C98.5,2.8 118.4,22.7 118.4,47.2 C118.3,71.7 98.4,91.6 73.9,91.6 Z" id="Shape"></path>
            <path d="M89.8,30.1 L89.4,29.8 L89.5,29.3 C89.6,28.7 89.7,28.3 89.7,27.9 C89.7,25 87.3,22.6 84.4,22.6 C82.9,22.6 81.5,23.2 80.4,24.4 L80.1,24.8 L79.6,24.7 C77.7,24.2 75.7,24 73.8,24 C60.9,24 50.4,34.5 50.4,47.4 C50.4,60.3 60.9,70.8 73.8,70.8 C86.7,70.8 97.2,60.3 97.2,47.4 C97.3,40.7 94.6,34.5 89.8,30.1 Z M84.5,24.8 C86.2,24.8 87.5,26.2 87.5,27.8 C87.5,29.5 86.1,30.8 84.5,30.8 C82.8,30.8 81.5,29.4 81.5,27.8 C81.5,26.2 82.9,24.8 84.5,24.8 Z M73.9,68.3 C62.3,68.3 52.8,58.8 52.8,47.2 C52.8,35.6 62.3,26.1 73.9,26.1 C75.5,26.1 77,26.3 78.6,26.6 L79.3,26.7 L79.3,27.4 C79.3,27.5 79.3,27.5 79.3,27.6 C79.3,27.6 79.3,27.7 79.3,27.7 C79.3,30.6 81.7,33 84.6,33 C85.7,33 86.8,32.6 87.7,32 L88.3,31.6 L88.8,32.1 C92.9,36.1 95.1,41.4 95.1,47.1 C95,58.8 85.6,68.3 73.9,68.3 Z" id="Shape"></path>
            <path d="M39.4,38.6 C36.5,38.6 34.1,41 34.1,43.9 C34.1,46.8 36.5,49.2 39.4,49.2 C42.3,49.2 44.7,46.8 44.7,43.9 C44.7,41 42.3,38.6 39.4,38.6 Z M39.4,47 C37.7,47 36.4,45.7 36.4,44 C36.4,42.3 37.8,41 39.4,41 C41.1,41 42.4,42.4 42.4,44 C42.4,45.6 41.1,47 39.4,47 Z" id="Shape"></path>
            <path d="M60.9,7.5 C58,7.5 55.6,9.9 55.6,12.8 C55.6,15.7 58,18.1 60.9,18.1 C63.8,18.1 66.2,15.7 66.2,12.8 C66.3,9.9 63.9,7.5 60.9,7.5 Z M60.9,15.9 C59.2,15.9 57.9,14.6 57.9,12.9 C57.9,11.2 59.2,9.9 60.9,9.9 C62.6,9.9 63.9,11.3 63.9,12.9 C64,14.5 62.6,15.9 60.9,15.9 Z" id="Shape"></path>
            <path d="M28.8,7.5 C25.9,7.5 23.5,9.9 23.5,12.8 C23.5,15.7 25.9,18.1 28.8,18.1 C31.7,18.1 34.1,15.7 34.1,12.8 C34.1,9.9 31.7,7.5 28.8,7.5 Z M28.8,15.9 C27.1,15.9 25.8,14.6 25.8,12.9 C25.8,11.2 27.2,9.9 28.8,9.9 C30.5,9.9 31.8,11.3 31.8,12.9 C31.8,14.5 30.4,15.9 28.8,15.9 Z" id="Shape"></path>
        </g>
    </g>
</svg>