<?xml version="1.0" encoding="UTF-8"?>
<svg width="71px" height="111px" viewBox="0 -11 71 121" version="1.1" xmlns="http://www.w3.org/2000/svg" xmlns:xlink="http://www.w3.org/1999/xlink">
  <!-- Generator: Sketch 45.2 (43514) - http://www.bohemiancoding.com/sketch -->
  <title>Group</title>
  <desc>Created with Sketch.</desc>
  <defs></defs>
  <g id="Page-1" stroke="none" stroke-width="1" fill="none" fill-rule="evenodd">
    <g id="Group" fill-rule="nonzero" fill="#000">
      <path
        d="M65.2,0.8 L5.4,0.8 C2.6,0.8 0.3,3.1 0.3,5.9 L0.3,90.9 C0.3,93.7 2.6,96 5.4,96 L14.2,96 C14.2,96.1 14.2,96.2 14.2,96.3 L14.2,98.4 C14.2,99.7 15.3,100.9 16.7,100.9 L20.6,100.9 C21.9,100.9 23.1,99.8 23.1,98.4 L23.1,96.3 C23.1,96.2 23.1,96.1 23.1,96 L47.9,96 C47.9,96.1 47.9,96.2 47.9,96.3 L47.9,98.4 C47.9,99.7 49,100.9 50.4,100.9 L54.3,100.9 C55.7,100.9 56.8,99.8 56.8,98.4 L56.8,96.3 C56.8,96.2 56.8,96.1 56.8,96 L65.3,96 C68.1,96 70.4,93.7 70.4,90.9 L70.4,5.9 C70.2,3 68,0.8 65.2,0.8 Z M54.4,98.3 C54.4,98.4 54.3,98.5 54.2,98.5 L50.3,98.5 C50.2,98.5 50.1,98.4 50.1,98.3 L50.1,96.2 C50.1,96.1 50.2,96 50.3,96 L54.2,96 C54.3,96 54.4,96.1 54.4,96.2 L54.4,98.3 Z M20.8,98.3 C20.8,98.4 20.7,98.5 20.6,98.5 L16.7,98.5 C16.6,98.5 16.5,98.4 16.5,98.3 L16.5,96.2 C16.5,96.1 16.6,96 16.7,96 L20.6,96 C20.7,96 20.8,96.1 20.8,96.2 L20.8,98.3 Z M68,90.8 C68,92.4 66.7,93.7 65.1,93.7 L5.3,93.7 C3.7,93.7 2.4,92.4 2.4,90.8 L2.4,5.8 C2.4,4.2 3.7,2.9 5.3,2.9 L65.1,2.9 C66.7,2.9 68,4.2 68,5.8 L68,90.8 Z"
        id="Shape"></path>
      <path
        d="M34.6,40.9 C21.6,40.9 11.1,51.4 11.1,64.3 C11.1,77.2 21.7,87.7 34.6,87.7 C47.6,87.7 58.1,77.2 58.1,64.3 C58.2,51.4 47.6,40.9 34.6,40.9 Z M34.6,85.5 C22.8,85.5 13.3,76 13.3,64.3 C13.3,52.6 22.9,43.1 34.6,43.1 C46.4,43.1 55.9,52.6 55.9,64.3 C56,76 46.4,85.5 34.6,85.5 Z"
        id="Shape"></path>
      <path
        d="M34.6,9.4 C27.7,9.4 22.1,15 22.1,21.8 C22.1,28.6 27.7,34.2 34.6,34.2 C41.5,34.2 47.1,28.6 47.1,21.8 C47.1,14.9 41.5,9.4 34.6,9.4 Z M34.6,32 C28.9,32 24.3,27.4 24.3,21.8 C24.3,16.2 28.9,11.6 34.6,11.6 C40.3,11.6 44.9,16.2 44.9,21.8 C44.9,27.4 40.3,32 34.6,32 Z"
        id="Shape"></path>
      <path
        d="M34.6,55.6 C29.5,55.6 25.3,59.8 25.3,64.9 C25.3,70 29.5,74.2 34.6,74.2 C39.7,74.2 43.9,70 43.9,64.9 C43.9,59.8 39.8,55.6 34.6,55.6 Z M34.6,72.2 C30.6,72.2 27.5,69.1 27.5,65.1 C27.5,61.1 30.6,58 34.6,58 C38.6,58 41.7,61.1 41.7,65.1 C41.8,69.1 38.6,72.2 34.6,72.2 Z"
        id="Shape"></path>
    </g>
  </g>
</svg>
