<?xml version="1.0" encoding="UTF-8"?>
<svg width="14px" height="29px" viewBox="0 0 14 29" version="1.1" xmlns="http://www.w3.org/2000/svg" xmlns:xlink="http://www.w3.org/1999/xlink">
    <!-- Generator: Sketch 46 (44423) - http://www.bohemiancoding.com/sketch -->
    <title>facebook</title>
    <desc>Created with Sketch.</desc>
    <defs></defs>
    <g id="Page-1" stroke="none" stroke-width="1" fill="none" fill-rule="evenodd">
        <g id="facebook" transform="translate(0.000000, 1.000000)" stroke="#000000">
            <path d="M9,8.3 L9,6.1 C9,5.1 9.7,4.8 10.2,4.8 C10.7,4.8 13.2,4.8 13.2,4.8 L13.2,0.2 L9,0.2 C4.4,0.2 3.3,3.6 3.3,5.8 L3.3,8.2 L0.6,8.2 L0.6,11.4 L0.6,13.5 L3.3,13.5 C3.3,19.6 3.3,27 3.3,27 L8.7,27 C8.7,27 8.7,19.6 8.7,13.5 L12.7,13.5 L12.9,11.4 L13.2,8.1 L9,8.1 L9,8.3 Z" id="Shape"></path>
        </g>
    </g>
</svg>