<?xml version="1.0" encoding="UTF-8"?>
<svg width="165px" height="111px" viewBox="0 0 165 105" version="1.1" xmlns="http://www.w3.org/2000/svg" xmlns:xlink="http://www.w3.org/1999/xlink">
    <!-- Generator: Sketch 46 (44423) - http://www.bohemiancoding.com/sketch -->
    <title>Slice</title>
    <desc>Created with Sketch.</desc>
    <defs></defs>
    <g id="Page-1" stroke="none" stroke-width=".3" fill="none" fill-rule="evenodd">
        <g id="foodservice-assistance" transform="translate(1.000000, 1.000000)" stroke="#000000" fill-rule="nonzero" fill="#000000">
            <path d="M14.1266667,0 C6.24833333,0 0,10.0216216 0,22.2702703 C0,32.2918919 3.80333333,40.6432432 9.50833333,43.427027 C10.0516667,43.7054054 10.3233333,44.2621622 10.3233333,44.8189189 L9.50833333,97.9891892 C9.50833333,99.3810811 10.0516667,100.494595 10.8666667,101.608108 C11.6816667,102.443243 13.04,103 14.3983333,103 C15.7566667,103 16.8433333,102.443243 17.93,101.608108 C18.745,100.772973 19.2883333,99.3810811 19.2883333,97.9891892 L18.4733333,44.8189189 C18.4733333,44.2621622 18.745,43.7054054 19.2883333,43.427027 C24.9933333,40.6432432 28.7966667,32.0135135 28.7966667,22.2702703 C28.2533333,10.0216216 22.005,0 14.1266667,0 Z M17.93,41.7567568 C16.8433333,42.3135135 16.0283333,43.7054054 16.0283333,45.0972973 L16.8433333,98.2675676 C16.8433333,99.1027027 16.5716667,99.6594595 16.0283333,100.216216 C15.485,100.772973 14.9416667,101.051351 14.1266667,101.051351 C13.3116667,101.051351 12.7683333,100.772973 12.225,100.216216 C11.6816667,99.6594595 11.41,98.8243243 11.41,98.2675676 L12.225,45.0972973 C12.225,43.7054054 11.41,42.5918919 10.3233333,41.7567568 C5.43333333,39.2513514 1.90166667,31.4567568 1.90166667,22.2702703 C1.90166667,11.1351351 7.335,2.22702703 14.1266667,2.22702703 C20.9183333,2.22702703 26.3516667,11.4135135 26.3516667,22.2702703 C26.3516667,31.4567568 22.82,39.2513514 17.93,41.7567568 Z M163,1.11351351 L163,30.3432432 C163,35.3540541 160.283333,40.0864865 156.208333,42.3135135 C155.121667,42.8702703 154.578333,43.9837838 154.578333,45.0972973 L155.936667,97.7108108 C155.936667,99.1027027 155.393333,100.216216 154.578333,101.32973 C153.763333,102.164865 152.405,102.721622 151.046667,102.721622 C149.688333,102.721622 148.601667,102.164865 147.515,101.32973 C146.7,100.494595 146.156667,99.1027027 146.156667,97.7108108 L147.515,45.0972973 C147.515,43.9837838 146.971667,42.8702703 145.885,42.3135135 C141.81,40.0864865 139.093333,35.3540541 139.093333,30.3432432 L139.093333,1.11351351 C139.093333,0.556756757 139.636667,0 140.18,0 C140.723333,0 141.266667,0.556756757 141.266667,1.11351351 L141.266667,30.3432432 C141.266667,34.7972973 143.44,38.6945946 146.971667,40.6432432 C148.601667,41.4783784 149.688333,43.427027 149.688333,45.3756757 L148.33,97.9891892 C148.33,98.8243243 148.601667,99.3810811 149.145,99.9378378 C149.688333,100.494595 150.231667,100.772973 151.046667,100.772973 C151.861667,100.772973 152.405,100.494595 152.948333,99.9378378 C153.491667,99.3810811 153.763333,98.5459459 153.763333,97.9891892 L152.405,45.3756757 C152.405,43.427027 153.491667,41.4783784 155.121667,40.6432432 C158.653333,38.6945946 160.826667,34.7972973 160.826667,30.3432432 L160.826667,1.11351351 C160.826667,0.556756757 161.37,0 161.913333,0 C162.456667,0 163,0.556756757 163,1.11351351 Z M146.156667,28.3945946 L146.156667,1.11351351 C146.156667,0.556756757 146.7,0 147.243333,0 C147.786667,0 148.33,0.556756757 148.33,1.11351351 L148.33,28.3945946 C148.33,28.9513514 147.786667,29.5081081 147.243333,29.5081081 C146.7,29.5081081 146.156667,28.9513514 146.156667,28.3945946 Z M153.763333,28.3945946 L153.763333,1.11351351 C153.763333,0.556756757 154.306667,0 154.85,0 C155.393333,0 155.936667,0.556756757 155.936667,1.11351351 L155.936667,28.3945946 C155.936667,28.9513514 155.393333,29.5081081 154.85,29.5081081 C154.306667,29.5081081 153.763333,28.9513514 153.763333,28.3945946 Z M82.315,1.67027027 C55.42,1.67027027 33.6866667,23.9405405 33.6866667,51.5 C33.6866667,79.0594595 55.42,101.32973 82.315,101.32973 C109.21,101.32973 130.943333,79.0594595 130.943333,51.5 C130.943333,23.9405405 109.21,1.67027027 82.315,1.67027027 Z M82.315,99.1027027 C56.7783333,99.1027027 35.86,77.6675676 35.86,51.5 C35.86,25.3324324 56.7783333,3.8972973 82.315,3.8972973 C107.851667,3.8972973 128.77,25.3324324 128.77,51.5 C128.77,77.6675676 107.851667,99.1027027 82.315,99.1027027 Z M82.315,18.9297297 C64.6566667,18.9297297 50.53,33.6837838 50.53,51.5 C50.53,69.3162162 64.9283333,84.0702703 82.315,84.0702703 C99.7016667,84.0702703 114.1,69.5945946 114.1,51.5 C114.1,33.4054054 99.9733333,18.9297297 82.315,18.9297297 Z M82.315,82.1216216 C65.7433333,82.1216216 52.4316667,68.4810811 52.4316667,51.5 C52.4316667,34.5189189 65.7433333,20.8783784 82.315,20.8783784 C98.8866667,20.8783784 112.198333,34.5189189 112.198333,51.5 C112.198333,68.4810811 98.8866667,82.1216216 82.315,82.1216216 Z" id="Shape"></path>
        </g>
    </g>
</svg>
