<?xml version="1.0" encoding="UTF-8"?>
<svg width="100%" height="100%" viewBox="0 0 60 38" version="1.1" xmlns="http://www.w3.org/2000/svg" xmlns:xlink="http://www.w3.org/1999/xlink">
    <defs></defs>
    <g id="Page-1" stroke="none" stroke-width="1" fill="none" fill-rule="evenodd">
        <g id="noun_1057434_cc" transform="translate(-2.000000, -2.000000)" fill-rule="nonzero" fill="#000000">
            <path d="M7.2,2.5 C4.3,2.5 2,6.1 2,10.5 C2,14.1 3.4,17.1 5.5,18.1 C5.7,18.2 5.8,18.4 5.8,18.6 L5.5,37.7 C5.5,38.2 5.7,38.6 6,39 C6.3,39.3 6.8,39.5 7.3,39.5 C7.8,39.5 8.2,39.3 8.6,39 C8.9,38.7 9.1,38.2 9.1,37.7 L8.8,18.6 C8.8,18.4 8.9,18.2 9.1,18.1 C11.2,17.1 12.6,14 12.6,10.5 C12.4,6.1 10.1,2.5 7.2,2.5 Z M8.6,17.5 C8.2,17.7 7.9,18.2 7.9,18.7 L8.2,37.8 C8.2,38.1 8.1,38.3 7.9,38.5 C7.7,38.7 7.5,38.8 7.2,38.8 C6.9,38.8 6.7,38.7 6.5,38.5 C6.3,38.3 6.2,38 6.2,37.8 L6.5,18.7 C6.5,18.2 6.2,17.8 5.8,17.5 C4,16.6 2.7,13.8 2.7,10.5 C2.7,6.5 4.7,3.3 7.2,3.3 C9.7,3.3 11.7,6.6 11.7,10.5 C11.7,13.8 10.4,16.6 8.6,17.5 Z M62,2.9 L62,13.4 C62,15.2 61,16.9 59.5,17.7 C59.1,17.9 58.9,18.3 58.9,18.7 L59.4,37.6 C59.4,38.1 59.2,38.5 58.9,38.9 C58.6,39.2 58.1,39.4 57.6,39.4 C57.1,39.4 56.7,39.2 56.3,38.9 C56,38.6 55.8,38.1 55.8,37.6 L56.3,18.7 C56.3,18.3 56.1,17.9 55.7,17.7 C54.2,16.9 53.2,15.2 53.2,13.4 L53.2,2.9 C53.2,2.7 53.4,2.5 53.6,2.5 C53.8,2.5 54,2.7 54,2.9 L54,13.4 C54,15 54.8,16.4 56.1,17.1 C56.7,17.4 57.1,18.1 57.1,18.8 L56.6,37.7 C56.6,38 56.7,38.2 56.9,38.4 C57.1,38.6 57.3,38.7 57.6,38.7 C57.9,38.7 58.1,38.6 58.3,38.4 C58.5,38.2 58.6,37.9 58.6,37.7 L58.1,18.8 C58.1,18.1 58.5,17.4 59.1,17.1 C60.4,16.4 61.2,15 61.2,13.4 L61.2,2.9 C61.2,2.7 61.4,2.5 61.6,2.5 C61.8,2.5 62,2.7 62,2.9 Z M55.8,12.7 L55.8,2.9 C55.8,2.7 56,2.5 56.2,2.5 C56.4,2.5 56.6,2.7 56.6,2.9 L56.6,12.7 C56.6,12.9 56.4,13.1 56.2,13.1 C56,13.1 55.8,12.9 55.8,12.7 Z M58.6,12.7 L58.6,2.9 C58.6,2.7 58.8,2.5 59,2.5 C59.2,2.5 59.4,2.7 59.4,2.9 L59.4,12.7 C59.4,12.9 59.2,13.1 59,13.1 C58.8,13.1 58.6,12.9 58.6,12.7 Z M32.3,3.1 C22.4,3.1 14.4,11.1 14.4,21 C14.4,30.9 22.4,38.9 32.3,38.9 C42.2,38.9 50.2,30.9 50.2,21 C50.2,11.1 42.2,3.1 32.3,3.1 Z M32.3,38.1 C22.9,38.1 15.2,30.4 15.2,21 C15.2,11.6 22.9,3.9 32.3,3.9 C41.7,3.9 49.4,11.6 49.4,21 C49.4,30.4 41.7,38.1 32.3,38.1 Z M32.3,9.3 C25.8,9.3 20.6,14.6 20.6,21 C20.6,27.4 25.9,32.7 32.3,32.7 C38.7,32.7 44,27.5 44,21 C44,14.5 38.8,9.3 32.3,9.3 Z M32.3,32 C26.2,32 21.3,27.1 21.3,21 C21.3,14.9 26.2,10 32.3,10 C38.4,10 43.3,14.9 43.3,21 C43.3,27.1 38.4,32 32.3,32 Z" id="Shape"></path>
        </g>
    </g>
</svg>
