<?xml version="1.0" encoding="UTF-8"?>
<svg width="90px" height="100px" viewBox="0 0 90 100" version="1.1" xmlns="http://www.w3.org/2000/svg" xmlns:xlink="http://www.w3.org/1999/xlink">
    <!-- Generator: Sketch 45.2 (43514) - http://www.bohemiancoding.com/sketch -->
    <title>Group</title>
    <desc>Created with Sketch.</desc>
    <defs></defs>
    <g id="Page-1" stroke="none" stroke-width="1" fill="none" fill-rule="evenodd">
        <g id="Icons-web-01-copy" transform="translate(-62.000000, -245.000000)">
            <g id="Group" transform="translate(62.000000, 245.000000)" fill-rule="nonzero" fill="#000000">
                <path d="M79,62.5 C76.2,62.5 73.9,64.8 73.9,67.6 C73.9,70.4 76.2,72.7 79,72.7 C81.8,72.7 84.1,70.4 84.1,67.6 C84.1,64.8 81.8,62.5 79,62.5 Z M79,70.5 C77.4,70.5 76.1,69.2 76.1,67.6 C76.1,66 77.4,64.7 79,64.7 C80.6,64.7 81.9,66 81.9,67.6 C81.9,69.2 80.6,70.5 79,70.5 Z" id="Shape"></path>
                <path d="M79,56.7 C72.9,56.7 68,61.6 68,67.7 C68,71.6 70.1,75.3 73.5,77.2 L73.6,77.3 L73.6,77.4 C73,79.6 71.8,82.8 69.4,85.3 C66.3,88.4 61.8,90 56,90 C48.9,89.7 40.1,86.7 38.7,74.7 L38.7,74.6 L38.8,74.6 C46.5,73.3 53.6,69.1 58.7,62.9 C63.9,56.6 66.7,48.6 66.7,40.3 C66.7,40 66.6,39.7 66.4,39.5 C66.2,39.3 65.9,39.2 65.6,39.2 L62.5,39.2 L62.5,18.2 C62.5,13.5 60.2,9.7 55.9,7.3 C53.8,6.1 51.6,5.5 50.5,5.3 L50.4,5.3 L50.4,2.5 C50.4,2.1 50.2,1.7 49.9,1.5 C48.7,0.8 47.1,0.4 45.6,0.4 C41.6,0.4 38.4,3 38.4,6.2 C38.4,9.4 41.6,12 45.6,12 C47.1,12 48.7,11.6 49.9,10.8 C50.2,10.6 50.4,10.2 50.4,9.9 L50.4,7.5 L50.6,7.5 C53.5,8.2 60.3,10.7 60.3,18.2 L60.3,39.2 L56.2,39.2 C55.6,39.2 55.1,39.7 55.1,40.3 C55.1,53 45.3,63.4 33.4,63.4 C21.4,63.4 11.7,53 11.7,40.3 C11.7,39.7 11.2,39.2 10.6,39.2 L7,39.2 L7,18.2 C7,10.7 13.8,8.2 16.7,7.5 L16.8,7.5 L16.8,9.9 C16.8,10.3 17,10.7 17.3,10.8 C18.5,11.5 20.1,12 21.6,12 C25.6,12 28.8,9.4 28.8,6.2 C28.8,3 25.6,0.4 21.6,0.4 C20,0.4 18.5,0.8 17.3,1.5 C17,1.7 16.8,2.1 16.8,2.5 L16.8,5.3 L16.7,5.3 C15.6,5.5 13.5,6.1 11.3,7.3 C7,9.7 4.7,13.5 4.7,18.2 L4.7,39.2 L1.1,39.2 C0.5,39.2 1.42108547e-14,39.7 1.42108547e-14,40.3 C1.42108547e-14,57.6 12.4,72.4 28.8,74.7 L28.9,74.7 L28.9,74.8 C29.5,81.8 33.4,98.4 54.9,99.7 L56.5,99.8 L56.6,99.8 C56.7,99.8 56.8,99.8 56.9,99.8 C65.1,99.6 71.7,97 76.4,92.1 C80.9,87.5 82.7,81.8 83.5,77.9 L83.5,77.8 L83.6,77.8 C87.5,76 90,72.1 90,67.8 C90,61.6 85,56.7 79,56.7 Z M48.2,9 L48.2,9 C47.3,9.4 46.4,9.6 45.6,9.6 C42.9,9.6 40.6,7.9 40.6,6 C40.6,4 42.9,2.4 45.6,2.4 C46.5,2.4 47.4,2.6 48.2,2.9 L48.3,2.9 L48.3,9 L48.2,9 Z M18.9,2.9 L18.9,2.9 C19.8,2.5 20.7,2.3 21.6,2.3 C24.3,2.3 26.6,3.9 26.6,5.9 C26.6,7.8 24.3,9.5 21.6,9.5 C20.7,9.5 19.8,9.3 19,9 L18.9,9 L18.9,2.9 L18.9,2.9 Z M11.7,63.5 C5.9,57.6 2.5,49.8 2.2,41.3 L2.2,41.2 L9.4,41.2 L9.4,41.3 C10,54.8 20.5,65.4 33.3,65.4 C46.1,65.4 56.6,54.8 57.2,41.3 L57.2,41.2 L64.4,41.2 L64.4,41.3 C64.1,49.7 60.7,57.6 54.9,63.5 C49.1,69.4 41.4,72.6 33.3,72.6 C25.2,72.7 17.5,69.4 11.7,63.5 Z M81,78.6 C79.9,83.3 77.7,87.3 74.8,90.4 C72.6,92.7 70,94.4 66.9,95.6 C63.8,96.8 60.4,97.4 56.5,97.4 C56.4,97.4 56.4,97.4 56.3,97.4 L56.3,97.4 L55.1,97.3 C35.6,96.1 31.9,81.2 31.2,74.9 L31.2,74.8 L31.3,74.8 C32,74.9 32.7,74.9 33.3,74.9 C34.3,74.9 35.3,74.9 36.3,74.8 L36.4,74.8 L36.4,74.9 C36.7,77.7 37.7,81.7 40.3,85.1 C43.7,89.4 48.9,91.8 55.8,92.1 L55.9,92.1 C62.4,92.1 67.4,90.3 70.9,86.7 C73,84.5 74.6,81.6 75.6,78.2 L75.6,78.1 L75.7,78.1 C77.3,78.6 79,78.7 80.8,78.4 L81,78.4 L81,78.6 Z M79,76.4 C74.2,76.4 70.2,72.5 70.2,67.6 C70.2,62.7 74.1,58.8 79,58.8 C83.8,58.8 87.8,62.7 87.8,67.6 C87.8,72.5 83.8,76.4 79,76.4 Z" id="Shape"></path>
            </g>
            <g id="Group"></g>
        </g>
    </g>
</svg>