<?xml version="1.0" encoding="UTF-8"?>
<svg width="174px" height="68px" viewBox="0 0 174 68" version="1.1" xmlns="http://www.w3.org/2000/svg" xmlns:xlink="http://www.w3.org/1999/xlink">
    <!-- Generator: Sketch 46 (44423) - http://www.bohemiancoding.com/sketch -->
    <title>how copy</title>
    <desc>Created with Sketch.</desc>
    <defs></defs>
    <g id="Page-1" stroke="none" stroke-width="1" fill="none" fill-rule="evenodd">
        <g id="how-copy" transform="translate(2.000000, 2.000000)">
            <path d="M161.637971,0.3 L8.49806763,0.3 C3.90714976,0.3 0.3,2.6 0.3,5.3 L0.3,45.2 C0.3,48 4.07111111,50.2 8.49806763,50.2 L33.0922705,50.2 C37.6831884,50.2 41.2903382,52.5 41.2903382,55.2 L41.2903382,60.7 C41.2903382,63.5 44.4056039,64.5 48.176715,62.9 L72.6069565,52.9 C76.3780676,51.4 83.1004831,50.1 87.691401,50.1 L161.801932,50.1 C166.39285,50.1 170,47.8 170,45.1 L170,5.3 C170,2.6 166.228889,0.3 161.637971,0.3" id="Shape" stroke="#000000" stroke-width="3"></path>
            <rect id="Rectangle-path" x="17.3" y="15.7" width="135" height="20.4"></rect>
            <path d="M18.30072,33 L22.1599599,33 L24.0645199,25.9581402 L31.0813197,25.9581402 L29.1767598,33 L33.0359997,33 L37.7472796,15.4580004 L33.8880397,15.4580004 L32.0335997,22.3996202 L25.0167999,22.3996202 L26.8712398,15.4580004 L23.0119999,15.4580004 L18.30072,33 Z M42.3583195,33.1253 L40.0778595,15.4580004 L44.2127594,15.4580004 L45.4156394,27.6872801 L53.1842393,15.4580004 L57.5196192,15.4580004 L45.7664794,33.1253 L42.3583195,33.1253 Z M64.411119,33.30072 C59.5745391,33.30072 56.3919192,29.9426801 56.3919192,25.5321202 C56.3919192,20.2945803 60.6521191,15.1572804 66.942179,15.1572804 C71.7787589,15.1572804 74.9613788,18.5153203 74.9613788,22.9258802 C74.9613788,28.1634201 70.7011789,33.30072 64.411119,33.30072 Z M64.862199,29.7422001 C68.5460189,29.7422001 70.9517789,26.2087401 70.9517789,23.1764802 C70.9517789,20.5702403 69.3729989,18.7158003 66.491099,18.7158003 C62.807279,18.7158003 60.4015191,22.2492602 60.4015191,25.2815202 C60.4015191,27.8877601 61.9802991,29.7422001 64.862199,29.7422001 Z M75.8635388,33 L80.5748187,15.4580004 L86.9651185,15.4580004 C89.5713585,15.4580004 91.3506184,16.0343804 92.5284384,17.2122003 C93.4055384,18.0893003 93.8816784,19.3172403 93.8816784,20.7456603 C93.8816784,23.9032202 91.9520584,26.1335601 88.2181185,27.0106601 L91.2002584,33 L86.8147585,33 L84.1082786,27.3865601 L81.2263787,27.3865601 L79.7227787,33 L75.8635388,33 Z M82.1535986,23.9784002 L85.5868186,23.9784002 C87.9925785,23.9784002 89.8470185,23.0010602 89.8470185,21.0714403 C89.8470185,20.4700003 89.6715985,20.0439803 89.2956985,19.6680803 C88.8195585,19.1919403 87.9675185,18.9413403 86.7395785,18.9413403 L83.5068386,18.9413403 L82.1535986,23.9784002 Z M94.0821584,33 L98.7934383,15.4580004 L103.905678,15.4580004 C107.313838,15.4580004 109.443938,16.3852204 110.772118,17.7134003 C112.075238,19.0165203 112.676678,20.7206003 112.676678,22.8507002 C112.676678,25.4820002 111.674278,27.8877601 109.794778,29.7672601 C107.689738,31.8723 104.657478,33 100.597758,33 L94.0821584,33 Z M98.8686183,29.5166601 L101.048838,29.5166601 C103.379418,29.5166601 105.509518,28.7899201 106.912878,27.3865601 C108.040578,26.2588601 108.667078,24.7051402 108.667078,23.0010602 C108.667078,21.7981802 108.291178,20.8709603 107.639618,20.2194003 C106.862758,19.4425403 105.584698,18.9413403 103.604958,18.9413403 L101.725458,18.9413403 L98.8686183,29.5166601 Z M111.198138,33 L123.452478,15.3327004 L127.161358,15.3327004 L129.943018,33 L125.983538,33 L125.432218,29.0655801 L118.014458,29.0655801 L115.358098,33 L111.198138,33 Z M120.319978,25.6574202 L124.981138,25.6574202 L124.179218,19.8685603 L120.319978,25.6574202 Z M132.098178,33 L135.907297,33 L138.989677,21.4974602 L144.302397,33 L147.585257,33 L152.296537,15.4580004 L148.487417,15.4580004 L145.480217,26.6097001 L140.367977,15.4580004 L136.809457,15.4580004 L132.098178,33 Z" id="HVORDAN" fill="#000000"></path>
        </g>
    </g>
</svg>