<?xml version="1.0" encoding="UTF-8"?>
<svg width="108px" height="68px" viewBox="0 0 108 68" version="1.1" xmlns="http://www.w3.org/2000/svg" xmlns:xlink="http://www.w3.org/1999/xlink">
    <!-- Generator: Sketch 45.2 (43514) - http://www.bohemiancoding.com/sketch -->
    <title>Icons web-04 copy</title>
    <desc>Created with Sketch.</desc>
    <defs></defs>
    <g id="Page-1" stroke="none" stroke-width="1" fill="none" fill-rule="evenodd">
        <g id="Icons-web-04-copy" transform="translate(2.000000, 2.000000)">
            <path d="M98.7,0.3 L5.3,0.3 C2.5,0.3 0.3,2.6 0.3,5.3 L0.3,45.2 C0.3,48 2.6,50.2 5.3,50.2 L20.3,50.2 C23.1,50.2 25.3,52.5 25.3,55.2 L25.3,60.7 C25.3,63.5 27.2,64.5 29.5,62.9 L44.4,52.9 C46.7,51.4 50.8,50.1 53.6,50.1 L98.8,50.1 C101.6,50.1 103.8,47.8 103.8,45.1 L103.8,5.3 C103.8,2.6 101.5,0.3 98.7,0.3" id="Shape" stroke="#000000" stroke-width="3"></path>
            <rect id="Rectangle-path" x="17.3" y="15.7" width="69.3" height="20.4"></rect>
            <path d="M10.3007608,33 L14.1605244,33 L16.0653428,25.9571846 L23.0830948,25.9571846 L21.1782764,33 L25.03804,33 L29.7499592,15.45562 L25.8901956,15.45562 L24.035504,22.3981818 L17.017752,22.3981818 L18.8724436,15.45562 L15.01268,15.45562 L10.3007608,33 Z M38.6474662,33.3007608 C33.81023,33.3007608 30.6271782,29.9422652 30.6271782,25.5311068 C30.6271782,20.2928562 34.8879562,15.1548592 41.1788696,15.1548592 C46.0161058,15.1548592 49.1991576,18.5133548 49.1991576,22.9245132 C49.1991576,28.1627638 44.9383796,33.3007608 38.6474662,33.3007608 Z M39.0986074,29.741758 C42.7829272,29.741758 45.1890136,26.2078186 45.1890136,23.1751472 C45.1890136,20.5685536 43.6100194,18.713862 40.7277284,18.713862 C37.0434086,18.713862 34.6373222,22.2478014 34.6373222,25.2804728 C34.6373222,27.8870664 36.2163164,29.741758 39.0986074,29.741758 Z M53.0589212,33.125317 L51.8057512,15.45562 L55.8158952,15.45562 L56.2670364,27.3356716 L63.3349152,15.4054932 L66.643284,15.4054932 L67.4453128,27.3356716 L74.2625576,15.45562 L78.6235892,15.45562 L67.896454,33.125317 L64.3123878,33.125317 L63.4602322,21.8718504 L56.5928606,33.125317 L53.0589212,33.125317 Z M80.7539782,27.0349108 L83.310445,27.0349108 L84.0372836,25.2804728 C88.2479348,24.6288244 90.453514,22.724006 90.453514,19.7915882 C90.453514,17.4105652 88.3983152,15.2300494 84.8643758,15.2300494 C82.6337332,15.2300494 80.3529638,16.0571416 78.7489062,17.6862626 L80.7539782,20.217666 C81.8317044,19.2903202 83.1350012,18.7389254 84.3380444,18.7389254 C85.7666582,18.7389254 86.4183066,19.340447 86.4183066,20.2928562 C86.4183066,21.7465334 84.6137418,22.6237524 81.4056266,22.849323 L81.2552462,22.97464 L80.7539782,27.0349108 Z M78.4732088,33 L79.550935,28.989856 L83.6112058,28.989856 L82.5334796,33 L78.4732088,33 Z" id="HOW?" fill="#000000"></path>
        </g>
    </g>
</svg>