<?xml version="1.0" encoding="UTF-8"?>
<svg width="108px" height="68px" viewBox="0 0 108 68" version="1.1" xmlns="http://www.w3.org/2000/svg" xmlns:xlink="http://www.w3.org/1999/xlink">
	<!-- Generator: Sketch 45.2 (43514) - http://www.bohemiancoding.com/sketch -->
	<title>Group</title>
	<desc>Created with Sketch.</desc>
	<defs></defs>
	<g id="Page-1" stroke="none" stroke-width="1" fill="none" fill-rule="evenodd">
		<g id="Group" transform="translate(2.000000, 2.000000)">
			<g id="how">
				<path
					d="M98.7,0.3 L5.3,0.3 C2.5,0.3 0.3,2.6 0.3,5.3 L0.3,45.2 C0.3,48 2.6,50.2 5.3,50.2 L20.3,50.2 C23.1,50.2 25.3,52.5 25.3,55.2 L25.3,60.7 C25.3,63.5 27.2,64.5 29.5,62.9 L44.4,52.9 C46.7,51.4 50.8,50.1 53.6,50.1 L98.8,50.1 C101.6,50.1 103.8,47.8 103.8,45.1 L103.8,5.3 C103.8,2.6 101.5,0.3 98.7,0.3"
					id="Shape"
					stroke="#000000"
					stroke-width="3"></path>
				<rect id="Rectangle-path" x="17.3" y="15.7" width="62" height="20.4"></rect>
				<g id="HOW" transform="translate(17.000000, 10.000000)" font-size="25.0634" font-family="GothamBold-Italic" fill="#000000" font-weight="normal">
					<text>
						<tspan x="0.3453" y="24.0248">HOW</tspan>
					</text>
				</g>
			</g>
		</g>
	</g>
</svg>
