<?xml version="1.0" encoding="UTF-8"?>
<svg width="108px" height="68px" viewBox="0 0 108 68" version="1.1" xmlns="http://www.w3.org/2000/svg" xmlns:xlink="http://www.w3.org/1999/xlink">
    <!-- Generator: Sketch 46 (44423) - http://www.bohemiancoding.com/sketch -->
    <title>Icons web-04 copy</title>
    <desc>Created with Sketch.</desc>
    <defs></defs>
    <g id="Page-1" stroke="none" stroke-width="1" fill="none" fill-rule="evenodd">
        <g id="Icons-web-04-copy" transform="translate(2.000000, 2.000000)">
            <path d="M98.7,0.3 L5.3,0.3 C2.5,0.3 0.3,2.6 0.3,5.3 L0.3,45.2 C0.3,48 2.6,50.2 5.3,50.2 L20.3,50.2 C23.1,50.2 25.3,52.5 25.3,55.2 L25.3,60.7 C25.3,63.5 27.2,64.5 29.5,62.9 L44.4,52.9 C46.7,51.4 50.8,50.1 53.6,50.1 L98.8,50.1 C101.6,50.1 103.8,47.8 103.8,45.1 L103.8,5.3 C103.8,2.6 101.5,0.3 98.7,0.3" id="Shape" stroke="#000000" stroke-width="3"></path>
            <rect id="Rectangle-path" x="17.3" y="15.7" width="75.2907077" height="20.4"></rect>
            <path d="M17.6499768,34.0248 L21.5097404,34.0248 L23.4145588,26.9819846 L30.4323108,26.9819846 L28.5274924,34.0248 L32.387256,34.0248 L37.0991752,16.48042 L33.2394116,16.48042 L31.38472,23.4229818 L24.366968,23.4229818 L26.2216596,16.48042 L22.361896,16.48042 L17.6499768,34.0248 Z M45.9966822,34.3255608 C41.159446,34.3255608 37.9763942,30.9670652 37.9763942,26.5559068 C37.9763942,21.3176562 42.2371722,16.1796592 48.5280856,16.1796592 C53.3653218,16.1796592 56.5483736,19.5381548 56.5483736,23.9493132 C56.5483736,29.1875638 52.2875956,34.3255608 45.9966822,34.3255608 Z M46.4478234,30.766558 C50.1321432,30.766558 52.5382296,27.2326186 52.5382296,24.1999472 C52.5382296,21.5933536 50.9592354,19.738662 48.0769444,19.738662 C44.3926246,19.738662 41.9865382,23.2726014 41.9865382,26.3052728 C41.9865382,28.9118664 43.5655324,30.766558 46.4478234,30.766558 Z M60.4081372,34.150117 L63.9420766,34.150117 L70.8094482,22.8966504 L71.6616038,34.150117 L75.24567,34.150117 L85.9728052,16.48042 L81.6117736,16.48042 L74.7945288,28.3604716 L73.9925,16.4302932 L70.6841312,16.4302932 L63.6162524,28.3604716 L63.1651112,16.48042 L59.1549672,16.48042 L60.4081372,34.150117 Z" id="HOW" fill="#000000"></path>
        </g>
    </g>
</svg>