<?xml version="1.0" encoding="UTF-8"?>
<svg width="108px" height="68px" viewBox="0 0 108 68" version="1.1" xmlns="http://www.w3.org/2000/svg" xmlns:xlink="http://www.w3.org/1999/xlink">
    <!-- Generator: Sketch 45.2 (43514) - http://www.bohemiancoding.com/sketch -->
    <title>Icons web-04 copy</title>
    <desc>Created with Sketch.</desc>
    <defs></defs>
    <g id="Page-1" stroke="none" stroke-width="1" fill="none" fill-rule="evenodd">
        <g id="Icons-web-04-copy" transform="translate(2.000000, 2.000000)">
            <path d="M98.7,0.3 L5.3,0.3 C2.5,0.3 0.3,2.6 0.3,5.3 L0.3,45.2 C0.3,48 2.6,50.2 5.3,50.2 L20.3,50.2 C23.1,50.2 25.3,52.5 25.3,55.2 L25.3,60.7 C25.3,63.5 27.2,64.5 29.5,62.9 L44.4,52.9 C46.7,51.4 50.8,50.1 53.6,50.1 L98.8,50.1 C101.6,50.1 103.8,47.8 103.8,45.1 L103.8,5.3 C103.8,2.6 101.5,0.3 98.7,0.3" id="Shape" stroke="#000000" stroke-width="3"></path>
            <rect id="Rectangle-path" x="17.3" y="15.7" width="69.3" height="20.4"></rect>
            <path d="M17.64602,34.0248 L21.5052599,34.0248 L23.4098199,26.9829402 L30.4266197,26.9829402 L28.5220598,34.0248 L32.3812997,34.0248 L37.0925796,16.4828004 L33.2333397,16.4828004 L31.3788997,23.4244202 L24.3620999,23.4244202 L26.2165398,16.4828004 L22.3572999,16.4828004 L17.64602,34.0248 Z M45.9888794,34.32552 C41.1522995,34.32552 37.9696796,30.9674801 37.9696796,26.5569202 C37.9696796,21.3193803 42.2298795,16.1820804 48.5199393,16.1820804 C53.3565192,16.1820804 56.5391392,19.5401203 56.5391392,23.9506802 C56.5391392,29.1882201 52.2789393,34.32552 45.9888794,34.32552 Z M46.4399594,30.7670001 C50.1237793,30.7670001 52.5295393,27.2335401 52.5295393,24.2012802 C52.5295393,21.5950403 50.9507593,19.7406003 48.0688593,19.7406003 C44.3850394,19.7406003 41.9792795,23.2740602 41.9792795,26.3063202 C41.9792795,28.9125601 43.5580594,30.7670001 46.4399594,30.7670001 Z M60.3983791,34.1501 L63.931839,34.1501 L70.7982789,22.8981602 L71.6503188,34.1501 L75.2338988,34.1501 L85.9595785,16.4828004 L81.5991386,16.4828004 L74.7828188,28.3612401 L73.9808988,16.4326804 L70.6729789,16.4326804 L63.606059,28.3612401 L63.154979,16.4828004 L59.1453791,16.4828004 L60.3983791,34.1501 Z" id="HOW" fill="#000000"></path>
        </g>
    </g>
</svg>