<?xml version="1.0" encoding="UTF-8"?>
<svg width="26px" height="25px" viewBox="0 0 26 25" version="1.1" xmlns="http://www.w3.org/2000/svg" xmlns:xlink="http://www.w3.org/1999/xlink">
    <!-- Generator: Sketch 46 (44423) - http://www.bohemiancoding.com/sketch -->
    <title>instagram</title>
    <desc>Created with Sketch.</desc>
    <defs></defs>
    <g id="Page-1" stroke="none" stroke-width="1" fill="none" fill-rule="evenodd">
        <g id="instagram" transform="translate(1.000000, 1.000000)" stroke="#000000">
            <path d="M6,0.1 C2.9,0.1 0.4,2.6 0.4,5.7 L0.4,17.8 C0.4,20.9 2.9,23.4 6,23.4 L18,23.4 C21.1,23.4 23.6,20.9 23.6,17.8 L23.6,5.6 C23.6,2.5 21.1,1.77635684e-15 18,1.77635684e-15 L6,1.77635684e-15 L6,0.1 Z" id="Shape"></path>
            <path d="M12,6.1 C8.9,6.1 6.4,8.6 6.4,11.7 C6.4,14.8 8.9,17.3 12,17.3 C15.1,17.3 17.6,14.8 17.6,11.7 C17.6,8.6 15.1,6.1 12,6.1 Z" id="Shape"></path>
            <circle id="Oval" cx="18.8" cy="4.9" r="1.6"></circle>
        </g>
    </g>
</svg>