<?xml version="1.0" encoding="UTF-8"?>
<svg width="172px" height="67px" viewBox="0 0 172 67" version="1.1" xmlns="http://www.w3.org/2000/svg" xmlns:xlink="http://www.w3.org/1999/xlink">
    <!-- Generator: Sketch 46 (44423) - http://www.bohemiancoding.com/sketch -->
    <title>moni</title>
    <desc>Created with Sketch.</desc>
    <defs>
        <path d="M167.81842,36.2667989 L167.81842,6.67415941 C167.81842,3.0854164 165.917523,1.19402993 162.115729,1 C59.8244939,1 7.43302089,1 4.94131027,1 C0.273700992,1 0.273700992,5.82368102 0.273700992,6.67415941 C0.273700992,7.241145 0.230206263,17.1053582 0.143216803,36.2667989" id="path-1"></path>
        <path d="M0.134139073,0.651908792 L0.134139073,-8.43640281 C0.134139073,-11.1364028 2.6433231,-13.4364028 5.83683005,-13.4364028 L102.255017,-13.4364028 C105.448524,-13.4364028 110.124731,-14.7364028 112.747969,-16.2364028 L129.741988,-26.2364028 C132.365226,-27.8364028 134.532248,-26.8364028 134.532248,-24.0364028 L134.532248,-18.5364028 C134.532248,-15.8364028 137.041432,-13.5364028 140.234939,-13.5364028 L161.985245,-13.5364028 C165.064698,-13.5364028 167.687936,-11.3364028 167.687936,-8.53640281 L167.687936,0.651908792" id="path-3"></path>
    </defs>
    <g id="Page-1" stroke="none" stroke-width="1" fill="none" fill-rule="evenodd">
        <g id="moni" transform="translate(2.000000, 29.000000)">
            <mask id="mask-2" fill="white">
                <use xlink:href="#path-1"></use>
            </mask>
            <use id="Mask" stroke="#000000" stroke-width="3" transform="translate(83.980819, 18.633399) scale(1, -1) translate(-83.980819, -18.633399) " xlink:href="#path-1"></use>
            <mask id="mask-4" fill="white">
                <use xlink:href="#path-3"></use>
            </mask>
            <use id="Mask" stroke="#FFFFFF" stroke-width="3" xlink:href="#path-3"></use>
            <path d="M18.7119192,23.250634 C20.9174984,23.250634 22.646873,22.6741758 23.9501698,21.370879 C25.2033398,20.117709 25.779798,18.7893488 26.5066366,16.0323748 L29.3388008,5.45562 L25.3787836,5.45562 L22.7972534,15.105029 C22.1706684,17.4609886 21.8197808,18.1377004 21.268386,18.6890952 C20.6668644,19.2906168 19.8648356,19.6665678 18.9124264,19.6665678 C17.6843198,19.6665678 16.7319106,19.1652998 15.754438,17.9371932 L13.0225274,20.3182162 C14.3007608,22.2731614 16.4812766,23.250634 18.7119192,23.250634 Z M35.930475,23.3007608 C31.9453944,23.3007608 29.4641178,20.6691038 29.4641178,17.0850376 C29.4641178,13.0748936 32.922867,9.3153836 37.2337718,9.3153836 C41.2188524,9.3153836 43.700129,11.9470406 43.700129,15.5311068 C43.700129,19.5412508 40.2413798,23.3007608 35.930475,23.3007608 Z M36.1059188,20.0425188 C38.436815,20.0425188 39.9656824,17.5361788 39.9656824,15.6313604 C39.9656824,13.6764152 38.7877026,12.5736256 37.058328,12.5736256 C34.7274318,12.5736256 33.1985644,15.0799656 33.1985644,16.984784 C33.1985644,18.9397292 34.3765442,20.0425188 36.1059188,20.0425188 Z M44.6776016,23 L48.4872384,23 L50.5173738,15.4559166 C50.9434516,13.851859 51.9209242,12.7741328 53.4247282,12.7741328 C54.602708,12.7741328 55.2794198,13.350591 55.2794198,14.4283172 C55.2794198,14.7541414 55.2042296,15.2554094 55.103976,15.6313604 L53.1239674,23 L56.9336042,23 L58.863486,15.7817408 C59.0890566,14.9295852 59.3146272,13.977176 59.3146272,13.225274 C59.3146272,10.7941242 57.7606964,9.3153836 55.35461,9.3153836 C53.850806,9.3153836 52.6477628,10.1174124 51.6953536,10.969568 L52.0713046,9.5660176 L48.2616678,9.5660176 L44.6776016,23 Z M64.3523706,23.250634 C62.0214744,23.250634 60.4424802,21.74683 60.4424802,19.6415044 C60.4424802,16.5336428 62.9738836,14.8042682 66.2321256,14.8042682 C67.6858028,14.8042682 68.888846,15.0549022 70.016699,15.4057898 L70.0668258,15.230346 C70.142016,14.9295852 70.2172062,14.6288244 70.2172062,14.22781 C70.2172062,13.3004642 69.5655578,12.6488158 67.6858028,12.6488158 C66.382506,12.6488158 65.0792092,12.97464 64.1017366,13.3756544 L63.500215,10.3680464 C64.878702,9.7915882 66.5830132,9.4156372 68.4878316,9.4156372 C72.0969612,9.4156372 73.9265894,10.9194412 73.9265894,13.5510982 C73.9265894,14.2528734 73.8012724,14.9045218 73.6258286,15.5812336 L71.64582,23 L67.9615002,23 L68.3625146,21.4460692 C67.2847884,22.5989856 65.9313648,23.250634 64.3523706,23.250634 Z M65.9814916,20.6440404 C67.5604858,20.6440404 68.9389728,19.3908704 69.3650506,17.9371932 L69.4653042,17.5863056 C68.8136558,17.3356716 67.88631,17.110101 66.9589642,17.110101 C65.37997,17.110101 64.2270536,17.9121298 64.2270536,19.2154266 C64.2270536,20.0425188 64.9037654,20.6440404 65.9814916,20.6440404 Z M74.9291254,23 L78.5131916,9.5660176 L82.3228284,9.5660176 L81.5959898,12.2728648 C82.9494134,10.2928562 84.5033442,9.1399398 86.7089234,9.3153836 L85.6311972,13.3004642 L85.43069,13.3004642 C82.8992866,13.3004642 80.9443414,14.7541414 80.0169956,18.237954 L78.7387622,23 L74.9291254,23 Z M91.5461596,23.250634 C88.6137418,23.250634 86.3830992,21.120245 86.3830992,17.486052 C86.3830992,12.724006 90.0172922,9.3153836 93.8018656,9.3153836 C95.9071912,9.3153836 97.1352978,10.1926026 98.0125168,11.5209628 L99.8170816,4.703718 L103.626718,4.703718 L98.7393554,23 L94.9297186,23 L95.330733,21.5463228 C94.1778166,22.624049 93.0499636,23.250634 91.5461596,23.250634 Z M93.1251538,20.0425188 C95.2304794,20.0425188 97.1854246,17.9371932 97.1854246,15.3807264 C97.1854246,13.6764152 95.9823814,12.5234988 94.3031336,12.5234988 C92.2479348,12.5234988 90.318053,14.5285708 90.318053,17.235418 C90.318053,18.989856 91.4208426,20.0425188 93.1251538,20.0425188 Z M102.198105,23 L107.060404,4.703718 L110.870041,4.703718 L109.215857,10.969568 C110.168266,10.1174124 111.371309,9.3153836 112.875113,9.3153836 C115.281199,9.3153836 116.83513,10.7941242 116.83513,13.225274 C116.83513,13.977176 116.60956,14.9295852 116.383989,15.7817408 L114.454107,23 L110.64447,23 L112.624479,15.6313604 C112.724733,15.2554094 112.799923,14.7541414 112.799923,14.4283172 C112.799923,13.350591 112.123211,12.7741328 110.945231,12.7741328 C109.441427,12.7741328 108.463955,13.851859 108.037877,15.4559166 L106.007741,23 L102.198105,23 Z M125.38175,23.3007608 C121.396669,23.3007608 118.915392,20.6691038 118.915392,17.0850376 C118.915392,13.0748936 122.374142,9.3153836 126.685046,9.3153836 C130.670127,9.3153836 133.151404,11.9470406 133.151404,15.5311068 C133.151404,19.5412508 129.692654,23.3007608 125.38175,23.3007608 Z M125.557193,20.0425188 C127.88809,20.0425188 129.416957,17.5361788 129.416957,15.6313604 C129.416957,13.6764152 128.238977,12.5736256 126.509603,12.5736256 C124.178706,12.5736256 122.649839,15.0799656 122.649839,16.984784 C122.649839,18.9397292 123.827819,20.0425188 125.557193,20.0425188 Z M134.128876,23 L137.938513,23 L139.968648,15.4559166 C140.394726,13.851859 141.372199,12.7741328 142.876003,12.7741328 C144.053983,12.7741328 144.730694,13.350591 144.730694,14.4283172 C144.730694,14.7541414 144.655504,15.2554094 144.555251,15.6313604 L142.575242,23 L146.384879,23 L148.314761,15.7817408 C148.540331,14.9295852 148.765902,13.977176 148.765902,13.225274 C148.765902,10.7941242 147.211971,9.3153836 144.805885,9.3153836 C143.302081,9.3153836 142.099037,10.1174124 141.146628,10.969568 L141.522579,9.5660176 L137.712942,9.5660176 L134.128876,23 Z" id="Jonardhon" fill="#000000"></path>
            <rect id="Rectangle-path" x="10" y="4" width="135" height="20"></rect>
        </g>
    </g>
</svg>