<?xml version="1.0" encoding="UTF-8"?>
<svg width="99px" height="103px" viewBox="0 0 99 103" version="1.1" xmlns="http://www.w3.org/2000/svg" xmlns:xlink="http://www.w3.org/1999/xlink">
    <!-- Generator: Sketch 45.2 (43514) - http://www.bohemiancoding.com/sketch -->
    <title>Group</title>
    <desc>Created with Sketch.</desc>
    <defs></defs>
    <g id="Page-1" stroke="none" stroke-width="1" fill="none" fill-rule="evenodd">
        <g id="Group" fill-rule="nonzero" fill="#FFFFFF">
            <path d="M96.3,93.3 C95.5,92.3 90.2,87.1 57.9,54.7 C71.1,44.7 92.7,28.2 95.5,25.5 C97.7,23.3 98.9,20 98.8,16.6 C98.7,13.2 97.2,9.9 94.9,7.5 C92.4,5 88.9,3.6 85.2,3.6 C81.9,3.6 79,4.7 76.9,6.8 C73.9,9.8 54.2,35.8 47.7,44.4 L36.8,33.6 C39.4,29 38.7,23.9 35,20.2 L17.8,1.3 C17.6,1.1 17.3,0.9 17,0.9 C16.6,0.9 16.4,1.1 16.2,1.3 L7.4,10.1 C4.7,12.8 3,16.2 2.8,19.3 C2.6,22.6 3.6,25.5 5.9,27.7 L17.4,37.6 C19.6,39.8 22.3,41 25.2,41 C27.2,41 29.1,40.5 31,39.4 L42.7,51.1 L41.7,52.5 C39.8,55.1 38.3,57 37.5,58.1 L37.1,57.8 C36.7,57.4 35.9,57.4 35.6,57.8 L17.6,74.5 L1,92.5 C0.8,92.7 0.7,93 0.7,93.3 C0.7,93.6 0.8,93.9 1,94.1 L8.6,101.7 C8.8,101.9 9.1,102.1 9.4,102.1 C9.7,102.1 10,101.9 10.2,101.8 L28.2,85.1 L44.8,67.2 C45,67 45.1,66.7 45.1,66.4 C45.1,66.1 45,65.8 44.8,65.6 L44.5,65.3 C45.6,64.5 47.6,63 50.2,61 L51.5,60 L90.7,99.2 C91.5,100 92.5,100.4 93.7,100.4 C94.9,100.4 95.9,100 96.7,99.2 C97.9,97.6 97.9,95 96.3,93.3 L96.3,93.3 Z M95.3,13.5 L95.4,13.2 C95.4,13.1 95.5,13 95.5,12.9 C97,16.8 96.4,21.3 93.8,24 C91.4,26.4 70.5,42.5 56.3,53.2 L55.3,52.2 C70.2,39.2 88.2,23.3 90.7,20.8 C93,18.1 94.6,15.8 95.3,13.5 Z M93.2,9.1 C93.8,9.7 93.8,11.1 93.2,12.8 C92.4,14.9 91,17.1 89.1,19 C86.5,21.6 65.9,39.7 53.7,50.4 L51.9,48.6 C64.9,33.7 80.9,15.7 83.3,13.2 C86.7,9.8 89.9,8.6 91.6,8.6 C92.4,8.6 92.9,8.8 93.2,9.1 Z M78.4,8.5 C80,6.9 82.4,6 85.1,6 C86.6,6 88.1,6.3 89.5,6.8 C87,7.5 84.1,9.3 81.7,11.8 C79,14.5 61,35 50.3,47.2 L49.3,46.2 C61.8,29.4 76.1,10.8 78.4,8.5 Z M38.3,60 C39.1,58.9 41.2,56.1 44.1,52.3 L45.4,53.6 C42.3,57.1 40.1,59.7 39.1,60.8 L39.1,60.8 L39.1,60.7 L39.1,60.7 L38.3,60 L38.3,60 Z M46.5,54.6 L48.2,56.3 C44.7,59.4 42,61.7 41,62.6 L40.8,62.4 L40.2,61.8 L40.2,61.8 C41.1,60.8 43.4,58.1 46.5,54.6 Z M26.2,83.4 L9,99.3 L2.9,93.2 L18.8,76.1 L35.9,60.2 L36.4,60.7 L41.5,65.8 L42,66.3 L26.2,83.4 Z M42.5,64.1 L41.9,63.5 C43,62.5 45.6,60.3 49.1,57.2 L50.4,58.5 C46.4,61.2 43.5,63.3 42.5,64.1 Z M94.7,97.4 C94,98.1 92.6,98.1 91.9,97.4 L45,50.6 L44.2,49.7 L31.8,37.3 C31.6,37.1 31.3,36.9 31,36.9 C30.9,36.9 30.6,36.9 30.4,37.1 C26.5,39.6 22.2,39.3 18.9,36 L7.3,26.1 C5.6,24.4 4.8,22 5,19.4 C5.2,16.7 6.6,13.9 8.9,11.6 L16.8,3.7 L33.3,21.7 C36.6,25 37,29.2 34.4,33.2 C34,33.6 34.2,34.3 34.6,34.7 L95.1,95.2 C95.2,95.3 95.3,95.5 95.3,95.8 C95.3,96.3 95.1,97 94.7,97.4 Z" id="Shape"></path>
            <path d="M25.8,18.2 C24.5,16.9 22.8,16.2 21,16.2 C19.2,16.2 17.5,16.9 16.2,18.2 C14.9,19.5 14.2,21.2 14.2,23 C14.2,24.8 14.9,26.5 16.2,27.8 C17.5,29.1 19.3,29.8 21,29.8 C22.7,29.8 24.5,29 25.8,27.8 C27.1,26.5 27.8,24.8 27.8,23 C27.8,21.2 27.1,19.5 25.8,18.2 Z M21,18.5 C22.2,18.5 23.4,19 24.3,19.8 C25.1,20.6 25.6,21.8 25.6,23.1 C25.6,24.1 25.1,25.1 24.2,26.2 C23.4,27 22.2,27.5 21,27.5 C19.8,27.5 18.6,27 17.8,26.2 C16.1,24.5 16.1,21.5 17.8,19.8 C18.6,19 19.7,18.5 21,18.5 Z" id="Shape"></path>
        </g>
    </g>
</svg>