<?xml version="1.0" encoding="UTF-8"?>
<svg width="303px" height="102px" viewBox="0 0 303 102" version="1.1" xmlns="http://www.w3.org/2000/svg" xmlns:xlink="http://www.w3.org/1999/xlink">
    <!-- Generator: Sketch 46 (44423) - http://www.bohemiancoding.com/sketch -->
    <title>Icons web-11 copy</title>
    <desc>Created with Sketch.</desc>
    <defs></defs>
    <g id="Page-1" stroke="none" stroke-width="1" fill="none" fill-rule="evenodd">
        <g id="Icons-web-11-copy" transform="translate(2.000000, 2.000000)">
            <path d="M290.597957,0 L8.39945922,0 C3.73309299,0 0,3.54454276 0,7.73354784 L0,69.4945201 C0,73.7909356 3.84975214,77.228068 8.39945922,77.228068 L33.5978369,77.228068 C38.2642031,77.228068 41.9972961,80.7726107 41.9972961,84.9616158 L41.9972961,93.4470363 C41.9972961,97.7434518 45.1470933,99.2471972 48.9968455,96.8841687 L74.078564,81.417073 C77.9283161,79.0540445 84.9278655,77.1206576 89.5942317,77.1206576 L290.597957,77.1206576 C295.264324,77.1206576 298.997417,73.5761148 298.997417,69.3871097 L298.997417,7.73354784 C299.114076,3.43713237 295.264324,0 290.597957,0" id="Shape" stroke="#FFFFFF" stroke-width="3"></path>
            <path d="M16.576,56 L40.72,56 L42.544,49.28 L25.792,49.28 L32.992,22.4 L25.6,22.4 L16.576,56 Z M53.872,56.48 C49.408,56.48 46.384,53.6 46.384,49.568 C46.384,43.616 51.232,40.304 57.472,40.304 C60.256,40.304 62.56,40.784 64.72,41.456 L64.816,41.12 C64.96,40.544 65.104,39.968 65.104,39.2 C65.104,37.424 63.856,36.176 60.256,36.176 C57.76,36.176 55.264,36.8 53.392,37.568 L52.24,31.808 C54.88,30.704 58.144,29.984 61.792,29.984 C68.704,29.984 72.208,32.864 72.208,37.904 C72.208,39.248 71.968,40.496 71.632,41.792 L67.84,56 L60.784,56 L61.552,53.024 C59.488,55.232 56.896,56.48 53.872,56.48 Z M56.992,51.488 C60.016,51.488 62.656,49.088 63.472,46.304 L63.664,45.632 C62.416,45.152 60.64,44.72 58.864,44.72 C55.84,44.72 53.632,46.256 53.632,48.752 C53.632,50.336 54.928,51.488 56.992,51.488 Z M86.08,56.48 C80.464,56.48 76.192,52.4 76.192,45.44 C76.192,36.32 83.152,29.792 90.4,29.792 C94.432,29.792 96.784,31.472 98.464,34.016 L101.92,20.96 L109.216,20.96 L99.856,56 L92.56,56 L93.328,53.216 C91.12,55.28 88.96,56.48 86.08,56.48 Z M89.104,50.336 C93.136,50.336 96.88,46.304 96.88,41.408 C96.88,38.144 94.576,35.936 91.36,35.936 C87.424,35.936 83.728,39.776 83.728,44.96 C83.728,48.32 85.84,50.336 89.104,50.336 Z M135.424,56.576 C127.792,56.576 123.04,51.536 123.04,44.672 C123.04,36.992 129.664,29.792 137.92,29.792 C145.552,29.792 150.304,34.832 150.304,41.696 C150.304,49.376 143.68,56.576 135.424,56.576 Z M135.76,50.336 C140.224,50.336 143.152,45.536 143.152,41.888 C143.152,38.144 140.896,36.032 137.584,36.032 C133.12,36.032 130.192,40.832 130.192,44.48 C130.192,48.224 132.448,50.336 135.76,50.336 Z M162.736,56.576 C168.88,56.576 173.296,53.12 173.296,47.504 C173.296,43.472 169.6,41.696 166.24,40.208 C164.08,39.248 162.832,38.528 162.832,37.52 C162.832,36.176 163.888,35.36 165.664,35.36 C167.776,35.36 169.888,36.128 172.384,38.096 L176.32,33.488 C174.208,31.616 170.368,29.792 166.192,29.792 C159.808,29.792 155.872,33.68 155.872,38.816 C155.872,42.944 159.328,44.624 163.36,46.352 C165.136,47.12 166.336,47.792 166.336,48.752 C166.336,50.192 165.184,51.008 163.264,51.008 C160.96,51.008 158.08,50.24 155.392,47.552 L151.168,51.92 C154.192,55.088 158.848,56.576 162.736,56.576 Z M199.936,56.432 C195.52,56.432 193.36,54.224 193.36,51.392 C193.36,50.336 193.552,49.328 193.84,48.176 L196.96,36.512 L193.888,36.512 L195.568,30.272 L198.64,30.272 L200.416,23.696 L207.712,23.696 L205.936,30.272 L211.984,30.272 L210.304,36.512 L204.256,36.512 L201.376,47.312 C201.28,47.696 201.184,48.176 201.184,48.464 C201.184,49.424 201.808,50 203.152,50 C204.304,50 205.696,49.712 206.896,49.184 L205.216,55.376 C203.776,56.048 201.904,56.432 199.936,56.432 Z M218.464,56.48 C214,56.48 210.976,53.6 210.976,49.568 C210.976,43.616 215.824,40.304 222.064,40.304 C224.848,40.304 227.152,40.784 229.312,41.456 L229.408,41.12 C229.552,40.544 229.696,39.968 229.696,39.2 C229.696,37.424 228.448,36.176 224.848,36.176 C222.352,36.176 219.856,36.8 217.984,37.568 L216.832,31.808 C219.472,30.704 222.736,29.984 226.384,29.984 C233.296,29.984 236.8,32.864 236.8,37.904 C236.8,39.248 236.56,40.496 236.224,41.792 L232.432,56 L225.376,56 L226.144,53.024 C224.08,55.232 221.488,56.48 218.464,56.48 Z M221.584,51.488 C224.608,51.488 227.248,49.088 228.064,46.304 L228.256,45.632 C227.008,45.152 225.232,44.72 223.456,44.72 C220.432,44.72 218.224,46.256 218.224,48.752 C218.224,50.336 219.52,51.488 221.584,51.488 Z M239.008,56 L248.416,20.96 L255.712,20.96 L246.304,56 L239.008,56 Z M262.192,45.68 C262.432,48.704 264.208,50.72 268.048,50.72 C269.968,50.72 271.648,50.144 273.76,48.656 L277.12,53.168 C274.816,55.088 271.6,56.576 267.232,56.576 C259.84,56.576 255.328,52.256 255.328,45.152 C255.328,37.712 261.376,29.792 270.592,29.792 C277.264,29.792 281.104,34.112 281.104,39.824 C281.104,41.648 280.624,43.712 279.808,45.68 L262.192,45.68 Z M262.816,41.12 L274,41.12 C274.144,40.64 274.24,40.064 274.24,39.44 C274.24,37.328 272.992,35.648 270.016,35.648 C266.704,35.648 264.016,37.856 262.816,41.12 Z" id="Lad-os-tale" fill="#FFFFFF"></path>
        </g>
    </g>
</svg>