<?xml version="1.0" encoding="UTF-8"?>
<svg width="260px" height="95px" viewBox="0 0 260 95" version="1.1" xmlns="http://www.w3.org/2000/svg" xmlns:xlink="http://www.w3.org/1999/xlink">
    <!-- Generator: Sketch 45.2 (43514) - http://www.bohemiancoding.com/sketch -->
    <title>Icons web-11 copy</title>
    <desc>Created with Sketch.</desc>
    <defs></defs>
    <g id="Page-1" stroke="none" stroke-width="1" fill="none" fill-rule="evenodd">
        <g id="Icons-web-11-copy" transform="translate(1.000000, 2.000000)">
            <path d="M249.7,0.3 L7.8,0.3 C3.8,0.3 0.6,3.6 0.6,7.5 L0.6,65 C0.6,69 3.9,72.2 7.8,72.2 L29.4,72.2 C33.4,72.2 36.6,75.5 36.6,79.4 L36.6,87.3 C36.6,91.3 39.3,92.7 42.6,90.5 L64.1,76.1 C67.4,73.9 73.4,72.1 77.4,72.1 L249.7,72.1 C253.7,72.1 256.9,68.8 256.9,64.9 L256.9,7.5 C257,3.5 253.7,0.3 249.7,0.3" id="Shape" stroke="#000000" stroke-width="3"></path>
            <path d="M15.8004,52.5121 L39.9444,52.5121 L41.7684,45.7921 L25.0164,45.7921 L32.2164,18.9121 L24.8244,18.9121 L15.8004,52.5121 Z M51.7044,42.1921 C51.9444,45.2161 53.7204,47.2321 57.5604,47.2321 C59.4804,47.2321 61.1604,46.6561 63.2724,45.1681 L66.6324,49.6801 C64.3284,51.6001 61.1124,53.0881 56.7444,53.0881 C49.3524,53.0881 44.8404,48.7681 44.8404,41.6641 C44.8404,34.2241 50.8884,26.3041 60.1044,26.3041 C66.7764,26.3041 70.6164,30.6241 70.6164,36.3361 C70.6164,38.1601 70.1364,40.2241 69.3204,42.1921 L51.7044,42.1921 Z M52.3284,37.6321 L63.5124,37.6321 C63.6564,37.1521 63.7524,36.5761 63.7524,35.9521 C63.7524,33.8401 62.5044,32.1601 59.5284,32.1601 C56.2164,32.1601 53.5284,34.3681 52.3284,37.6321 Z M81.2244,52.9441 C83.1924,52.9441 85.0644,52.5601 86.5044,51.8881 L88.1844,45.6961 C86.9844,46.2241 85.5924,46.5121 84.4404,46.5121 C83.0964,46.5121 82.4724,45.9361 82.4724,44.9761 C82.4724,44.6881 82.5684,44.2081 82.6644,43.8241 L85.5444,33.0241 L91.5924,33.0241 L93.2724,26.7841 L87.2244,26.7841 L89.0004,20.2081 L81.7044,20.2081 L79.9284,26.7841 L76.8564,26.7841 L75.1764,33.0241 L78.2484,33.0241 L75.1284,44.6881 C74.8404,45.8401 74.6484,46.8481 74.6484,47.9041 C74.6484,50.7361 76.8084,52.9441 81.2244,52.9441 Z M96.5844,34.3681 L96.1044,31.3441 C100.0404,31.0081 101.8644,29.3281 102.3444,26.5921 L99.3684,26.5921 L101.4324,18.9121 L109.2084,18.9121 L107.4804,25.3921 C105.8004,31.7281 102.2964,34.2241 96.5844,34.3681 Z M117.4164,53.0881 C113.5284,53.0881 108.8724,51.6001 105.8484,48.4321 L110.0724,44.0641 C112.7604,46.7521 115.6404,47.5201 117.9444,47.5201 C119.8644,47.5201 121.0164,46.7041 121.0164,45.2641 C121.0164,44.3041 119.8164,43.6321 118.0404,42.8641 C114.0084,41.1361 110.5524,39.4561 110.5524,35.3281 C110.5524,30.1921 114.4884,26.3041 120.8724,26.3041 C125.0484,26.3041 128.8884,28.1281 131.0004,30.0001 L127.0644,34.6081 C124.5684,32.6401 122.4564,31.8721 120.3444,31.8721 C118.5684,31.8721 117.5124,32.6881 117.5124,34.0321 C117.5124,35.0401 118.7604,35.7601 120.9204,36.7201 C124.2804,38.2081 127.9764,39.9841 127.9764,44.0161 C127.9764,49.6321 123.5604,53.0881 117.4164,53.0881 Z M154.6164,52.9441 C150.2004,52.9441 148.0404,50.7361 148.0404,47.9041 C148.0404,46.8481 148.2324,45.8401 148.5204,44.6881 L151.6404,33.0241 L148.5684,33.0241 L150.2484,26.7841 L153.3204,26.7841 L155.0964,20.2081 L162.3924,20.2081 L160.6164,26.7841 L166.6644,26.7841 L164.9844,33.0241 L158.9364,33.0241 L156.0564,43.8241 C155.9604,44.2081 155.8644,44.6881 155.8644,44.9761 C155.8644,45.9361 156.4884,46.5121 157.8324,46.5121 C158.9844,46.5121 160.3764,46.2241 161.5764,45.6961 L159.8964,51.8881 C158.4564,52.5601 156.5844,52.9441 154.6164,52.9441 Z M173.1444,52.9921 C168.6804,52.9921 165.6564,50.1121 165.6564,46.0801 C165.6564,40.1281 170.5044,36.8161 176.7444,36.8161 C179.5284,36.8161 181.8324,37.2961 183.9924,37.9681 L184.0884,37.6321 C184.2324,37.0561 184.3764,36.4801 184.3764,35.7121 C184.3764,33.9361 183.1284,32.6881 179.5284,32.6881 C177.0324,32.6881 174.5364,33.3121 172.6644,34.0801 L171.5124,28.3201 C174.1524,27.2161 177.4164,26.4961 181.0644,26.4961 C187.9764,26.4961 191.4804,29.3761 191.4804,34.4161 C191.4804,35.7601 191.2404,37.0081 190.9044,38.3041 L187.1124,52.5121 L180.0564,52.5121 L180.8244,49.5361 C178.7604,51.7441 176.1684,52.9921 173.1444,52.9921 Z M176.2644,48.0001 C179.2884,48.0001 181.9284,45.6001 182.7444,42.8161 L182.9364,42.1441 C181.6884,41.6641 179.9124,41.2321 178.1364,41.2321 C175.1124,41.2321 172.9044,42.7681 172.9044,45.2641 C172.9044,46.8481 174.2004,48.0001 176.2644,48.0001 Z M193.6884,52.5121 L203.0964,17.4721 L210.3924,17.4721 L200.9844,52.5121 L193.6884,52.5121 Z M207.8964,52.5121 L217.3044,17.4721 L224.6004,17.4721 L219.7044,35.6161 L230.1204,26.7841 L239.6244,26.7841 L227.1924,36.8161 L232.8084,52.5121 L224.6484,52.5121 L221.0004,41.6161 L217.3044,44.5921 L215.1924,52.5121 L207.8964,52.5121 Z" id="Let’s-talk" fill="#000000"></path>
        </g>
    </g>
</svg>