<?xml version="1.0" encoding="UTF-8"?>
<svg width="29px" height="29px" viewBox="-3 -2 29 29" version="1.1" xmlns="http://www.w3.org/2000/svg" xmlns:xlink="http://www.w3.org/1999/xlink">
    <!-- Generator: Sketch 46 (44423) - http://www.bohemiancoding.com/sketch -->
    <title>linkedin</title>
    <desc>Created with Sketch.</desc>
    <defs></defs>
    <g id="Page-1" stroke="none" stroke-width="1" fill="none" fill-rule="evenodd">
        <g id="linkedin" transform="translate(0.000000, 1.000000)" stroke="#000000">
            <g id="Group">
                <rect id="Rectangle-path" x="1.1" y="7.2" width="4.2" height="13.7"></rect>
                <circle id="Oval" cx="3.2" cy="2.9" r="2.5"></circle>
            </g>
            <path d="M12.2,13.8 C12.2,11.9 13.1,10.7 14.8,10.7 C16.4,10.7 17.1,11.8 17.1,13.8 C17.1,15.8 17.1,21 17.1,21 L21.3,21 C21.3,21 21.3,16 21.3,12.3 C21.3,8.6 19.2,6.8 16.3,6.8 C13.4,6.8 12.2,9.1 12.2,9.1 L12.2,7.3 L8.1,7.3 L8.1,21 L12.2,21 C12.2,20.9 12.2,15.9 12.2,13.8 Z" id="Shape"></path>
        </g>
    </g>
</svg>
