<?xml version="1.0" encoding="UTF-8"?>
<svg width="101px" height="88px" viewBox="0 0 101 88" version="1.1" xmlns="http://www.w3.org/2000/svg" xmlns:xlink="http://www.w3.org/1999/xlink">
    <!-- Generator: Sketch 45.2 (43514) - http://www.bohemiancoding.com/sketch -->
    <title>Group</title>
    <desc>Created with Sketch.</desc>
    <defs></defs>
    <g id="Page-1" stroke="none" stroke-width="1" fill="none" fill-rule="evenodd">
        <g id="Icons-web-01-copy" transform="translate(-498.000000, -257.000000)">
            <g id="Group"></g>
            <g id="Group" transform="translate(498.000000, 257.000000)" fill-rule="nonzero" fill="#000000">
                <g id="Shape">
                    <path d="M92.1,49.6 C97.3,44.2 100.2,37.1 100.2,29.6 C100.2,13.8 87.4,0.9 71.6,0.9 C63.8,0.9 56.5,4 51.1,9.6 L50.3,10.4 L49.5,9.6 C44.1,4 36.8,0.9 29,0.9 C13.2,0.9 0.4,13.8 0.4,29.6 C0.4,36.9 3.2,43.9 8.2,49.2 C8.3,49.3 8.4,49.4 8.5,49.5 L8.9,50 L46.5,86.1 C47.5,87.1 48.9,87.7 50.4,87.7 C51.9,87.7 53.3,87.1 54.3,86.1 L54.5,85.9 C61.7,79 85.8,56.1 91.8,50 L91.9,49.9 C91.9,49.8 92,49.7 92.1,49.6 Z M90.3,48 C90.3,48 90.2,48.1 90.2,48.1 L90,48.3 C83,55.3 52.8,84 52.5,84.3 C51.9,84.9 51.1,85.2 50.3,85.2 C49.4,85.2 48.6,84.9 48.1,84.3 L10.8,48.5 L8.9,46.4 C5,41.7 2.8,35.8 2.8,29.6 C2.8,15.1 14.6,3.3 29.1,3.3 C37.6,3.3 45.5,7.4 50.4,14.2 C55.3,7.3 63.2,3.2 71.7,3.2 C86.2,3.2 97.9,15 97.9,29.5 C97.9,36.5 95.2,43.1 90.3,48 Z"></path>
                    <path d="M12.7,30 C12.7,30.6 12.2,31.2 11.5,31.2 C10.8,31.2 10.3,30.7 10.3,30 C10.3,19.7 18.7,11.3 29,11.3 C29.6,11.3 30.2,11.8 30.2,12.5 C30.2,13.2 29.7,13.7 29,13.7 C20,13.7 12.7,21 12.7,30 Z"></path>
                </g>
                <path d="M30.2,12.5 C30.2,13.2 29.7,13.7 29,13.7 C20,13.7 12.7,21 12.7,30.1 C12.7,30.7 12.2,31.3 11.5,31.3 C10.8,31.3 10.3,30.8 10.3,30.1 C10.3,19.8 18.7,11.4 29,11.4 C29.7,11.3 30.2,11.8 30.2,12.5 Z" id="Shape"></path>
            </g>
        </g>
    </g>
</svg>