<?xml version="1.0" encoding="UTF-8"?>
<svg width="124px" height="68px" viewBox="0 0 124 68" version="1.1" xmlns="http://www.w3.org/2000/svg" xmlns:xlink="http://www.w3.org/1999/xlink">
    <!-- Generator: Sketch 46 (44423) - http://www.bohemiancoding.com/sketch -->
    <title>moni</title>
    <desc>Created with Sketch.</desc>
    <defs>
        <path d="M0.3,27.9883116 L0.3,18.9 C0.3,16.2 2.8494335,13.9 6.09416704,13.9 L58.4734371,13.9 C61.7181707,13.9 66.4693876,12.6 69.1347045,11.1 L86.4013223,1.1 C89.0666391,-0.5 91.2684226,0.5 91.2684226,3.3 L91.2684226,8.8 C91.2684226,11.5 93.8178561,13.8 97.0625896,13.8 L114.445091,13.8 C117.573941,13.8 120.239258,16 120.239258,18.8 L120.239258,27.9883116" id="path-1"></path>
    </defs>
    <g id="Page-1" stroke="none" stroke-width="1" fill="none" fill-rule="evenodd">
        <g id="moni" transform="translate(2.000000, 2.000000)">
            <path d="M114.445091,63.7 C117.689824,63.7 120.239258,61.4 120.239258,58.7 L120.239258,18.8 C120.239258,16 117.573941,13.8 114.445091,13.8 L97.0625896,13.8 C93.8178561,13.8 91.2684226,11.5 91.2684226,8.8 L91.2684226,3.3 C91.2684226,0.5 89.0666391,-0.5 86.4013223,1.1 L69.1347045,11.1 C66.4693876,12.6 61.7181707,13.9 58.4734371,13.9 L6.09416704,13.9 C2.8494335,13.9 0.3,16.2 0.3,18.9 L0.3,58.8 C0.3,61.4 2.96531684,63.7 6.21005038,63.7 L114.445091,63.7 Z" id="Shape" stroke="#000000" stroke-width="3"></path>
            <mask id="mask-2" fill="white">
                <use xlink:href="#path-1"></use>
            </mask>
            <use id="Shape-Copy" stroke="#FEFEFE" stroke-width="3" xlink:href="#path-1"></use>
            <rect id="Rectangle-path" mask="url(#mask-2)" x="24" y="29" width="65.2495636" height="20.4"></rect>
            <text id="Manal" fill="#000000" font-family="GothamBold-Italic, GothamBold" font-size="25.0634" font-style="italic" font-weight="bold">
                <tspan x="21" y="48">Manal</tspan>
            </text>
        </g>
    </g>
</svg>