<?xml version="1.0" encoding="UTF-8"?>
<svg width="122px" height="67px" viewBox="0 0 122 67" version="1.1" xmlns="http://www.w3.org/2000/svg" xmlns:xlink="http://www.w3.org/1999/xlink">
    <!-- Generator: Sketch 46 (44423) - http://www.bohemiancoding.com/sketch -->
    <title>moni</title>
    <desc>Created with Sketch.</desc>
    <defs>
        <path d="M118.176187,36.2667989 L118.176187,6.67415941 C118.176187,3.0854164 116.27529,1.19402993 112.473496,1 C43.181605,1 7.28980409,1 4.79809346,1 C0.130484189,1 0.130484189,5.82368102 0.130484189,6.67415941 C0.130484189,7.241145 0.0869894593,17.1053582 -7.10542736e-15,36.2667989" id="path-1"></path>
        <path d="M7.10542736e-15,0.651908792 L7.10542736e-15,-8.43640281 C7.10542736e-15,-11.1364028 2.50918403,-13.4364028 5.70269097,-13.4364028 L57.2550174,-13.4364028 C60.4485243,-13.4364028 65.1247309,-14.7364028 67.7479687,-16.2364028 L84.7419878,-26.2364028 C87.3652257,-27.8364028 89.5322483,-26.8364028 89.5322483,-24.0364028 L89.5322483,-18.5364028 C89.5322483,-15.8364028 92.0414323,-13.5364028 95.2349392,-13.5364028 L112.343012,-13.5364028 C115.422465,-13.5364028 118.045703,-11.3364028 118.045703,-8.53640281 L118.045703,0.651908792" id="path-3"></path>
    </defs>
    <g id="Page-1" stroke="none" stroke-width="1" fill="none" fill-rule="evenodd">
        <g id="moni" transform="translate(2.000000, 29.000000)">
            <mask id="mask-2" fill="white">
                <use xlink:href="#path-1"></use>
            </mask>
            <use id="Mask" stroke="#000000" stroke-width="3" transform="translate(59.088094, 18.633399) scale(1, -1) translate(-59.088094, -18.633399) " xlink:href="#path-1"></use>
            <mask id="mask-4" fill="white">
                <use xlink:href="#path-3"></use>
            </mask>
            <use id="Mask" stroke="#FFFFFF" stroke-width="3" xlink:href="#path-3"></use>
            <path d="M21.3007608,23 L26.01268,5.45562 L30.022824,5.45562 L32.5542274,12.8743864 L39.0957748,5.45562 L43.55706,5.45562 L38.8451408,23 L34.9352504,23 L37.9929852,11.5460262 L31.1256136,19.0399828 L31.02536,19.0399828 L28.2182592,11.6212164 L25.1605244,23 L21.3007608,23 Z M46.8403654,23.250634 C44.5094692,23.250634 42.930475,21.74683 42.930475,19.6415044 C42.930475,16.5336428 45.4618784,14.8042682 48.7201204,14.8042682 C50.1737976,14.8042682 51.3768408,15.0549022 52.5046938,15.4057898 L52.5548206,15.230346 C52.6300108,14.9295852 52.705201,14.6288244 52.705201,14.22781 C52.705201,13.3004642 52.0535526,12.6488158 50.1737976,12.6488158 C48.8705008,12.6488158 47.567204,12.97464 46.5897314,13.3756544 L45.9882098,10.3680464 C47.3666968,9.7915882 49.071008,9.4156372 50.9758264,9.4156372 C54.584956,9.4156372 56.4145842,10.9194412 56.4145842,13.5510982 C56.4145842,14.2528734 56.2892672,14.9045218 56.1138234,15.5812336 L54.1338148,23 L50.449495,23 L50.8505094,21.4460692 C49.7727832,22.5989856 48.4193596,23.250634 46.8403654,23.250634 Z M48.4694864,20.6440404 C50.0484806,20.6440404 51.4269676,19.3908704 51.8530454,17.9371932 L51.953299,17.5863056 C51.3016506,17.3356716 50.3743048,17.110101 49.446959,17.110101 C47.8679648,17.110101 46.7150484,17.9121298 46.7150484,19.2154266 C46.7150484,20.0425188 47.3917602,20.6440404 48.4694864,20.6440404 Z M57.4171202,23 L61.226757,23 L63.2568924,15.4559166 C63.6829702,13.851859 64.6604428,12.7741328 66.1642468,12.7741328 C67.3422266,12.7741328 68.0189384,13.350591 68.0189384,14.4283172 C68.0189384,14.7541414 67.9437482,15.2554094 67.8434946,15.6313604 L65.863486,23 L69.6731228,23 L71.6030046,15.7817408 C71.8285752,14.9295852 72.0541458,13.977176 72.0541458,13.225274 C72.0541458,10.7941242 70.500215,9.3153836 68.0941286,9.3153836 C66.5903246,9.3153836 65.3872814,10.1174124 64.4348722,10.969568 L64.8108232,9.5660176 L61.0011864,9.5660176 L57.4171202,23 Z M77.0918892,23.250634 C74.760993,23.250634 73.1819988,21.74683 73.1819988,19.6415044 C73.1819988,16.5336428 75.7134022,14.8042682 78.9716442,14.8042682 C80.4253214,14.8042682 81.6283646,15.0549022 82.7562176,15.4057898 L82.8063444,15.230346 C82.8815346,14.9295852 82.9567248,14.6288244 82.9567248,14.22781 C82.9567248,13.3004642 82.3050764,12.6488158 80.4253214,12.6488158 C79.1220246,12.6488158 77.8187278,12.97464 76.8412552,13.3756544 L76.2397336,10.3680464 C77.6182206,9.7915882 79.3225318,9.4156372 81.2273502,9.4156372 C84.8364798,9.4156372 86.666108,10.9194412 86.666108,13.5510982 C86.666108,14.2528734 86.540791,14.9045218 86.3653472,15.5812336 L84.3853386,23 L80.7010188,23 L81.1020332,21.4460692 C80.024307,22.5989856 78.6708834,23.250634 77.0918892,23.250634 Z M78.7210102,20.6440404 C80.3000044,20.6440404 81.6784914,19.3908704 82.1045692,17.9371932 L82.2048228,17.5863056 C81.5531744,17.3356716 80.6258286,17.110101 79.6984828,17.110101 C78.1194886,17.110101 76.9665722,17.9121298 76.9665722,19.2154266 C76.9665722,20.0425188 77.643284,20.6440404 78.7210102,20.6440404 Z M87.8190244,23 L91.6286612,23 L96.5410876,4.703718 L92.7314508,4.703718 L87.8190244,23 Z" id="Manal" fill="#000000"></path>
            <rect id="Rectangle-path" x="21" y="5" width="76" height="20"></rect>
        </g>
    </g>
</svg>