<?xml version="1.0" encoding="UTF-8"?>
<svg width="108px" height="68px" viewBox="0 0 108 68" version="1.1" xmlns="http://www.w3.org/2000/svg" xmlns:xlink="http://www.w3.org/1999/xlink">
    <!-- Generator: Sketch 46 (44423) - http://www.bohemiancoding.com/sketch -->
    <title>moni</title>
    <desc>Created with Sketch.</desc>
    <defs>
        <path d="M0.3,27.9883116 L0.3,18.8 C0.3,16 2.6,13.8 5.3,13.8 L20.3,13.8 C23.1,13.8 25.3,11.5 25.3,8.8 L25.3,3.3 C25.3,0.5 27.2,-0.5 29.5,1.1 L44.4,11.1 C46.7,12.6 50.8,13.9 53.6,13.9 L98.8,13.9 C101.6,13.9 103.8,16.2 103.8,18.9 L103.8,27.9883116" id="path-1"></path>
    </defs>
    <g id="Page-1" stroke="none" stroke-width="1" fill="none" fill-rule="evenodd">
        <g id="moni" transform="translate(2.000000, 2.000000)">
            <path d="M5.3,63.7 C2.5,63.7 0.3,61.4 0.3,58.7 L0.3,18.8 C0.3,16 2.6,13.8 5.3,13.8 L20.3,13.8 C23.1,13.8 25.3,11.5 25.3,8.8 L25.3,3.3 C25.3,0.5 27.2,-0.5 29.5,1.1 L44.4,11.1 C46.7,12.6 50.8,13.9 53.6,13.9 L98.8,13.9 C101.6,13.9 103.8,16.2 103.8,18.9 L103.8,58.8 C103.8,61.4 101.5,63.7 98.7,63.7 L5.3,63.7 Z" id="Shape" stroke="#000000" stroke-width="3" transform="translate(52.050000, 32.018201) scale(-1, 1) translate(-52.050000, -32.018201) "></path>
            <mask id="mask-2" fill="white">
                <use xlink:href="#path-1"></use>
            </mask>
            <use id="Shape-Copy" stroke="#FEFEFE" stroke-width="3" transform="translate(52.050000, 14.162357) scale(-1, 1) translate(-52.050000, -14.162357) " xlink:href="#path-1"></use>
            <rect id="Rectangle-path" mask="url(#mask-2)" x="18" y="29" width="69.3" height="20.4"></rect>
            <path d="M17.3007608,48 L21.1605244,48 L24.2182592,36.6212164 L27.02536,44.0399828 L27.1256136,44.0399828 L33.9929852,36.5460262 L30.9352504,48 L34.8451408,48 L39.55706,30.45562 L35.0957748,30.45562 L28.5542274,37.8743864 L26.022824,30.45562 L22.01268,30.45562 L17.3007608,48 Z M46.2740512,48.3007608 C42.2889706,48.3007608 39.807694,45.6691038 39.807694,42.0850376 C39.807694,38.0748936 43.2664432,34.3153836 47.577348,34.3153836 C51.5624286,34.3153836 54.0437052,36.9470406 54.0437052,40.5311068 C54.0437052,44.5412508 50.584956,48.3007608 46.2740512,48.3007608 Z M46.449495,45.0425188 C48.7803912,45.0425188 50.3092586,42.5361788 50.3092586,40.6313604 C50.3092586,38.6764152 49.1312788,37.5736256 47.4019042,37.5736256 C45.071008,37.5736256 43.5421406,40.0799656 43.5421406,41.984784 C43.5421406,43.9397292 44.7201204,45.0425188 46.449495,45.0425188 Z M55.0211778,48 L58.8308146,48 L60.86095,40.4559166 C61.2870278,38.851859 62.2645004,37.7741328 63.7683044,37.7741328 C64.9462842,37.7741328 65.622996,38.350591 65.622996,39.4283172 C65.622996,39.7541414 65.5478058,40.2554094 65.4475522,40.6313604 L63.4675436,48 L67.2771804,48 L69.2070622,40.7817408 C69.4326328,39.9295852 69.6582034,38.977176 69.6582034,38.225274 C69.6582034,35.7941242 68.1042726,34.3153836 65.6981862,34.3153836 C64.1943822,34.3153836 62.991339,35.1174124 62.0389298,35.969568 L62.4148808,34.5660176 L58.605244,34.5660176 L55.0211778,48 Z M74.5956932,33.087277 L78.6058372,33.087277 L79.533183,29.703718 L75.523039,29.703718 L74.5956932,33.087277 Z M70.6858028,48 L74.4954396,48 L78.1045692,34.5660176 L74.2949324,34.5660176 L70.6858028,48 Z" id="Moni" fill="#000000"></path>
        </g>
    </g>
</svg>