<?xml version="1.0" encoding="UTF-8"?>
<svg width="100px" height="67px" viewBox="0 0 100 67" version="1.1" xmlns="http://www.w3.org/2000/svg" xmlns:xlink="http://www.w3.org/1999/xlink">
    <!-- Generator: Sketch 46 (44423) - http://www.bohemiancoding.com/sketch -->
    <title>moni</title>
    <desc>Created with Sketch.</desc>
    <defs>
        <path d="M96.1761873,36.2667989 L96.1761873,6.67415941 C96.1761873,3.0854164 94.2752903,1.19402993 90.4734963,1 C35.984747,1 7.49451702,1 5.0028064,1 C0.335197125,1 0.335197125,5.82368102 0.335197125,6.67415941 C0.335197125,7.241145 0.291702396,17.1053582 0.204712936,36.2667989" id="path-1"></path>
        <path d="M0.195635206,0.651908792 L0.195635206,-8.43640281 C0.195635206,-11.1364028 2.70481923,-13.4364028 5.89832618,-13.4364028 L35.2550174,-13.4364028 C38.4485243,-13.4364028 43.1247309,-14.7364028 45.7479687,-16.2364028 L62.7419878,-26.2364028 C65.3652257,-27.8364028 67.5322483,-26.8364028 67.5322483,-24.0364028 L67.5322483,-18.5364028 C67.5322483,-15.8364028 70.0414323,-13.5364028 73.2349392,-13.5364028 L90.3430122,-13.5364028 C93.4224653,-13.5364028 96.0457031,-11.3364028 96.0457031,-8.53640281 L96.0457031,0.651908792" id="path-3"></path>
    </defs>
    <g id="Page-1" stroke="none" stroke-width="1" fill="none" fill-rule="evenodd">
        <g id="moni" transform="translate(2.000000, 29.000000)">
            <mask id="mask-2" fill="white">
                <use xlink:href="#path-1"></use>
            </mask>
            <use id="Mask" stroke="#000000" stroke-width="3" transform="translate(48.190450, 18.633399) scale(1, -1) translate(-48.190450, -18.633399) " xlink:href="#path-1"></use>
            <mask id="mask-4" fill="white">
                <use xlink:href="#path-3"></use>
            </mask>
            <use id="Mask" stroke="#FFFFFF" stroke-width="3" xlink:href="#path-3"></use>
            <path d="M16.3007608,23 L20.1605244,23 L23.2182592,11.6212164 L26.02536,19.0399828 L26.1256136,19.0399828 L32.9929852,11.5460262 L29.9352504,23 L33.8451408,23 L38.55706,5.45562 L34.0957748,5.45562 L27.5542274,12.8743864 L25.022824,5.45562 L21.01268,5.45562 L16.3007608,23 Z M45.2740512,23.3007608 C41.2889706,23.3007608 38.807694,20.6691038 38.807694,17.0850376 C38.807694,13.0748936 42.2664432,9.3153836 46.577348,9.3153836 C50.5624286,9.3153836 53.0437052,11.9470406 53.0437052,15.5311068 C53.0437052,19.5412508 49.584956,23.3007608 45.2740512,23.3007608 Z M45.449495,20.0425188 C47.7803912,20.0425188 49.3092586,17.5361788 49.3092586,15.6313604 C49.3092586,13.6764152 48.1312788,12.5736256 46.4019042,12.5736256 C44.071008,12.5736256 42.5421406,15.0799656 42.5421406,16.984784 C42.5421406,18.9397292 43.7201204,20.0425188 45.449495,20.0425188 Z M54.0211778,23 L57.8308146,23 L59.86095,15.4559166 C60.2870278,13.851859 61.2645004,12.7741328 62.7683044,12.7741328 C63.9462842,12.7741328 64.622996,13.350591 64.622996,14.4283172 C64.622996,14.7541414 64.5478058,15.2554094 64.4475522,15.6313604 L62.4675436,23 L66.2771804,23 L68.2070622,15.7817408 C68.4326328,14.9295852 68.6582034,13.977176 68.6582034,13.225274 C68.6582034,10.7941242 67.1042726,9.3153836 64.6981862,9.3153836 C63.1943822,9.3153836 61.991339,10.1174124 61.0389298,10.969568 L61.4148808,9.5660176 L57.605244,9.5660176 L54.0211778,23 Z M73.5956932,8.087277 L77.6058372,8.087277 L78.533183,4.703718 L74.523039,4.703718 L73.5956932,8.087277 Z M69.6858028,23 L73.4954396,23 L77.1045692,9.5660176 L73.2949324,9.5660176 L69.6858028,23 Z" id="Moni" fill="#000000"></path>
            <rect id="Rectangle-path" x="16" y="4" width="63" height="20"></rect>
        </g>
    </g>
</svg>