<?xml version="1.0" encoding="UTF-8"?>
<svg width="100px" height="100px" viewBox="0 0 100 100" version="1.1" xmlns="http://www.w3.org/2000/svg" xmlns:xlink="http://www.w3.org/1999/xlink">
    <!-- Generator: Sketch 45.2 (43514) - http://www.bohemiancoding.com/sketch -->
    <title>Group</title>
    <desc>Created with Sketch.</desc>
    <defs></defs>
    <g id="Page-1" stroke="none" stroke-width="1" fill="none" fill-rule="evenodd">
        <g id="Icons-web-01-copy" transform="translate(-276.000000, -245.000000)">
            <g id="Group"></g>
            <g id="Group" transform="translate(276.000000, 245.000000)" fill-rule="nonzero" fill="#000000">
                <g id="Shape">
                    <path d="M94.6,48.8 C93.8,47.6 92.9,46.2 91.9,44.8 C89.7,41.7 87.3,38.1 86.1,35.6 L81.1,24.8 C79.8,21.9 77.1,19.9 74.1,19.2 C73.9,19.2 73.8,19.1 73.6,19.1 C73.4,19.1 73.3,19 73.1,19 L73.1,18 C73.1,17.2 73,16.4 73,15.6 C73,15.4 73,15.3 72.9,15.1 C72.9,14.9 72.9,14.8 72.8,14.6 C72.8,14.6 72.8,14.6 72.8,14.5 C72.9,14.5 73,14.5 73.2,14.5 L73.3,14.5 C73.4,14.5 73.6,14.5 73.7,14.5 L73.8,14.5 C74.5,14.5 75.3,14.4 76.2,14.4 C78.6,14.2 81.4,13.8 83.4,12.4 C85.3,11 86.7,8.6 87.7,6.4 C88.8,4.2 89.5,2.3 89.5,2.3 C89.5,2.2 89.5,2.1 89.6,2 C89.6,1.7 89.5,1.4 89.3,1.1 C89.1,0.9 88.8,0.7 88.5,0.7 C88.5,0.7 86,0.5 83.1,0.6 C80,0.7 76.8,1.1 74.6,2.9 C73.1,4.1 72.3,6 71.7,8 C71.6,8.2 71.6,8.5 71.5,8.8 C71.5,8.9 71.4,9 71.4,9.1 C71.4,9.2 71.3,9.3 71.3,9.5 C71.2,9.3 71.2,9.1 71.1,9 L71.1,9 C71,8.8 70.9,8.5 70.8,8.3 C70.2,7 69.5,5.8 68.6,4.6 C68.4,4.3 68,4.1 67.6,4.1 C67.4,4.1 67.1,4.2 66.9,4.3 C66.7,4.5 66.5,4.8 66.4,5.1 C66.3,5.4 66.4,5.7 66.6,6 C68,8 69,10.1 69.7,12.4 C69.7,12.4 69.7,12.4 69.7,12.4 C69.8,12.8 69.9,13.3 70,13.7 C70,13.7 70,13.7 70,13.8 C70,13.9 70.1,14.1 70.1,14.2 C70.1,14.2 70.1,14.2 70.1,14.2 C70.2,14.5 70.2,14.9 70.3,15.2 C70.4,16.1 70.5,17.1 70.5,18.1 L70.5,19.1 C70.3,19.1 70.2,19.1 70,19.2 C69.8,19.2 69.7,19.3 69.5,19.3 C66.5,19.9 63.9,22 62.5,24.9 L56.1,38.9 C55.8,39.6 55.4,40.3 54.9,41.1 C52.7,40.1 50.4,39.6 48,39.6 C45.9,39.6 43.8,40 41.9,40.8 L34.8,43.5 L34.9,42.7 C35.1,41.1 35.1,39.4 35.1,37.8 L35.1,37.3 L35.7,37.3 C36.4,37.4 37.1,37.4 37.9,37.4 C42.3,37.4 45.9,36.3 48.5,34.1 C51,31.9 52.6,28.9 52.9,25.6 C52.9,25.1 52.5,24.6 52,24.5 C43.1,23.6 37.9,28 35.2,31.8 L34.6,32.7 L34.3,31.7 C33.1,26.8 30.2,22.4 26.2,19.4 C25.7,19.1 25.1,19.2 24.7,19.7 C24.4,20.2 24.5,20.9 25,21.2 C25.3,21.4 31.6,25.8 32.8,35.9 L32.8,36 L32.8,36.1 C32.8,36.3 32.8,36.5 32.9,36.7 L32.9,36.8 C33.1,39.1 33,41.3 32.7,43.6 L32.6,44.2 L24.2,41 C15.3,37.6 5.3,42.1 1.9,50.9 C0.6,54.3 0.4,58 1.4,61.5 L10.6,90.3 C11.5,94 13.9,97.1 17.2,98.8 C19.3,100 21.7,100.2 24,99.4 L26.6,98.8 C28.4,98.4 30.3,98.2 32.1,98.2 C34.7,98.2 37.3,98.6 39.8,99.3 C40.9,99.6 42.1,99.8 43.2,99.8 C49,99.8 53.9,95.8 55.2,90.2 L56.4,86.4 C60.8,89.4 66,91 71.5,91.1 C82.9,91.1 93.2,84 97.3,73.2 C100.6,65.3 99.5,56.4 94.6,48.8 Z M73.4,11.9 L73.5,11.5 C73.5,11.3 73.6,11.2 73.6,11 C73.7,10.6 73.7,10.3 73.9,9.6 C74.4,7.7 75.5,5.3 76.3,4.6 C77.5,3.6 80.4,3 82.9,2.9 L83.4,2.9 C84.5,2.9 84.9,2.9 85.5,2.9 L86.8,3 L86.5,3.7 C86.4,3.9 86.4,4.1 86.3,4.2 C86.2,4.5 86.1,4.8 85.8,5.4 C84.8,7.4 83.3,9.8 82.2,10.5 C81.1,11.3 78.3,11.9 76.2,12 C75.5,12.1 75.1,12.1 74.8,12.1 L73.5,12.1 L73.4,11.9 Z M36,34.3 C38.9,29.2 44.2,26.2 50.1,26.3 L50.7,26.3 L50.5,26.9 C50,29 48.8,30.8 47.2,32.2 C45,34.1 41.9,35 38,35 C37.5,35 36.9,35 36.4,34.9 L35.6,34.9 L36,34.3 Z M57,79.1 L56.8,79.6 L56,82.2 L55.9,82.7 L55.9,82.8 L55.7,83.3 L55.1,85 L53.7,89.5 C53.1,92.2 51.5,94.4 49.1,95.9 C47.4,96.9 45.6,97.5 43.7,97.5 C42.9,97.5 42.1,97.4 41.4,97.2 C41.2,97.2 41,97.1 40.9,97.1 C36.3,95.8 31.3,95.6 26.6,96.5 L23.9,97.1 C23.8,97.1 23.8,97.1 23.7,97.2 C22,97.8 20.1,97.6 18.6,96.7 C15.8,95.3 13.8,92.7 13.1,89.6 L13.1,89.5 L3.9,60.7 C1.8,52.6 6.7,44.3 14.7,42.3 C17.7,41.5 20.8,41.7 23.7,42.7 L32.5,46.1 C32.7,46.2 32.9,46.2 33.1,46.1 L33.2,46.1 L33.4,46.1 C33.6,46.2 33.8,46.2 34,46.1 L42.8,42.7 C46.5,41.3 50.4,41.5 53.8,42.8 C54.5,43.1 55.2,43.4 55.8,43.8 C55.8,43.8 55.9,43.8 55.9,43.9 C56,44 56.1,44 56.2,44.1 C56.3,44.2 56.5,44.3 56.6,44.4 C57.2,44.8 57.9,45.3 58.4,45.9 C58.5,46 58.6,46.1 58.8,46.2 C58.9,46.3 59,46.4 59.2,46.6 C60.5,48 61.6,49.7 62.3,51.6 C63.4,54.5 63.6,57.7 62.8,60.7 L62.8,60.7 L57.1,78.6 L57,79.1 Z M95.5,72.3 C91.8,82.1 82.4,88.7 72,88.7 L72,88.7 C66.8,88.7 61.8,87 57.6,84.1 L57.7,83.9 L58.5,81.5 L58.7,81 L58.9,80.4 L65,61.3 C66.6,55.5 64.9,49.2 60.7,44.9 C60.6,44.8 60.5,44.7 60.3,44.5 C60.2,44.4 60.1,44.3 59.9,44.2 C59.9,44.2 59.8,44.1 59.8,44.1 C59.3,43.6 58.7,43.1 58.1,42.7 C58,42.6 57.8,42.5 57.7,42.4 C57.6,42.3 57.4,42.2 57.3,42.2 C57.8,41.4 58.2,40.6 58.6,39.9 L65.1,25.9 C66.2,23.4 68.6,21.7 71.3,21.5 L71.3,21.5 C71.5,21.5 71.7,21.5 71.9,21.5 L72.3,21.5 C72.5,21.5 72.7,21.5 72.9,21.5 L72.9,21.5 C75.6,21.7 78,23.4 79.1,25.9 L84.1,36.7 C85.5,39.7 88,43.3 90.2,46.6 C91.1,48 92,49.2 92.7,50.3 C97.2,57 98.2,65.1 95.5,72.3 Z"></path>
                    <g transform="translate(79.000000, 47.637800)">
                        <g transform="translate(3.000000, 0.000000)">
                            <path d="M9.1,12.1 C9.2,12.7 8.8,13.3 8.2,13.5 C7.9,13.6 7.6,13.5 7.3,13.3 C7,13.1 6.9,12.9 6.8,12.6 C6.1,8.6 4,5.1 0.9,2.5 C0.4,2.1 0.3,1.4 0.7,0.9 C0.9,0.6 1.3,0.5 1.6,0.5 C1.9,0.5 2.1,0.6 2.3,0.8 C5.9,3.6 8.3,7.6 9.1,12.1 Z"></path>
                        </g>
                        <g transform="translate(0.000000, 19.000000)">
                            <path d="M11.7,1.6 C11.7,1.7 11.7,1.8 11.7,1.9 C10.3,6.9 6.8,11.2 2.2,13.7 C1.6,14 0.9,13.8 0.6,13.2 C0.3,12.6 0.5,11.9 1.1,11.6 C5.2,9.4 8.2,5.7 9.5,1.2 C9.6,0.7 10.1,0.3 10.6,0.3 C11.2,0.4 11.7,0.9 11.7,1.6 Z"></path>
                        </g>
                    </g>
                </g>
                <path d="M18.6,46.9 C13.2,46.9 8.8,51.3 8.8,56.7 C8.8,57.3 9.3,57.8 9.9,57.8 C10.5,57.8 11,57.3 11,56.7 C11,52.5 14.4,49.2 18.5,49.2 C19.1,49.2 19.6,48.7 19.6,48.1 C19.7,47.4 19.2,46.9 18.6,46.9 L18.6,46.9 L18.6,46.9 Z" id="Shape"></path>
            </g>
        </g>
    </g>
</svg>