<?xml version="1.0" encoding="UTF-8"?>
<svg width="100%" height="100%" viewBox="0 0 110 101" version="1.1" xmlns="http://www.w3.org/2000/svg" xmlns:xlink="http://www.w3.org/1999/xlink">
  <!-- Generator: Sketch 45.2 (43514) - http://www.bohemiancoding.com/sketch -->
  <title>Shape</title>
  <desc>Created with Sketch.</desc>
  <defs></defs>
  <g id="Page-1" stroke="none" stroke-width="1" fill="none" fill-rule="evenodd">
    <path
      d="M43,24.9 C43,24.2 43.4,23.8 44.1,23.8 L64.3,23.6 C65,23.6 65.4,24 65.4,24.7 C65.4,25.4 65,25.8 64.3,25.8 L44.2,26 C43.5,26 43.1,25.6 43,24.9 Z M109.1,54.4 C109.1,55.1 108.7,55.5 108,55.5 L102.1,55.6 L102.2,65 C102.2,65.7 101.8,66.1 101.1,66.1 L95.1,66.2 L95.5,98.5 C95.5,99.2 95.1,99.6 94.4,99.6 L87.2,99.7 C86.5,99.7 86.1,99.3 86.1,98.6 C86.1,97.9 86.5,97.5 87.2,97.5 L93.2,97.4 L92.8,66.3 L16.6,67.2 L17,98.3 L23,98.2 C23.7,98.2 24.1,98.6 24.1,99.3 C24.1,100 23.7,100.4 23,100.4 L15.8,100.5 C15.1,100.5 14.7,100.1 14.7,99.4 L14.3,67.1 L8.1,67.2 C7.4,67.2 7,66.8 7,66.1 L6.9,56.7 L1.1,56.8 C0.4,56.8 2.13162821e-14,56.4 2.13162821e-14,55.7 C2.13162821e-14,55 0.4,54.6 1.1,54.6 L21.6,54.4 L24,40.3 C24.4,37.7 26.6,35.8 29.2,35.8 L32.9,35.8 L34.2,9 C34.4,4.6 38,1.1 42.5,1.1 L65.3,0.8 C69.7,0.8 73.4,4.2 73.8,8.5 L75.7,35.3 L79.4,35.3 C82,35.3 84.2,37.2 84.7,39.7 L87.4,53.8 L107.9,53.6 C108.7,53.3 109.1,53.7 109.1,54.4 Z M75.9,37.3 L77.1,53.6 L85.3,53.5 L82.7,39.8 C82.5,38.3 81.1,37.2 79.5,37.3 L75.9,37.3 Z M36.6,8.8 L34.4,54.1 L74.7,53.6 L71.5,8.4 C71.2,5.2 68.5,2.7 65.3,2.8 L42.6,3.1 C39.3,3 36.7,5.6 36.6,8.8 Z M23.9,54.2 L32.1,54.1 L32.9,37.7 L29.3,37.7 C27.7,37.7 26.5,38.9 26.2,40.3 L23.9,54.2 Z M100,55.6 L9.3,56.6 L9.4,64.9 L100,63.9 L99.9,55.6 L100,55.6 Z M78.4,78.3 C79.1,78.3 79.5,77.8 79.5,77.2 C79.5,76.5 79,76.1 78.4,76.1 L31.4,76.6 C30.7,76.6 30.3,77.1 30.3,77.7 C30.3,78.4 30.8,78.8 31.4,78.8 L53.8,78.5 L53.9,87 L43.2,98 C42.8,98.5 42.8,99.1 43.2,99.6 C43.4,99.8 43.8,99.9 44,99.9 C44.2,99.9 44.6,99.8 44.8,99.6 L54,90.2 L54.1,99.8 C54.1,100.5 54.6,100.9 55.2,100.9 C55.9,100.9 56.3,100.4 56.3,99.8 L56.2,90.3 L65.6,99.5 C65.8,99.7 66.2,99.8 66.4,99.8 C66.6,99.8 67,99.7 67.2,99.5 C67.6,99 67.6,98.4 67.2,97.9 L56.2,87.2 L56.1,78.6 L78.4,78.3 Z"
      id="Shape"
      fill="#000"
      fill-rule="nonzero"></path>
  </g>
</svg>
