<?xml version="1.0" encoding="UTF-8"?>
<svg width="541px" height="273px" viewBox="0 0 541 273" version="1.1" xmlns="http://www.w3.org/2000/svg" xmlns:xlink="http://www.w3.org/1999/xlink">
    <!-- Generator: Sketch 46 (44423) - http://www.bohemiancoding.com/sketch -->
    <title>Slice</title>
    <desc>Created with Sketch.</desc>
    <defs></defs>
    <g id="Page-1" stroke="none" stroke-width="1" fill="none" fill-rule="evenodd">
        <g id="Web-update" transform="translate(-836.000000, -1467.000000)" fill-rule="nonzero">
            <g id="Group" transform="translate(836.000000, 1467.000000)">
                <g transform="translate(3.000000, 18.000000)" id="Shape">
                    <path d="M10.4,19.2 C10.4,21.7 10.4,24.2 10.4,26.7 C10.4,26.9 10.4,27.2 10.4,27.4 C10.3,28.2 9.8,28.8 9.1,28.8 C8.4,28.8 7.8,28.2 7.8,27.4 C7.8,24.5 7.8,21.5 7.8,18.6 C7.8,18.2 8.1,17.4 7.4,17.5 C6.8,17.5 7.1,18.2 7.1,18.6 C7.1,21.4 7.1,24.2 7.1,27 C7.1,27.3 7.1,27.7 7,28 C6.8,28.5 6.3,28.8 5.8,28.8 C5.2,28.8 4.8,28.5 4.6,28 C4.4,27.6 4.5,27.2 4.5,26.8 C4.5,21.7 4.5,16.6 4.5,11.6 C4.5,11.4 4.5,11.2 4.5,11 C4.5,10.7 4.6,10.2 4.1,10.2 C3.6,10.2 3.7,10.7 3.7,11 C3.7,12.6 3.7,14.3 3.7,15.9 C3.7,16.4 3.7,16.8 3.2,17.1 C2.9,17.3 3,17.6 2.9,17.8 C2.3,21.1 1.7,24.4 1,27.7 C0.9,28.1 1.1,28.8 0.5,28.7 C-0.1,28.6 0.3,28 0.3,27.6 C0.9,24.4 1.5,21.2 2.1,18 C2.2,17.6 2.3,17.1 1.9,16.7 C1.7,16.5 1.8,16.2 1.8,15.9 C1.8,13.9 1.8,11.9 1.8,9.9 C1.8,7.8 3.1,6.5 5.2,6.5 C6.7,6.5 8.2,6.5 9.6,6.5 C11.6,6.5 12.9,7.8 13,9.9 C13,11.7 13,13.5 13,15.2 C13,15.5 12.9,15.9 13.5,15.8 C13.8,15.7 14.1,16 14.2,16.2 C14.4,16.6 14.7,16.9 14.9,17.3 C15.3,18 15.8,18.3 16.6,18.2 C16.9,18.2 17.3,18.2 17.6,18.2 C18.4,18.3 18.9,18 19.2,17.3 C19.4,17 19.6,16.6 19.8,16.3 C19.9,16.1 20.1,15.8 20.2,15.8 C21.5,15.9 21.3,14.8 21.5,14.2 C22,12.8 22.4,11.3 22.8,9.9 C23.3,8.4 24.1,7.8 25.7,7.8 C26.9,7.8 28.1,7.8 29.3,7.8 C30.6,7.8 31.5,8.3 31.9,9.6 C32.5,11.5 33.1,13.5 33.7,15.5 C33.9,16.1 33.9,16.8 33.1,17 C32.3,17.2 32,16.6 31.8,16 C31.4,14.5 30.9,13 30.5,11.5 C30.4,11.3 30.4,10.8 30.1,11 C29.8,11.1 29.9,11.5 30,11.7 C30.8,14.5 31.5,17.3 32.3,20.1 C32.5,20.8 32.4,21 31.7,21 C30.1,20.9 30.1,21 30.1,22.6 C30.1,24.2 30.1,25.9 30.1,27.5 C30.1,28.4 29.6,28.9 28.9,28.9 C28.2,28.9 27.7,28.4 27.7,27.5 C27.7,25.5 27.7,23.6 27.7,21.6 C27.7,21.4 27.9,21 27.4,21 C26.9,21 27,21.4 27,21.6 C27,23.4 27,25.2 27,26.9 C27,27.1 27,27.4 27,27.6 C27,28.3 26.6,28.8 25.8,28.8 C25,28.8 24.7,28.3 24.7,27.6 C24.7,25.7 24.7,23.8 24.7,21.9 C24.7,21.1 24.6,20.8 23.7,20.9 C22.2,21 22.2,20.9 22.6,19.5 C23.3,16.9 24,14.4 24.7,11.8 C24.8,11.5 25,11.1 24.6,11 C24.2,10.9 24.2,11.4 24.1,11.6 C23.7,13.1 23.2,14.6 22.8,16 C22.5,17 22.2,17.2 21.2,16.9 C20.9,16.8 20.8,17 20.8,17.2 C20.3,18.1 19.8,19.1 19.2,20.1 C18.9,20.7 19,21.3 19.1,22 C19.3,22.9 19.6,23.7 19.8,24.5 C19.9,24.7 20.1,25.1 19.6,25 C18.9,25 18.9,25.4 18.9,25.9 C18.9,26.6 18.9,27.3 18.9,28 C18.9,28.5 18.6,28.9 18,29 C17.4,29 17.1,28.6 17,28 C17,27.2 17,26.4 17,25.6 C17,25.4 17,25.2 16.8,25.2 C16.5,25.2 16.5,25.4 16.5,25.6 C16.5,26.4 16.5,27.2 16.5,28 C16.5,28.6 16.3,29 15.6,29.1 C14.9,29.1 14.6,28.7 14.6,28.1 C14.6,27.3 14.6,26.6 14.6,25.8 C14.6,25.6 14.7,25.2 14.3,25.2 C13.4,25.2 13.8,24.7 13.8,24.3 C13.8,24.2 13.8,24.2 13.8,24.1 C14.9,20 14.8,21.4 12.8,17.5 C12.7,17.2 12.6,17.1 12.2,17.3 C11.4,17.7 10.8,17.3 10.8,16.3 C10.8,14.7 10.8,13.2 10.8,11.6 C10.8,11.4 10.8,11.1 10.8,10.9 C10.8,10.7 10.7,10.5 10.4,10.5 C10.1,10.5 10.1,10.7 10,10.9 C10,11.1 10,11.4 10,11.6 C10.4,14 10.4,16.6 10.4,19.2 Z" fill="#FFFFFF"></path>
                    <path d="M56.4,19.1 C56.4,16.5 56.4,14 56.4,11.4 C56.4,11.2 56.4,11 56.4,10.8 C56.4,10.5 56.4,10.2 56,10.2 C55.6,10.2 55.6,10.6 55.6,10.8 C55.6,11.3 55.6,11.7 55.6,12.2 C55.6,13.5 55.6,14.8 55.6,16.1 C55.6,16.7 55.4,17.2 54.7,17.2 C54,17.2 53.8,16.7 53.8,16.1 C53.8,14 53.8,11.8 53.8,9.7 C53.9,7.9 55.2,6.6 57,6.6 C58.6,6.6 60.1,6.6 61.7,6.6 C63.6,6.6 64.9,7.9 64.9,9.9 C64.9,11.9 64.9,14 64.9,16 C64.9,16.7 64.8,17.3 64,17.3 C63.2,17.3 63.1,16.7 63.1,16 C63.1,14.4 63.1,12.8 63.1,11.2 C63.1,10.9 63.2,10.3 62.7,10.3 C62.2,10.3 62.3,10.8 62.3,11.1 C62.3,16.3 62.3,21.5 62.3,26.7 C62.3,26.9 62.3,27.2 62.3,27.4 C62.2,28.3 61.7,28.8 61,28.9 C60.2,28.9 59.7,28.3 59.7,27.4 C59.7,24.5 59.7,21.6 59.7,18.7 C59.7,18.5 59.7,18.3 59.7,18.1 C59.7,17.9 59.7,17.6 59.4,17.5 C59,17.5 59,17.8 59,18.1 C59,19.6 59,21.1 59,22.6 C59,24.2 59,25.7 59,27.3 C59,28.3 58.5,28.9 57.7,28.9 C56.9,28.9 56.4,28.3 56.4,27.3 C56.4,24.6 56.4,21.9 56.4,19.1 Z" fill="#FFFFFF"></path>
                    <path d="M45.8,20.9 C45.2,20.9 44.7,20.9 44.1,20.9 C43.5,20.9 43.4,21.1 43.4,21.6 C43.4,23.5 43.4,25.5 43.4,27.4 C43.4,28 43.3,28.5 42.7,28.8 C41.9,29.2 41.1,28.6 41.1,27.6 C41.1,25.7 41.1,23.8 41.1,21.9 C41.1,21.7 41.1,21.5 41.1,21.3 C41.1,21.1 41,21 40.7,21 C40.4,21 40.4,21.2 40.4,21.4 C40.4,21.9 40.4,22.4 40.4,22.9 C40.4,24.4 40.4,26 40.4,27.5 C40.4,28.4 40,28.9 39.3,28.9 C38.6,28.9 38.1,28.4 38.1,27.5 C38.1,25.6 38.1,23.7 38.1,21.8 C38.1,21.1 38,20.9 37.3,20.9 C35.7,20.9 35.7,20.9 36.1,19.4 C36.8,16.9 37.5,14.5 38.1,12 C38.2,11.8 38.2,11.6 38.2,11.4 C38.2,11.2 38.2,11 38,11 C37.8,11 37.7,11.1 37.7,11.3 C37.5,12.1 37.2,12.9 37,13.7 C36.7,14.6 36.5,15.4 36.2,16.3 C36,16.9 35.7,17.3 35,17.1 C34.3,16.9 34.2,16.4 34.4,15.8 C35,13.7 35.6,11.6 36.3,9.5 C36.7,8.4 37.5,7.8 38.8,7.9 C40.1,7.9 41.3,7.9 42.6,7.9 C44,7.9 44.8,8.5 45.2,9.8 C45.8,11.7 46.4,13.7 47,15.6 C47.2,16.2 47.2,16.9 46.5,17.1 C45.7,17.4 45.4,16.8 45.2,16.1 C44.8,14.6 44.3,13.1 43.9,11.6 C43.8,11.4 43.8,10.9 43.5,11 C43.1,11.1 43.3,11.5 43.4,11.8 C44.2,14.7 45,17.5 45.7,20.4 C45.7,20.5 45.8,20.7 45.8,20.9 Z" fill="#FFFFFF"></path>
                    <path d="M52.7,20.6 C52.7,22.6 52.7,24.7 52.7,26.7 C52.7,27.1 52.7,27.5 52.7,28 C52.7,28.6 52.4,28.9 51.8,28.9 C51.2,28.9 50.8,28.5 50.8,27.9 C50.8,27 50.8,26.1 50.8,25.2 C50.8,25 50.9,24.6 50.5,24.6 C50.2,24.6 50.3,25 50.3,25.2 C50.3,26 50.3,26.8 50.3,27.6 C50.3,28.3 50.1,28.9 49.3,28.9 C48.5,28.9 48.3,28.3 48.3,27.7 C48.3,25.3 48.3,22.9 48.3,20.3 C47.7,21.4 47.6,22.3 47.3,23.2 C47.2,23.6 47,24.1 46.4,23.9 C45.8,23.7 45.9,23.3 46.1,22.8 C46.6,21.5 47.1,20.2 47.7,19 C48,18.3 48.6,17.9 49.4,17.9 C50.2,17.9 51,17.9 51.8,17.9 C52.6,17.9 53.2,18.3 53.5,19.1 C53.9,20.2 54.4,21.3 54.8,22.5 C55,23 55,23.4 54.4,23.6 C53.8,23.8 53.8,23.3 53.6,23 C53.3,22.2 53,21.5 52.7,20.7 C52.8,20.5 52.7,20.6 52.7,20.6 Z" fill="#FFFFFF"></path>
                    <path d="M9.8,3.3 C9.8,4.6 8.7,5.6 7.4,5.6 C6.1,5.6 5.1,4.5 5.1,3.2 C5.1,1.9 6.2,0.9 7.5,0.9 C8.8,1 9.8,2.1 9.8,3.3 Z" fill="#FFFFFF"></path>
                    <path d="M61.7,3.3 C61.7,4.6 60.7,5.7 59.4,5.7 C58.1,5.7 57,4.7 57,3.4 C57,2.1 58,1 59.3,1 C60.6,0.9 61.7,2 61.7,3.3 Z" fill="#FFFFFF"></path>
                    <path d="M27.5,2.3 C28.7,2.3 29.7,3.3 29.7,4.6 C29.7,5.9 28.7,6.8 27.4,6.8 C26.2,6.8 25.2,5.8 25.2,4.5 C25.2,3.3 26.2,2.3 27.5,2.3 Z" fill="#FFFFFF"></path>
                    <path d="M40.8,6.8 C39.6,6.8 38.6,5.8 38.6,4.6 C38.6,3.4 39.6,2.4 40.8,2.4 C42,2.4 43,3.4 43,4.6 C43,5.8 42,6.8 40.8,6.8 Z" fill="#FFFFFF"></path>
                    <path d="M50.5,17.1 C49.5,17.1 48.7,16.3 48.7,15.3 C48.7,14.3 49.5,13.4 50.6,13.4 C51.6,13.4 52.4,14.2 52.4,15.3 C52.4,16.3 51.5,17.1 50.5,17.1 Z" fill="#FFFEFF"></path>
                    <path d="M15.2,15.2 C15.2,14.2 16,13.4 17.1,13.4 C18.1,13.4 18.9,14.2 18.9,15.3 C18.9,16.4 18.1,17.2 17,17.2 C15.9,17.1 15.2,16.2 15.2,15.2 Z" fill="#FFFFFF"></path>
                </g>
                <g transform="translate(123.000000, 7.000000)" id="Shape" fill="#FFFFFF">
                    <path d="M30.3,26.1 C39.8,26.1 49.3,26.1 58.8,26.1 C60.4,26.1 60.5,26.3 60.2,27.8 C58.4,36.3 53.4,42.3 46,46.6 C44.5,47.5 42.9,48.2 41.2,48.7 C40.7,48.9 40.4,49.1 40.5,49.7 C40.5,49.9 40.5,50.1 40.5,50.3 C40.6,51.2 40.2,51.5 39.3,51.5 C35.9,51.5 32.5,51.5 29.1,51.5 C26.7,51.5 24.2,51.5 21.8,51.5 C20.8,51.5 20.5,51.3 20.6,50.3 C20.7,49.4 20.3,49.1 19.5,48.8 C10.8,45.7 4.5,40 1.3,31.2 C0.9,30 0.6,28.8 0.4,27.6 C0.2,26.5 0.4,26.2 1.5,26.2 C5,26.2 8.5,26.2 11.9,26.2 C18.1,26.1 24.2,26.1 30.3,26.1 Z"></path>
                    <path d="M42.4,23.7 C43.5,20.8 42.7,18.5 40.8,16.5 C37.5,12.9 37.2,8.9 38.8,4.5 C39.2,3.4 39.7,2.3 40.4,1.4 C40.9,0.7 41.5,0.4 42.4,0.5 C43.8,0.7 44.3,1.8 43.6,3 C42.9,4.2 42.3,5.4 42,6.7 C41.2,9.6 41.6,12.2 43.7,14.5 C45.6,16.6 46.8,19 46.6,21.9 C46.6,22 46.6,22 46.6,22.1 C46.5,23.8 46.5,23.8 44.8,23.8 C44,23.7 43.3,23.7 42.4,23.7 Z"></path>
                    <path d="M21,23.6 C20.4,23.6 19.7,23.8 19.3,23.5 C18.9,23.2 19.4,22.5 19.5,22 C19.7,19.8 18.9,18 17.5,16.5 C16.1,14.9 15,13.2 14.7,11 C14.1,7.4 15.2,4.1 17.2,1.2 C17.6,0.6 18.3,0.4 19,0.5 C20.4,0.7 20.9,1.8 20.2,3 C19.3,4.5 18.6,6.2 18.3,8 C17.9,10.5 18.6,12.6 20.3,14.5 C21.9,16.2 22.9,18.2 23.2,20.5 C23.2,20.8 23.3,21.2 23.2,21.5 C23.2,23.7 23.2,23.7 21,23.6 Z"></path>
                    <path d="M30.8,23.7 C32,20.6 30.8,18.2 28.8,16 C26.4,13.4 25.8,10.2 26.5,6.8 C26.9,4.9 27.7,3.1 28.8,1.4 C29.3,0.6 30.2,0.3 31.1,0.5 C32.3,0.8 32.7,1.8 32.1,2.9 C31.3,4.2 30.7,5.6 30.4,7.1 C29.8,9.9 30.3,12.4 32.2,14.5 C33.7,16.1 34.7,17.9 35,20.1 C35.2,21.1 35.1,22.1 34.9,23.2 C34.8,23.6 34.7,23.8 34.2,23.8 C33,23.6 31.9,23.7 30.8,23.7 Z"></path>
                </g>
                <g transform="translate(238.000000, 9.000000)" id="Shape" fill="#FFFFFF">
                    <path d="M50.3,5 C49.3,8.3 48.3,11.5 47.4,14.8 C44.3,25.2 41.2,35.5 38.1,45.9 C38,46.2 37.9,46.5 37.7,46.8 C37.4,47.2 37,47.4 36.5,47.2 C35.9,47 35.7,46.6 35.6,46.1 C35.2,43.9 34.9,41.7 34.5,39.5 C33.8,35.1 33,30.8 32.3,26.4 C32.3,26.3 32.2,26.1 32.2,25.9 C31.9,26 31.8,26.4 31.7,26.6 C30.2,29.4 28.7,32.2 27.2,35.1 C26.9,35.7 26.5,36.4 25.7,36.2 C24.8,36 24.8,35.3 24.7,34.6 C24,29.8 23.3,25 22.7,20.2 C22.7,20 22.6,19.9 22.5,19.5 C21.3,22.1 20.2,24.6 19.1,27.1 C17.9,29.8 18.3,29.4 15.5,29.4 C10.9,29.4 6.3,29.4 1.7,29.4 C1.5,29.4 1.2,29.4 1,29.4 C0.4,29.3 5.68434189e-14,28.9 5.68434189e-14,28.3 C5.68434189e-14,27.7 0.3,27.3 0.9,27.1 C1.2,27 1.5,27.1 1.8,27.1 C6.4,27.1 11,27.1 15.7,27.1 C16.3,27.1 16.6,26.9 16.9,26.3 C18.5,22.6 20.2,18.9 21.8,15.2 C22,14.8 22.1,14.5 22.4,14.2 C23.2,13.7 24.1,14.2 24.2,15.3 C24.8,19.3 25.3,23.3 25.9,27.2 C26.1,28.5 26.3,29.8 26.5,31.2 C26.9,30.9 27,30.5 27.2,30.2 C28.7,27.5 30.1,24.8 31.6,22.1 C31.9,21.5 32.2,21 33,21.1 C33.8,21.2 34,21.8 34.1,22.5 C35.1,28.3 36.1,34.1 37.1,39.9 C37.2,40.2 37.2,40.5 37.3,41.1 C38.1,38.5 38.8,36 39.6,33.6 C42.8,23.1 45.9,12.5 49.1,2 C49.1,1.9 49.2,1.8 49.2,1.7 C49.3,1.1 49.7,0.8 50.2,0.7 C50.8,0.6 51.2,1 51.5,1.5 C52.5,3.6 53.5,5.7 54.5,7.9 C55.5,10 56.5,12 57.5,14.1 C57.9,15 57.8,15.6 57.1,15.9 C56.4,16.2 55.9,15.9 55.5,15.1 C54,12.1 52.6,9 51.1,6 C50.7,5.5 50.6,5.2 50.3,5 Z"></path>
                    <path d="M66.4,25 C66.4,26.8 65.8,28 64.8,29 C62.7,31.1 60.5,33.3 58.4,35.4 C58,35.8 57.8,35.7 57.5,35.4 C55.4,33.2 53.2,31.1 51.1,28.9 C49.5,27.2 49.1,24.7 50.2,22.6 C51.6,20 54.3,19.5 56.6,21.3 C57.1,21.7 57.5,22.4 58,22.4 C58.5,22.4 58.9,21.7 59.4,21.3 C60.7,20.2 62.2,19.8 63.8,20.6 C65.7,21.6 66.3,23.3 66.4,25 Z"></path>
                </g>
                <g transform="translate(365.000000, 0.000000)" id="Shape">
                    <path d="M11.4,26.1 C11.5,25 11.4,24 11.4,22.9 C11.4,22.4 11.5,22.3 12,22.3 C17.6,22.3 23.2,22.3 28.8,22.3 C29.2,22.3 29.4,22.4 29.4,22.9 C29.4,24 29.4,25 29.4,26.1 C29.4,26.8 29.2,27 28.6,27 C25.9,27 23.1,27 20.4,27 C17.7,27 15,27 12.2,27 C11.6,26.9 11.4,26.7 11.4,26.1 Z" fill="#FFFFFF"></path>
                    <path d="M29.5,30.7 C29.4,31.7 29.4,32.6 29.5,33.6 C29.5,34.3 29.3,34.5 28.7,34.5 C24.3,34.5 19.8,34.5 15.4,34.5 C14.3,34.5 13.3,34.5 12.2,34.5 C11.6,34.5 11.5,34.3 11.5,33.8 C11.5,32.8 11.5,31.7 11.5,30.7 C11.5,30.1 11.7,29.9 12.3,29.9 C15,29.9 17.8,29.9 20.5,29.9 C23.2,29.9 25.9,29.9 28.7,29.9 C29.3,29.9 29.5,30.1 29.5,30.7 Z" fill="#FFFFFF"></path>
                    <path d="M48.5,1.3 C48.5,0.8 48.4,0.7 47.9,0.7 C43.2,0.7 38.4,0.7 33.7,0.7 C33.1,0.7 33.1,0.9 33.1,1.4 C33.1,2.7 33.1,3.9 33.1,5.2 C33.1,5.9 33.3,6.1 34,6.1 C35.7,6 37.4,6.1 39.2,6.1 C37,8.3 35,10.4 32.9,12.5 C32.5,12.9 32.3,12.5 32.1,12.4 C27.5,9.2 22.5,8 16.9,8.9 C6.1,10.7 -1.4,21.8 1.2,32.4 C3.2,40.9 8.8,45.9 17.3,47.7 C17.8,47.8 18,48 18,48.5 C18,49.9 18,51.3 18,52.8 C18,53.4 17.9,53.6 17.2,53.6 C15.6,53.6 14.1,53.6 12.5,53.6 C12,53.6 11.8,53.8 11.8,54.3 C11.8,55.8 11.8,57.2 11.8,58.7 C11.8,59.3 12,59.5 12.6,59.5 C14.1,59.5 15.6,59.5 17.1,59.5 C17.8,59.5 18,59.6 18,60.3 C17.9,61.7 18,63.2 18,64.7 C18,65.2 18.1,65.4 18.7,65.4 C20.1,65.4 21.6,65.4 23.1,65.4 C23.7,65.4 23.9,65.2 23.9,64.6 C23.9,63.2 23.9,61.8 23.9,60.3 C23.9,59.6 24.1,59.4 24.8,59.5 C26.3,59.5 27.8,59.5 29.3,59.5 C29.8,59.5 30.1,59.4 30.1,58.8 C30.1,57.4 30.1,55.9 30.1,54.4 C30.1,53.9 29.9,53.7 29.4,53.7 C27.8,53.7 26.2,53.7 24.6,53.7 C24.1,53.7 24,53.6 24,53.1 C24,51.6 24,50.1 24,48.6 C24,48 24.2,47.8 24.8,47.7 C26,47.5 27.1,47.1 28.3,46.7 C39.8,42 44.2,28.2 37.4,17.8 C37.1,17.3 37.1,17 37.5,16.6 C38.5,15.7 39.4,14.8 40.3,13.9 C41.3,12.9 42.3,11.8 43.4,10.8 C43.6,12.5 43.6,14.1 43.6,15.7 C43.6,16.3 43.8,16.5 44.4,16.5 C45.7,16.5 47.1,16.5 48.4,16.5 C48.9,16.5 49.1,16.4 49.1,15.8 C48.5,10.8 48.5,6.1 48.5,1.3 Z M20.4,42.7 C12.4,42.7 5.9,36.2 5.9,28.2 C5.9,20.2 12.4,13.7 20.4,13.7 C28.4,13.7 34.9,20.2 34.9,28.2 C34.9,36.3 28.4,42.8 20.4,42.7 Z" fill="#FFFFFF"></path>
                    <path d="M11.4,26.1 C11.5,25 11.4,24 11.4,22.9 C11.4,22.4 11.5,22.3 12,22.3 C17.6,22.3 23.2,22.3 28.8,22.3 C29.2,22.3 29.4,22.4 29.4,22.9 C29.4,24 29.4,25 29.4,26.1 C29.4,26.8 29.2,27 28.6,27 C25.9,27 23.1,27 20.4,27 C17.7,27 15,27 12.2,27 C11.6,26.9 11.4,26.7 11.4,26.1 Z" fill="#E8422F"></path>
                    <path d="M29.5,33.6 C29.5,34.3 29.3,34.5 28.7,34.5 C24.3,34.5 19.8,34.5 15.4,34.5 C14.3,34.5 13.3,34.5 12.2,34.5 C11.6,34.5 11.5,34.3 11.5,33.8 C11.5,32.8 11.5,31.7 11.5,30.7 C11.5,30.1 11.7,29.9 12.3,29.9 C15,29.9 17.8,29.9 20.5,29.9 C23.2,29.9 25.9,29.9 28.7,29.9 C29.4,29.9 29.6,30.1 29.5,30.8 C29.4,31.7 29.4,32.7 29.5,33.6 Z" fill="#E8422F"></path>
                    <path d="M28.7,26.9 C26,26.9 23.2,26.9 20.5,26.9 C17.8,26.9 15.1,26.9 12.3,26.9 C11.7,26.9 11.5,26.7 11.5,26.1 C11.6,25 11.5,24 11.5,22.9 C11.5,22.4 11.6,22.3 12.1,22.3 C17.7,22.3 23.3,22.3 28.9,22.3 C29.3,22.3 29.5,22.4 29.5,22.9 C29.5,24 29.5,25 29.5,26.1 C29.5,26.7 29.4,26.9 28.7,26.9 Z" fill="#FFFFFF"></path>
                    <path d="M29.5,33.6 C29.5,34.3 29.3,34.5 28.7,34.5 C24.3,34.5 19.8,34.5 15.4,34.5 C14.3,34.5 13.3,34.5 12.2,34.5 C11.6,34.5 11.5,34.3 11.5,33.8 C11.5,32.8 11.5,31.7 11.5,30.7 C11.5,30.1 11.7,29.9 12.3,29.9 C15,29.9 17.8,29.9 20.5,29.9 C23.2,29.9 25.9,29.9 28.7,29.9 C29.4,29.9 29.6,30.1 29.5,30.8 C29.4,31.7 29.4,32.7 29.5,33.6 Z" fill="#FFFFFF"></path>
                </g>
                <path d="M528.9,2.2 L487,2.2 C486.8,2.2 486.6,2.2 486.5,2.2 C485.9,2.2 485.6,2.4 485.7,3.1 C486.7,9.3 487.7,15.5 488.8,21.8 C490.2,30.1 491.6,38.4 492.9,46.7 C493,47.5 493.3,47.8 494.2,47.8 C496.7,47.8 499.3,47.8 501.8,47.8 C502.2,47.8 502.5,47.7 502.6,48.3 C502.8,50.3 502.9,52.3 503.1,54.3 C503.2,54.9 503,55.1 502.4,55 C501.5,55 500.6,55 499.5,55 C499.8,55.3 499.9,55.5 500.1,55.7 C502.6,58.2 505.1,60.8 507.6,63.3 C508.1,63.8 508.4,63.7 508.8,63.3 C510.9,61.1 513.1,59 515.3,56.8 C515.8,56.3 516.4,55.8 516.9,55.3 C516.8,55.2 516.8,55.1 516.7,55.1 C515.8,55.1 514.9,55.1 514.1,55.1 C513.5,55.1 513.2,55 513.3,54.3 C513.5,52.4 513.6,50.6 513.8,48.7 C513.8,48 514.1,47.8 514.8,47.8 C517.2,47.8 519.7,47.8 522.1,47.8 C523.5,47.8 523.5,47.8 523.7,46.4 C524.7,39.5 525.8,32.7 526.8,25.8 C527.9,18.4 529.1,11 530.2,3.6 C530.3,2.2 530.3,2.2 528.9,2.2 Z M509.4,39.8 C505.5,40.4 502,38.4 501,34.8 C500.4,32.7 500.8,30.7 501.8,28.8 C503.7,25.4 505.9,22.3 508.1,18.9 C510.3,22.4 512.7,25.6 514.6,29.2 C515.1,30.2 515.4,31.3 515.4,32.5 C515.5,36.5 513.2,39.2 509.4,39.8 Z M528.2,5.2 C527.9,7.1 527.6,8.9 527.3,10.8 C527.2,11.4 527,11.7 526.3,11.5 C525.1,11.2 523.9,11.6 522.8,12.1 C520.8,12.9 518.8,13.6 516.7,14 C513.2,14.6 509.9,13.9 506.6,12.6 C505.4,12.1 504.2,11.7 503,11.2 C500.9,10.5 498.9,10.5 496.8,11.3 C494.7,12.1 492.5,12.8 490.1,12.9 C489.5,12.9 489.2,12.8 489.1,12.2 C488.7,9.8 488.2,7.5 487.7,5.1 C487.5,4.3 487.7,4.1 488.6,4.1 C495.1,4.1 501.5,4.1 508,4.1 C514.4,4.1 520.9,4.1 527.3,4.1 C528.4,4.1 528.4,4.2 528.2,5.2 Z" id="Shape" fill="#FFFFFF"></path>
                <g transform="translate(2.000000, 103.000000)" id="Shape" fill="#FFFFFF">
                    <path d="M33.5,14.9 C23,14.9 14.4,23.5 14.4,34 C14.4,44.5 23,53.1 33.5,53.1 C44,53.1 52.7,44.5 52.7,34 C52.7,23.5 44.1,14.9 33.5,14.9 Z M32.1,22.6 C32.1,21.7 32.7,21 33.5,21 C34.3,21 34.9,21.6 34.9,22.6 C34.9,23.6 34.9,24.7 34.9,25.7 C34.9,26.7 34.9,27.8 34.9,28.8 C34.9,29.7 34.3,30.3 33.5,30.3 C32.7,30.3 32.1,29.7 32.1,28.8 C32.1,26.8 32.1,24.7 32.1,22.6 Z M43.5,34 C43.4,39.2 39.5,43.3 34.2,43.7 C29.1,44.1 24.6,40.5 23.7,35.4 C22.9,30.9 25.5,26.3 29.7,24.6 C30.4,24.3 30.7,24.3 30.6,25.2 C30.6,25.6 30.6,25.9 30.6,26.3 C30.6,26.5 30.6,26.7 30.6,26.9 C30.7,27.6 30.4,28.1 29.8,28.5 C27.5,30.1 26.5,33 27.3,35.7 C28.1,38.4 30.6,40.2 33.5,40.2 C36.4,40.2 38.8,38.4 39.7,35.7 C40.6,32.9 39.6,29.9 37.1,28.3 C36.6,28 36.4,27.7 36.4,27.1 C36.5,26.4 36.4,25.6 36.4,24.9 C36.4,24.2 36.6,24.2 37.1,24.4 C41,26 43.6,29.9 43.5,34 Z"></path>
                    <path d="M50.9,6.1 C50.9,6.7 50.7,7 50.5,7.3 C49.2,9.5 48,11.7 46.7,13.9 C46.2,14.9 45.2,15.2 44.4,14.7 C43.6,14.3 43.4,13.3 43.9,12.3 C45.2,10 46.5,7.8 47.8,5.6 C48.2,4.9 48.8,4.6 49.6,4.8 C50.5,5 50.8,5.6 50.9,6.1 Z"></path>
                    <path d="M13.2,23.7 C12.8,23.7 12.5,23.6 12.2,23.4 C10,22.1 7.7,20.8 5.5,19.5 C4.6,19 4.3,18 4.8,17.2 C5.3,16.5 6.2,16.3 7.1,16.8 C9.4,18.1 11.7,19.4 13.9,20.7 C14.6,21.1 14.8,21.8 14.7,22.6 C14.4,23.3 13.8,23.6 13.2,23.7 Z"></path>
                    <path d="M23.4,54.3 C23.4,54.7 23.2,55 23,55.3 C21.8,57.5 20.5,59.6 19.3,61.8 C18.7,62.8 17.8,63.1 17,62.7 C16.2,62.2 16,61.3 16.6,60.3 C17.9,58 19.2,55.8 20.5,53.5 C20.9,52.7 21.6,52.5 22.4,52.7 C23.1,53 23.4,53.6 23.4,54.3 Z"></path>
                    <path d="M54,43.9 C54.4,43.9 54.7,44.1 55,44.3 C57.2,45.6 59.4,46.8 61.6,48.1 C62.6,48.7 62.9,49.5 62.4,50.4 C62,51.2 61,51.4 60,50.9 C57.7,49.6 55.5,48.3 53.2,47 C52.4,46.6 52.2,45.9 52.4,45.1 C52.7,44.3 53.3,44 54,43.9 Z"></path>
                    <path d="M17.7,4.8 C18.3,4.9 18.8,5.1 19.1,5.6 C20.4,7.9 21.7,10.2 23.1,12.5 C23.6,13.3 23.4,14.3 22.6,14.7 C21.8,15.2 20.9,14.9 20.4,14 C19.1,11.7 17.7,9.4 16.4,7.1 C15.8,6.1 16.5,4.8 17.7,4.8 Z"></path>
                    <path d="M62.6,18 C62.6,18.6 62.3,19.1 61.8,19.4 C59.5,20.7 57.2,22.1 54.8,23.4 C54,23.9 53,23.6 52.6,22.9 C52.2,22.2 52.5,21.2 53.3,20.7 C55.6,19.4 57.9,18 60.2,16.7 C61.3,16.1 62.6,16.8 62.6,18 Z"></path>
                    <path d="M50.9,61.5 C50.9,62 50.6,62.5 49.9,62.7 C49.2,62.9 48.5,62.8 48.1,62.2 C46.7,59.8 45.2,57.3 43.9,54.8 C43.5,54.1 43.9,53.1 44.6,52.8 C45.3,52.5 46.3,52.7 46.7,53.4 C48.1,55.8 49.4,58.2 50.8,60.5 C50.9,60.8 50.9,61.1 50.9,61.5 Z"></path>
                    <path d="M14.7,45.5 C14.7,46.1 14.5,46.6 13.9,46.9 C11.6,48.2 9.3,49.6 6.9,50.9 C6.1,51.4 5.1,51.1 4.7,50.4 C4.3,49.7 4.5,48.7 5.3,48.2 C7.6,46.8 9.9,45.5 12.3,44.2 C13.4,43.6 14.7,44.3 14.7,45.5 Z"></path>
                    <path d="M35.1,61.4 C35.1,62.7 35.1,64 35.1,65.3 C35.1,66.3 34.5,67.1 33.6,67.1 C32.7,67.1 32,66.4 32,65.4 C32,62.8 32,60.2 32,57.5 C32,56.4 32.6,55.8 33.6,55.8 C34.5,55.8 35.1,56.5 35.1,57.5 C35.1,58.8 35.1,60.1 35.1,61.4 Z"></path>
                    <path d="M61.2,35.4 C59.9,35.4 58.5,35.4 57.2,35.4 C56.2,35.4 55.6,34.8 55.5,33.9 C55.5,33 56.1,32.3 57.2,32.3 C59.8,32.3 62.4,32.3 65.1,32.3 C66.1,32.3 66.8,33 66.8,33.9 C66.8,34.8 66.1,35.4 65,35.4 C63.8,35.4 62.5,35.4 61.2,35.4 Z"></path>
                    <path d="M5.9,35.4 C4.6,35.4 3.3,35.4 2,35.4 C1,35.4 0.3,34.8 0.2,33.9 C0.2,33 0.9,32.3 1.9,32.3 C4.5,32.3 7.1,32.3 9.8,32.3 C10.9,32.3 11.5,32.9 11.5,33.9 C11.5,34.8 10.9,35.4 9.8,35.4 C8.6,35.4 7.2,35.4 5.9,35.4 Z"></path>
                    <path d="M35.1,6.2 C35.1,7.5 35.1,8.8 35.1,10.1 C35.1,11.2 34.5,11.8 33.5,11.8 C32.6,11.8 32,11.2 32,10.2 C32,7.5 32,4.9 32,2.2 C32,1.2 32.7,0.5 33.5,0.5 C34.4,0.5 35.1,1.2 35.1,2.2 C35.1,3.6 35.1,4.9 35.1,6.2 Z"></path>
                </g>
                <path d="M183.9,141.6 C183.9,140.8 183.6,140.3 182.9,139.9 C178.5,137.4 174.2,134.9 169.8,132.4 C169.2,132.1 169,131.7 169,131 C169,126 169,121 169,115.9 C169,115.1 168.7,114.6 168,114.2 C163.4,111.6 158.8,108.9 154.2,106.2 C153.5,105.8 152.9,105.8 152.2,106.2 C147.6,108.9 143.1,111.5 138.5,114.1 C137.7,114.6 137.4,115.1 137.4,116 C137.4,121 137.4,125.9 137.4,130.9 C137.4,131.6 137.2,132 136.6,132.4 C132.2,134.9 127.9,137.4 123.6,139.9 C122.9,140.3 122.6,140.8 122.6,141.6 C122.6,144.3 122.6,147 122.6,149.7 C122.6,152.3 122.6,155 122.6,157.6 C122.6,158.5 122.9,159 123.6,159.4 C128.2,162 132.8,164.7 137.3,167.3 C138,167.7 138.6,167.7 139.4,167.3 C143.7,164.7 148.1,162.3 152.5,159.7 C153,159.4 153.4,159.4 153.9,159.7 C158.3,162.3 162.7,164.8 167.1,167.3 C167.7,167.7 168.3,167.7 168.9,167.3 C173.5,164.6 178.2,161.9 182.9,159.2 C183.6,158.8 183.8,158.3 183.8,157.5 C183.9,152.3 183.9,147 183.9,141.6 Z M137.5,164.7 C137.5,164.8 137.5,164.8 137.4,164.9 C137.1,165 137,164.8 136.8,164.7 C133,162.5 129.2,160.3 125.4,158.1 C125.1,157.9 124.7,157.8 124.7,157.3 C124.7,152.6 124.7,147.8 124.7,142.9 C127.2,144.4 129.6,145.7 132,147.1 C133.6,148.1 135.3,149 136.9,149.9 C137.3,150.1 137.5,150.3 137.5,150.8 C137.5,155.4 137.5,160 137.5,164.7 Z M139.5,117.9 C139.5,117.4 139.5,117.1 140.2,117.5 C143.9,119.6 147.6,121.8 151.4,124 C151,124.2 150.8,124.4 150.5,124.5 C147.1,126.5 143.7,128.4 140.3,130.4 C139.7,130.7 139.5,130.8 139.5,130 C139.5,126 139.5,122 139.5,117.9 Z M139.5,165 L139.5,151.3 C143.5,153.6 147.3,155.8 151.3,158.1 C147.4,160.5 143.5,162.7 139.5,165 Z M152.3,156.5 C148.3,154.2 144.5,152 140.5,149.7 C144.5,147.4 148.3,145.2 152.3,142.9 L152.3,156.5 Z M152.3,139.4 C148.4,137.1 144.5,134.9 140.5,132.6 C144.5,130.3 148.3,128.1 152.3,125.8 L152.3,139.4 Z M166.6,117.4 C167,117.2 167.2,117.2 167.2,117.7 C167.2,121.8 167.2,126 167.2,130.1 C167.2,130.5 167.1,130.7 166.7,130.5 C163,128.3 159.3,126.2 155.6,124 C155.6,124 155.6,123.9 155.5,123.8 C159.2,121.7 162.9,119.6 166.6,117.4 Z M154.4,125.7 C158.3,128 162.2,130.2 166.2,132.5 C162.2,134.8 158.4,137 154.4,139.3 L154.4,125.7 Z M168.7,148.2 C168.4,148.4 168.1,148.6 167.6,148.3 C163.6,145.9 159.6,143.6 155.6,141.3 C155.5,141.3 155.5,141.2 155.4,141.1 C155.5,140.8 155.8,140.7 156,140.6 C159.8,138.4 163.6,136.2 167.3,134 C167.7,133.8 168,133.6 168.4,133.9 C172.4,136.2 176.4,138.5 180.4,140.8 C180.5,140.8 180.5,140.9 180.6,141 C180.5,141.3 180.3,141.3 180.1,141.4 C176.4,143.7 172.6,145.9 168.7,148.2 Z M181.5,157.9 C177.5,160.2 173.5,162.5 169.5,164.8 C169.4,164.8 169.3,164.9 169.1,164.9 L169.1,158 C169.1,155.6 169.1,153.2 169.1,150.8 C169.1,150.4 169.2,150.1 169.6,149.8 C173.6,147.5 177.7,145.2 181.7,142.8 C181.7,142.8 181.8,142.8 181.9,142.8 C181.9,143.1 181.9,143.3 181.9,143.6 C181.9,148 181.9,152.4 181.9,156.7 C181.9,157.3 182,157.6 181.5,157.9 Z" id="Shape" fill="#FFFFFF"></path>
                <g transform="translate(240.000000, 105.000000)" id="Shape">
                    <path d="M56.7,17.6 C60.4,23.3 61.9,29.6 61.3,36.3 C60.3,48.1 52.1,58.3 40.8,61.8 C28.9,65.6 16.1,61.7 8.1,51.8 C-7.1,33.3 2.8,5.5 26.3,0.9 C36.2,-1.1 45.2,1.5 52.9,8 C53.9,8.9 53.9,9.2 53,10.1 C52.1,11 51.2,11.9 50.3,12.8 C49.5,13.6 49.2,13.6 48.3,12.9 C43.2,8.6 37.4,6.5 30.8,6.6 C18.8,6.8 8.3,16.1 6.3,27.9 C3.8,42.6 14.9,56.7 28.9,58.9 C43.8,61.2 57.3,51.7 60.1,36.9 C61.2,30.9 60.3,25.2 57.5,19.7 C57.2,19 56.8,18.3 56.5,17.7 C56.4,17.6 56.5,17.6 56.7,17.6 Z" fill="#FFFFFF"></path>
                    <path d="M32.7,30.3 C28.7,30.3 24.7,30.3 20.6,30.3 C19.9,30.3 19.6,30.1 19.6,29.4 C19.7,27.9 19.6,26.4 19.6,24.9 C19.6,24.3 19.7,24 20.4,24 C28.6,24 36.7,24 44.9,24 C45.6,24 45.7,24.2 45.7,24.8 C45.7,26.3 45.7,27.9 45.7,29.4 C45.7,30.1 45.5,30.3 44.8,30.3 C40.8,30.3 36.7,30.3 32.7,30.3 Z" fill="#FFFFFF"></path>
                    <path d="M32.7,41.2 C28.7,41.2 24.6,41.2 20.6,41.2 C19.9,41.2 19.7,41 19.7,40.3 C19.7,38.7 19.7,37.2 19.7,35.6 C19.7,35.1 19.9,34.9 20.4,34.9 C28.6,34.9 36.8,34.9 45.1,34.9 C45.7,34.9 45.8,35.2 45.8,35.7 C45.8,37.2 45.8,38.8 45.8,40.3 C45.8,41 45.6,41.2 44.9,41.2 C40.8,41.2 36.7,41.2 32.7,41.2 Z" fill="#FFFFFF"></path>
                    <path d="M56.7,17.6 C56.6,17.7 56.6,17.7 56.5,17.8 C56.4,17.6 56.1,17.4 56.3,17.3 C56.5,17.1 56.6,17.5 56.7,17.6 Z" fill="#F9D5E5"></path>
                </g>
                <g transform="translate(358.000000, 114.000000)" id="Shape" fill="#FFFFFF">
                    <path d="M30.9,22.8 C30.9,15.6 30.9,8.4 30.9,1.1 C30.9,0.4 30.7,0.1 29.9,0.1 C26,0.1 22,0.1 18.1,0.1 C17.4,0.1 17.1,0.3 17.1,1.1 C17.1,15.5 17.1,30 17.1,44.4 C17.1,45.2 17.3,45.4 18.1,45.4 C22,45.4 25.9,45.4 29.8,45.4 C30.7,45.4 30.9,45.1 30.9,44.3 C30.9,37.1 30.9,29.9 30.9,22.8 Z M21,40.5 C19.4,40.5 19.4,40.5 19.4,38.6 C19.4,36.8 19.4,36.8 21.2,36.8 C22.8,36.8 22.8,36.8 22.8,38.4 C22.8,40.5 22.8,40.5 21,40.5 Z M21,32.8 C19.4,32.8 19.4,32.8 19.4,31.1 C19.4,29.2 19.4,29.2 21.2,29.2 C22.8,29.2 22.8,29.2 22.8,31 C22.8,32.8 22.8,32.8 21,32.8 Z M21,25.2 C19.4,25.2 19.4,25.2 19.4,23.3 C19.4,21.5 19.4,21.5 21.2,21.5 C22.8,21.5 22.8,21.5 22.8,23.1 C22.8,25.2 22.8,25.2 21,25.2 Z M21.1,17.5 C19.5,17.5 19.5,17.5 19.5,15.6 C19.5,13.8 19.5,13.8 21.2,13.8 C22.9,13.8 22.9,13.8 22.9,15.6 C22.8,17.5 22.8,17.5 21.1,17.5 Z M21.1,9.9 C19.4,9.9 19.4,9.9 19.4,8.1 C19.4,6.2 19.4,6.2 21.2,6.2 C22.8,6.2 22.8,6.2 22.8,8 C22.8,9.9 22.8,9.9 21.1,9.9 Z M26.9,40.5 C25.3,40.5 25.3,40.5 25.3,38.9 C25.3,36.8 25.3,36.8 26.8,36.8 C28.6,36.8 28.6,36.8 28.6,38.7 C28.7,40.5 28.7,40.5 26.9,40.5 Z M28.7,31 C28.7,32.8 28.7,32.8 26.9,32.8 C25.4,32.8 25.4,32.8 25.4,31.2 C25.4,29.2 25.4,29.2 27.4,29.2 C28.7,29.2 28.7,29.2 28.7,30.5 L28.7,31 Z M26.9,25.2 C25.4,25.2 25.4,25.2 25.4,23.7 C25.4,21.6 25.4,21.6 27.5,21.6 C28.9,21.6 28.7,21.5 28.7,22.8 C28.7,23 28.7,23.2 28.7,23.4 C28.7,25.2 28.7,25.2 26.9,25.2 Z M28.7,15.3 C28.7,15.4 28.7,15.6 28.7,15.7 C28.7,17.5 28.7,17.5 27,17.5 C25.4,17.5 25.4,17.5 25.4,15.7 C25.4,13.8 25.4,13.8 27.3,13.8 C28.9,13.9 28.6,13.7 28.7,15.3 Z M28.7,7.3 C28.7,7.5 28.7,7.8 28.7,8 C28.7,9.9 28.7,9.9 26.8,9.9 C26.6,9.9 26.4,9.9 26.2,9.9 C25.5,10 25.4,9.7 25.4,9.1 C25.4,8.4 25.5,7.8 25.4,7.1 C25.3,6.3 25.7,6.1 26.3,6.2 C26.7,6.2 27.1,6.2 27.6,6.2 C28.4,6.1 28.9,6.3 28.7,7.3 Z"></path>
                    <path d="M46.5,26.9 C46.5,21 46.5,15.1 46.5,9.2 C46.5,8.9 46.6,8.5 46.2,8.3 C45.8,8.2 45.7,8.6 45.5,8.8 C41.4,14 37.2,19.2 33.1,24.4 C32.8,24.8 32.7,25.2 32.7,25.6 C32.7,31.9 32.7,38.1 32.7,44.4 C32.7,45.2 32.9,45.4 33.7,45.4 C37.6,45.4 41.6,45.4 45.5,45.4 C46.3,45.4 46.5,45.1 46.5,44.4 C46.4,38.6 46.5,32.8 46.5,26.9 Z M34.6,25.8 C35.8,24.2 37,22.7 38.3,21.1 C38.7,20.7 39,21 39,21.4 C39,22.2 39,23.1 39,23.9 C39,24.7 39,25.4 39,26.2 C39,26.8 38.7,27 38.2,27 C37.2,27 36.3,27 35.3,27 C34.5,27 34.1,26.4 34.6,25.8 Z M36.6,40.5 C34.2,40.5 34.2,40.5 34.4,38.1 C34.4,37.6 34.6,37.5 35.1,37.5 C36.2,37.5 37.2,37.5 38.3,37.5 C38.9,37.5 39,37.7 39,38.3 C38.9,41 39.4,40.4 36.6,40.5 Z M39,35.3 C39,35.7 38.8,36 38.4,36 C37.3,36 36.2,36 35.1,36 C34.6,36 34.4,35.8 34.5,35.3 C34.5,35.3 34.5,35.2 34.5,35.2 C34.4,32.9 34.4,32.9 36.8,32.9 L36.9,32.9 C39.2,33 39.2,33 39,35.3 Z M39,31 C38.9,31.4 38.7,31.5 38.4,31.5 C37.3,31.5 36.2,31.5 35.1,31.5 C35.1,31.5 35,31.5 35,31.5 C34,30.9 34.7,29.9 34.5,29.2 C34.4,28.8 34.5,28.4 35.1,28.4 C35.6,28.4 36.2,28.4 36.7,28.4 C36.8,28.4 36.9,28.4 37,28.4 C39,28.4 39.4,28.9 39,31 Z M41.8,16.4 C42.5,15.5 43.2,14.6 44,13.7 C44.2,13.5 44.3,13.1 44.7,13.2 C45.1,13.3 45,13.7 45,14.1 C45,14.6 45,15.1 45,15.5 C45,17.9 45,17.9 42.6,17.9 C42.1,17.9 41.4,18.2 41.1,17.7 C40.8,17.2 41.5,16.8 41.8,16.4 Z M40.4,20 C40.5,19.6 40.7,19.4 41,19.4 C42.1,19.4 43.2,19.4 44.3,19.4 C44.4,19.4 44.4,19.4 44.5,19.4 C45.5,20 44.8,21 45,21.8 C45.1,22.3 44.8,22.5 44.3,22.5 C43.8,22.5 43.2,22.5 42.7,22.5 C42.7,22.5 42.6,22.5 42.6,22.5 C40.2,22.5 40.1,22.4 40.4,20 Z M44.9,39.7 C45,40.1 44.9,40.5 44.3,40.5 C43.7,40.5 43.2,40.5 42.6,40.5 L42.6,40.5 L42.4,40.5 C40.3,40.5 40,40.1 40.4,37.9 C40.5,37.5 40.7,37.4 41,37.4 C42.1,37.4 43.2,37.4 44.3,37.4 C44.4,37.4 44.4,37.4 44.5,37.4 C45.4,38 44.8,39 44.9,39.7 Z M45,35.3 C45,35.8 44.8,36 44.3,36 C43.3,36 42.2,36.1 41.2,36 C39.7,35.8 40.7,34.6 40.5,33.9 C40.4,33.4 40.4,32.8 41.2,32.9 C41.7,32.9 42.2,32.9 42.7,32.9 L42.8,32.9 C45.2,33 45.2,33 45,35.3 Z M42.7,28.4 L42.7,28.4 C45.1,28.4 45.1,28.4 45,30.8 C45,31.3 44.8,31.5 44.3,31.5 C43.2,31.5 42.1,31.5 41.1,31.5 C40.7,31.5 40.5,31.3 40.5,30.9 C40.5,30.9 40.5,30.8 40.5,30.8 C40.2,28.4 40.2,28.4 42.7,28.4 Z M44.9,26.1 C45,26.5 45,27 44.3,27 C43.8,27 43.2,27 42.7,27 L42.6,27 C40.2,27 40.2,27 40.4,24.6 C40.4,24.2 40.5,23.9 41,23.9 C42.1,23.9 43.3,23.7 44.3,23.9 C45.6,24.2 44.7,25.4 44.9,26.1 Z"></path>
                    <path d="M62.1,32.3 C62.1,31.6 61.9,31.4 61.2,31.4 C57.1,31.4 53,31.4 49,31.4 C48.3,31.4 48.1,31.6 48.1,32.3 C48.1,34.4 48.1,36.4 48.1,38.5 C48.1,40.6 48.1,42.7 48.1,44.8 C48.1,45.4 48.3,45.6 48.9,45.6 C53,45.6 57.1,45.6 61.2,45.6 C61.9,45.6 62.1,45.4 62.1,44.7 C62,40.5 62,36.4 62.1,32.3 Z M54.4,39.8 C54.5,40.2 54.3,40.5 53.8,40.5 C53.2,40.5 52.7,40.5 52.1,40.5 L52.1,40.5 C52,40.5 52,40.5 51.9,40.5 C49.3,40.4 49.8,41 49.7,38.1 C49.7,37.6 49.9,37.4 50.3,37.5 C51.4,37.5 52.5,37.5 53.7,37.5 C53.8,37.5 53.9,37.5 54,37.5 C54.9,38.1 54.2,39 54.4,39.8 Z M54.4,35.4 C54.4,35.9 54.2,36.1 53.7,36.1 C52.6,36.1 51.5,36.1 50.4,36.1 C49.8,36.1 49.7,35.9 49.7,35.3 C49.6,33 49.6,33 52.1,33 L52.2,33 C54.6,33 54.6,33 54.4,35.4 Z M58.3,33 L58.3,33 C60.8,33 60.7,33 60.6,35.4 C60.6,35.9 60.4,36.1 59.9,36.1 C58.8,36.1 57.7,36.1 56.6,36.1 C56.1,36.1 56,35.9 56,35.4 C55.7,33 55.7,33 58.3,33 Z M60.5,39.9 C60.4,40.3 60.3,40.5 59.9,40.5 C58.8,40.5 57.6,40.7 56.5,40.5 C55.2,40.3 56.1,39.1 55.9,38.4 C55.8,38 55.8,37.5 56.5,37.5 C57.1,37.5 57.6,37.5 58.2,37.5 L58.4,37.5 C60.7,37.5 60.8,37.6 60.5,39.9 Z"></path>
                    <path d="M8.2,34.1 C10.2,34.1 12.2,34.1 14.3,34.1 C15,34.1 15.3,34.3 15.3,35.1 C15.3,38.2 15.3,41.3 15.3,44.4 C15.3,45.1 15.1,45.4 14.4,45.3 C13.3,45.2 12.3,45.3 11.2,45.3 C10.6,45.3 10.5,45.2 10.5,44.6 C10.5,42.8 10.5,41 10.5,39.3 C10.5,38.6 10.3,38.4 9.6,38.4 C8.6,38.4 7.5,38.4 6.5,38.4 C5.9,38.4 5.7,38.6 5.7,39.2 C5.7,41 5.7,42.8 5.7,44.5 C5.7,45.1 5.5,45.4 4.9,45.3 C3.9,45.2 2.8,45.3 1.8,45.3 C1.2,45.3 0.9,45.1 1,44.5 C1,41.3 1,38.2 1,35 C1,34.3 1.2,34.1 1.9,34.1 C4.1,34.2 6.1,34.1 8.2,34.1 Z"></path>
                    <path d="M8.2,33 C6.1,33 4,33 2,33 C1.7,33 1.4,33.1 1.3,32.8 C1.2,32.5 1.4,32.4 1.6,32.2 C3.7,29.5 5.7,26.8 7.8,24.1 C8.2,23.6 8.5,23.7 8.8,24.1 C10.9,26.8 13,29.5 15.1,32.2 C15.2,32.4 15.5,32.6 15.4,32.8 C15.3,33.1 14.9,33 14.7,33 C12.4,33 10.3,33 8.2,33 Z"></path>
                    <path d="M55,30.3 C52.9,30.3 50.9,30.3 48.8,30.3 C48.2,30.3 48,30.1 48,29.5 C48,27.1 48,27.1 50.3,27.1 C53.9,27.1 57.4,27.1 61,27.1 C61.8,27.1 62,27.3 62,28.1 C62,30.3 62,30.3 59.8,30.3 C58.3,30.3 56.6,30.3 55,30.3 Z"></path>
                </g>
                <path d="M496.7,146.3 C496.1,145.8 495.5,145.3 495,144.7 C494.4,144.1 494.5,143.7 495.3,143.5 C498.3,142.7 501.3,141.8 504.3,141 C505,140.8 505.4,141.1 505.3,141.8 C504.8,144.9 504.3,148.1 503.8,151.2 C503.7,151.9 503.3,152 502.7,151.6 C502.2,151.2 501.8,150.9 501.4,150.4 C500.9,149.9 500.6,150 500,150.3 C493.8,154.4 485.4,153.6 480.2,148.4 C477.8,146 476.4,143 476,139.6 C475.7,136.6 475.8,133.6 476.7,130.7 C478.6,124.6 483,121.4 489.1,120.5 C495.1,119.7 500.1,121.8 504.1,126.3 C506.8,129.3 508.8,132.7 510.6,136.3 C511.9,138.8 513.2,141.2 515.2,143.2 C517.7,145.8 520.8,147.6 524.4,147.9 C529.5,148.4 533.4,145.6 534.6,140.6 C535.2,138.2 535.2,135.7 534.7,133.3 C533.7,128.9 530.5,126.1 525.9,125.6 C522.3,125.2 519.3,126.4 516.6,128.7 C515.4,129.8 514.3,131 513.3,132.3 C512.6,133.2 512.3,133.1 511.7,132.2 C511.1,131.2 510.6,130.2 510,129.2 C509.7,128.8 509.7,128.4 510.1,128 C513.3,123.9 517.3,121.1 522.6,120.3 C531.2,119 539.2,125.2 540.1,133.8 C540.4,136.8 540.3,139.8 539.5,142.7 C537.2,150.4 529.7,154.6 521.7,152.6 C516.1,151.2 511.8,147.8 508.7,143 C507.7,141.5 506.8,139.9 506,138.3 C504.6,135.6 503.1,133.1 501.3,130.7 C499.1,127.9 496.3,126 492.7,125.5 C486.7,124.7 481.8,128.7 481.2,134.6 C481.1,136.2 481,137.8 481.3,139.4 C482.2,144.7 487.2,148.3 492.7,147.6 C494,147.6 495.4,147.2 496.7,146.3 Z" id="Shape" fill="#FFFFFF"></path>
                <g transform="translate(0.000000, 221.000000)" id="Shape" fill="#FFFFFF">
                    <path d="M69.9,17.8 C61.2,6.7 49.7,1.1 35.6,0.8 C30.5,0.8 25.7,1.6 21.3,3.2 C13.1,6.1 6.4,11 1.2,17.9 C0.8,18.4 0.8,18.7 1.2,19.1 C2.1,20.1 2.8,21.2 3.7,22.1 C14.3,33.3 27.2,37.8 42.4,35.6 C53.8,33.9 62.9,28.2 69.9,19.2 C70.3,18.7 70.3,18.4 69.9,17.8 Z M25.5,8.2 C25.9,8.2 26.1,8.4 26,8.7 C26,9.4 24.9,10.2 24.2,10 C24,9.9 23.9,9.9 23.9,9.6 C24,9.2 25.1,8.2 25.5,8.2 Z M23.2,11.2 C23.4,10.8 23.8,10.7 24.2,10.7 C24.6,10.7 25.1,10.5 25.2,11 C25.3,11.4 24.8,11.5 24.6,11.6 C24.1,11.9 23.7,12.4 23.3,12.8 C23,13 22.8,13.3 22.2,13.3 C22.4,12.4 22.8,11.8 23.2,11.2 Z M30.8,27.6 C30.4,28.7 29.7,29.4 28.6,29.6 C28.1,29.7 27.8,29.5 27.6,29 C27.5,28.8 27.5,28.6 27.5,28.5 C27.7,27.4 26.7,26.5 26.7,25.5 C26.7,25.4 26.6,25.3 26.6,25.3 C25.7,25.4 25.7,24.6 25.3,24.2 C24.8,23.7 24.3,23.6 23.6,24 C22.5,24.7 22.3,24.6 21.8,23.3 C21.2,21.6 21,19.8 21,17.9 C21,17.5 21.1,17.1 21.3,16.8 C22.2,15.6 22.3,15.5 23.9,15.8 C24.9,16 25.9,16.5 26.9,16.8 C27.6,17 28.2,16.9 28.8,16.5 C29.1,16.2 29.1,15.9 29,15.6 C28.9,15.3 28.6,15.3 28.3,15.4 C27.6,15.8 27.6,14.8 27.1,14.8 C26.9,15.1 27.3,15.4 27,15.7 C26.6,15.5 26.5,15 26.3,14.6 C26,14.1 25.7,13.9 25.2,14.3 C24.4,15 23.3,14.9 22.4,15.3 C22.1,15.5 21.9,15.2 21.8,14.9 C21.7,14.5 21.6,14.1 22.1,13.9 C22.5,13.7 23,13.7 23.4,13.9 C23.8,14.1 24.2,13.9 24.3,13.5 C24.4,12.3 25.4,12.3 26.2,12 C26.7,11.8 27.4,11.9 28,12.1 C28.7,12.3 30.2,11.6 30.4,10.9 C30.5,10.5 30.2,10.5 30,10.5 C29.5,10.5 29.4,10.9 29.1,11.2 C28.5,11.8 26.6,11.5 26.2,10.8 C26,10.5 26.1,10.2 26.4,10 C26.9,9.6 27.5,9.3 28.1,9.3 C29.2,9.2 30.3,9.1 31.4,8.8 C31.6,8.7 31.8,8.8 32,8.8 C32.2,8.8 32.4,8.8 32.5,9 C32.6,9.2 32.4,9.3 32.2,9.4 C31.9,9.6 31.6,9.7 31.3,9.9 C31.1,10 31,10.1 31.1,10.3 C31.2,10.4 31.4,10.4 31.5,10.4 C32.3,10.1 33.1,9.6 33.8,9.1 C34.2,8.8 33.8,8.6 33.6,8.5 C33,8.1 32.6,7.7 32.7,6.9 C32.7,6.3 32.2,6.3 31.7,6.2 C30.6,6 29.5,6.3 28.3,6.2 C30.6,4.8 32.9,4.2 35.4,4.1 C42,3.9 48,8.3 49.8,14.7 C49.8,14.8 49.9,15 49.9,15.1 C50,15.6 49.9,16 49.5,16.3 C49,16.6 48.6,16.4 48.2,16 C48,15.8 47.9,15.6 47.6,15.7 C47.3,15.9 47.4,16.2 47.4,16.4 C47.4,16.6 47.5,16.8 47.6,16.9 C47.9,17.4 47.8,17.7 47.3,17.9 C47,18.1 46.7,18.2 46.3,18.3 C45.3,18.6 44.9,19.6 45.3,20.5 C45.5,20.9 45.7,21.2 45.8,21.5 C45.9,21.7 45.9,21.9 45.8,22 C45.6,22.1 45.5,22.1 45.3,21.9 C44.4,21.3 43.5,20.7 43.2,19.7 C43,19.1 42.7,18.5 42.5,17.9 C42.3,17.5 42,17.3 41.5,17.4 C41,17.5 41,17.8 41,18.3 C41.1,19.4 40.5,20.1 39.6,19.9 C39.7,19.4 39.3,19.3 39,19.2 C38.4,18.9 37.8,18.7 37.2,18.5 C36.7,18.3 36.2,18.1 36.1,17.6 C35.8,16.1 34.3,16.1 33.4,15.2 C33.3,15.1 33.1,15.2 33.1,15.2 C32.9,15.4 33.1,15.5 33.2,15.7 C33.7,16.3 34.3,16.8 34.9,17.4 C35.3,17.8 35.7,18.3 35.1,18.9 C34.5,19.6 33.6,19.7 33,19.2 C32.5,18.7 32,18.1 31.4,17.5 C31.2,18.6 31.7,19.6 32.7,20.2 C34,21 34,21.2 32.9,22.2 C32.5,22.6 32.2,23.1 32.2,23.7 C32.2,24.6 32.1,25.5 31.4,26.3 C31,26.8 31,27.2 30.8,27.6 Z M46.7,21.3 C47.1,21.3 47.4,21.5 47.5,21.9 C47.6,22.3 47.2,22.2 46.9,22.3 C46.5,22.3 46.1,22.3 46,21.8 C46,21.5 46.4,21.3 46.7,21.3 Z M45.6,20.2 C45.5,20 45.7,19.8 45.9,19.8 C46.3,19.8 46.6,20.1 46.7,20.5 C46.7,20.8 46.6,20.8 46.4,20.8 C45.9,20.9 45.7,20.6 45.6,20.2 Z M39.3,20.1 C39.4,20.3 39.8,20.6 39.4,20.8 C39,21 38.7,20.9 38.3,20.7 C38.1,20.6 38,20.4 38.2,20.2 C38.4,19.9 38.8,19.8 39.1,20 C39.2,20.1 39.2,20.1 39.3,20.1 Z M33.7,23.4 C33.2,24.2 33.2,25.2 32.5,26.3 C32.3,25 32.5,24 32.9,23 C33,22.6 33.4,22.3 33.8,22.5 C34.2,22.7 33.9,23.1 33.7,23.4 Z M37.6,33 C35.8,33.3 33.9,33.2 32.1,32.7 C31.2,32.5 31.1,32.1 31.6,31.4 C32.3,30.5 33.4,30.2 34.5,30.2 C36,30.2 37.4,30.7 38.8,31.2 C39.6,31.5 40.2,31.5 40.9,30.8 C41.8,29.9 43,29.7 44.3,30.2 C42.3,31.7 40,32.6 37.6,33 Z M49.1,23.9 C48.4,25.7 47.4,27.3 46,28.6 C45.6,29 44.7,28.9 44.2,28.4 C43.9,28.1 43.7,28.4 43.5,28.6 C42.9,29 42.6,28.8 42.5,28.1 C42.4,27.5 42.1,27 42.1,26.4 C42.1,25.4 42.8,24.3 43.8,24 C44.6,23.7 45.4,23.5 46.1,23.4 C46.6,23.3 47.1,23.1 47.6,22.8 C47.9,22.6 48.2,22.1 48.6,22.5 C49.1,22.8 49.3,23.4 49.1,23.9 Z M49.8,21.5 C48.6,20.4 48.3,19.2 49,18 C49.2,17.6 49,17.3 48.9,16.9 C49.7,16.9 50.1,17.4 50.1,18.1 C50.1,19.1 50.1,20.3 49.8,21.5 Z"></path>
                </g>
                <g transform="translate(121.000000, 213.000000)" id="Shape" fill="#FFFFFF">
                    <path d="M63.3,38 C60.7,34.7 57.7,31.8 54.2,29.5 C47.2,24.7 39.6,23.1 31.4,26 C26,27.9 21.2,30.7 16.7,34.2 C16.1,34.7 15.8,34.8 15.4,34 C14.4,32.2 13,30.6 11.5,29.1 C8.9,26.7 5.8,25 2.2,24.6 C1.9,24.6 1.6,24.5 1.4,24.7 C1.2,25 1.5,25.3 1.6,25.5 C2.6,27.2 3.4,29 4.1,30.8 C5.7,34.9 6.2,39 5.1,43.3 C4.3,46.3 3.1,49.1 1.6,51.7 C1.5,51.9 1.2,52.1 1.4,52.4 C1.6,52.7 1.9,52.6 2.1,52.5 C3,52.4 3.9,52.2 4.8,52 C9.5,50.5 12.8,47.4 15.3,43.3 C15.9,42.4 15.9,42.3 16.8,43.1 C20,45.6 23.5,47.8 27.2,49.5 C31.1,51.3 35.2,52.6 39.7,52.7 C42,52.6 44.4,52.3 46.7,51.5 C53.6,49.1 58.8,44.7 63.3,39.1 C63.8,38.7 63.6,38.4 63.3,38 Z M46.9,40.1 C44.8,40.1 43.1,38.5 43,36.4 C43,34.3 44.7,32.5 46.8,32.5 C48.9,32.5 50.7,34.2 50.7,36.3 C50.7,38.4 49,40.1 46.9,40.1 Z"></path>
                    <path d="M41.9,17.1 C38,17.1 35.4,15.9 33,14.2 C32.4,13.7 32,13.7 31.3,14.2 C28.8,16.1 26,17.3 22.7,17.1 C20.1,17 17.9,15.9 16,14.2 C15.4,13.7 15.1,13.7 14.4,14.2 C12,16.3 9.3,17.6 6,17.2 C4.2,17 2.7,16.1 1.3,15 C0.9,14.7 1,14.2 1,13.8 C1,13.1 0.7,12.2 1.2,11.7 C1.7,11.3 2.4,12 3.1,12.2 C7.4,13.6 11.4,13 14.9,10 C15.4,9.6 15.7,9.5 16.2,9.9 C18.9,11.8 21.8,13 25.2,12.8 C27.6,12.6 29.7,11.7 31.5,10.1 C32,9.7 32.3,9.6 32.8,10 C36.2,13 40.1,13.5 44.4,11.9 C45.7,11.4 47,10.7 48.1,9.9 C48.6,9.5 48.9,9.5 49.3,9.9 C53.2,13.3 57.5,13.7 62.1,11.7 C63.1,11.3 63,11.3 63.2,12.4 C63.5,14.3 62.6,15.3 61,16.1 C58,17.6 55.1,17.3 52.2,15.7 C51.3,15.2 50.4,14.6 49.7,13.9 C49.2,13.4 48.9,13.4 48.4,13.9 C46.2,16 43.8,17.1 41.9,17.1 Z"></path>
                    <path d="M23.8,7.6 C20.6,7.6 18.2,6.5 16.1,4.7 C15.5,4.2 15.2,4.1 14.6,4.7 C12.3,6.7 9.8,8 6.6,7.8 C4.6,7.6 3,6.8 1.5,5.6 C1,5.2 1.2,4.7 1.2,4.3 C1.2,2.2 1.2,2.2 3.2,2.9 C7.5,4.4 11.5,3.8 15,0.7 C15.5,0.3 15.8,0.3 16.4,0.6 C18.9,2.4 21.6,3.5 24.7,3.5 C27.4,3.5 29.6,2.4 31.6,0.7 C32,0.3 32.3,0.2 32.8,0.7 C36.5,4 40.7,4.3 45.1,2.4 C46.2,1.9 47.2,1.4 48.2,0.6 C48.7,0.2 49,0.3 49.4,0.7 C51.7,2.8 54.4,3.9 57.6,3.7 C59.3,3.6 60.9,3.2 62.4,2.5 C63,2.2 63.2,2.3 63.3,3 C63.7,5.1 62.7,6.2 60.9,7.1 C57.9,8.5 55.1,8.2 52.3,6.7 C51.3,6.2 50.4,5.5 49.7,4.8 C49.3,4.4 49,4.4 48.5,4.8 C46.9,6.2 45.1,7.3 43,7.6 C39.3,8.3 36,7 33.1,4.9 C32.4,4.4 32,4.4 31.3,4.9 C28.9,6.5 26.3,7.6 23.8,7.6 Z"></path>
                </g>
                <g transform="translate(240.000000, 209.000000)" id="Shape" fill="#FFFFFF">
                    <path d="M17.9,32.9 C15.6,32.9 13.3,32.9 11,32.9 C8.1,32.9 5.9,31.6 4.6,29 C3.3,26.4 3.6,23.8 5.3,21.4 C5.6,21 5.6,20.8 5.2,20.5 C2.8,18.7 1.9,15.9 2.7,13.1 C3.5,10.4 5.9,8.5 8.8,8.4 C9.4,8.4 9.4,8.1 9.5,7.7 C10.3,3.3 13.8,0.2 18,0.1 C22.4,1.52655666e-15 26.1,2.9 27.1,7.2 C27.5,8.9 27.4,10.6 26.7,12.3 C26.4,12.9 26.5,13.2 27.2,13.4 C31.6,14.8 34.3,18.7 34.2,23.4 C34.1,27.7 31.1,31.6 26.8,32.8 C25.3,33.2 23.7,33.1 22.1,33.1 C20.8,32.9 19.3,32.9 17.9,32.9 C17.9,32.9 17.9,32.9 17.9,32.9 Z"></path>
                    <path d="M31.1,53.5 C21.2,53.5 11.2,53.5 1.3,53.5 C0.4,53.5 0.1,53.3 0.2,52.4 C0.3,51.6 0.2,50.7 0.2,49.9 C0.2,49.3 0.4,49.1 0.9,49.2 C1,49.2 1.2,49.2 1.4,49.2 C21.2,49.2 41.1,49.2 60.9,49.2 C62.1,49.2 62.1,49.2 62.1,50.4 C62.1,51.2 62.1,51.9 62.1,52.7 C62.2,53.4 61.9,53.6 61.2,53.6 C54.7,53.6 48.1,53.6 41.6,53.6 C38.1,53.5 34.6,53.5 31.1,53.5 Z"></path>
                    <path d="M31.1,61 C21.1,61 11.2,61 1.2,61 C0.3,61 0.1,60.7 0.2,59.9 C0.3,59.1 0.2,58.2 0.2,57.4 C0.2,56.8 0.4,56.6 1,56.6 C1.1,56.6 1.3,56.6 1.5,56.6 C21.3,56.6 41.1,56.6 60.9,56.6 C62.1,56.6 62.1,56.6 62.1,57.9 C62.1,58.7 62.1,59.5 62.1,60.3 C62.1,60.9 61.9,61.1 61.4,61 C61.2,61 61,61 60.9,61 C50.9,61 41,61 31.1,61 Z"></path>
                    <path d="M44.6,23.2 C46.5,23.2 48,23.7 49.4,24.7 C49.9,25.1 50.3,25.1 50.8,24.7 C54,22.6 57.3,22.7 60,25 C60.2,25.2 60.5,25.4 60.5,25.7 C60.6,26 60.5,26.2 60.3,26.4 C60.1,26.6 59.9,26.6 59.6,26.5 C56.5,25 53.7,26.1 51.2,28 C49.9,29 50.1,29 48.8,28 C46.8,26.4 44.5,25.6 41.9,26 C41.5,26.1 41.1,26.2 40.7,26.4 C40.4,26.6 40,26.9 39.7,26.4 C39.4,26 39.5,25.5 39.9,25.2 C41.4,23.9 42.9,23.2 44.6,23.2 Z"></path>
                    <path d="M21.2,40.3 C21.2,41.7 21.2,43.1 21.2,44.5 C21.2,45.1 21,45.3 20.4,45.3 C19.5,45.3 18.5,45.3 17.6,45.3 C17.1,45.3 16.8,45.1 16.9,44.6 C16.9,41.8 16.9,39 16.9,36.2 C16.9,35.6 17.2,35.5 17.7,35.5 C18.6,35.5 19.5,35.5 20.3,35.5 C21,35.5 21.3,35.7 21.2,36.4 C21.2,37.6 21.2,38.9 21.2,40.3 Z"></path>
                    <path d="M38,7.7 C39.1,7.7 40.3,8.1 41.3,8.7 C41.8,9 42.1,9 42.6,8.6 C45.1,6.7 47.9,6.7 50.1,8.4 C50.5,8.7 50.8,9 50.6,9.5 C50.3,10.1 49.9,9.7 49.5,9.6 C47.3,9 45.3,9.6 43.6,11 C42.2,12.1 42.2,12.1 40.6,11.2 C38.6,10 36.5,9.6 34.2,10.7 C33.9,10.9 33.6,10.8 33.5,10.5 C33.3,10.1 33.3,9.8 33.7,9.4 C34.8,8.4 36.2,7.7 38,7.7 Z"></path>
                    <path d="M48.6,0 C50,0 51.1,0.6 52.1,1.6 C52.6,2.2 53,2.2 53.7,2 C55.8,1.5 57.8,2.3 58.9,4 C59.1,4.4 59.3,4.8 58.9,5.1 C58.5,5.4 58.3,5.1 58,4.9 C56.4,3.8 54.7,3.8 53,4.5 C52.2,4.9 51.7,4.7 51.2,4 C50.1,2.4 48.6,1.4 46.6,1.7 C46.3,1.7 46,1.6 46,1.3 C45.9,1 46.1,0.6 46.4,0.5 C47.1,0.2 47.8,0 48.6,0 Z"></path>
                </g>
                <g transform="translate(356.000000, 207.000000)" id="Shape">
                    <path d="M61.8,48.2 C61.8,47.5 61.4,47.1 60.7,47.1 C57.1,47.1 53.4,47.1 49.8,47.1 C49,47.1 48.6,47.5 48.6,48.3 C48.6,49 48.5,49.8 48.6,50.5 C48.7,51.4 48.3,51.5 47.6,51.6 C42.2,52.5 36.7,52.2 31.2,52 C30.6,52 30.6,51.7 30.6,51.3 C30.6,49.9 30.6,48.5 30.6,47.1 C30.6,45.5 30.6,45.5 32.2,45.2 C35.4,44.6 38.5,43.6 41.2,41.5 C45.2,38.3 47,34 47.2,29 C47.3,27.3 47.1,25.5 47.4,23.8 C47.9,20.4 49.8,18.3 53.2,17.6 C53.8,17.5 54,17.6 54,18.2 C54.1,19.5 54.4,20.8 54.8,22.1 C54.9,22.4 54.9,22.7 55.4,22.6 C55.8,22.5 55.6,22.2 55.5,21.9 C55.1,20.7 54.9,19.6 54.7,18.4 C54.6,17.6 54.8,17.2 55.6,17.3 C56,17.3 56.3,17.3 56.9,17.3 C56.5,17 56.4,16.9 56.3,16.9 C54.4,15.6 54.4,15.6 55.4,13.5 C55.5,13.2 55.7,13 55.8,12.7 C56.5,11.6 57.3,10.7 58.2,9.8 C59.2,8.8 60.2,7.8 61,6.7 C61.1,6.5 61.4,6.3 61,6 C60.7,5.8 60.6,6 60.4,6.2 C59.5,7.5 58.2,8.6 57.1,9.8 C55.8,11.2 54.6,12.7 54.1,14.6 C54,15.1 53.8,15 53.5,14.7 C53,14.2 52.6,13.8 52.1,13.3 C51,12.1 49.7,11.8 48.1,12.4 C47.1,12.7 46.3,13.2 45.5,13.8 C44,14.9 42.6,16.2 41.2,17.4 C37.4,20.6 33,21 28.8,18.4 C27.3,17.5 26.1,16.3 24.9,15.2 C21.6,11.9 17.8,9.4 13,8.6 C11,8.3 9.1,8.2 6.8,8.5 C9.4,9.8 10.3,12 11,14.4 C11.3,15.5 11.6,16.5 11.9,17.6 C12.5,20.2 13,22.8 14.3,25.2 C16,28.4 18.5,30.5 22.1,31.3 C22.6,31.4 23.1,31.5 23.8,31.6 C21.7,32.3 20.5,33.8 19.1,35.1 C17.2,36.8 15.3,38.3 12.6,38.7 C11.1,38.9 9.6,38.8 8.1,38.7 C7.9,38.6 7.8,38.7 7.9,38.9 C9.6,39.7 11.2,40.7 12.7,41.7 C16,43.9 19.7,45.2 23.7,45.6 C24.3,45.7 24.4,45.9 24.4,46.4 C24.4,48 24.4,49.5 24.4,51.1 C24.4,51.8 24.2,51.9 23.6,51.9 C21.3,51.8 19,51.8 16.7,51.7 C13.1,51.6 9.6,51.6 6,51.4 C5.4,51.4 5.2,51.5 5.2,52.1 C5.2,53 5.3,53.9 5.2,54.8 C5.2,55.5 5.4,55.7 6.1,55.7 C17.3,55.4 28.6,55.2 39.8,54.9 C42.5,54.8 45.1,55.4 47.8,55.6 C48.2,55.6 48.3,55.8 48.3,56.2 C48.3,57.1 48.3,58 48.3,58.8 C48.3,59.6 48.7,60 49.4,60 C53,60 56.7,60 60.3,60 C61,60 61.4,59.6 61.4,58.9 C61.8,55.4 61.8,51.8 61.8,48.2 Z M28.3,51.9 C26.5,51.9 26.5,52 26.5,50.2 C26.5,48.9 26.5,47.6 26.5,46.3 C26.5,45.8 26.6,45.7 27.1,45.7 C28.9,45.6 28.9,45.6 28.9,47.4 L28.9,48.8 C28.9,49.6 28.9,50.4 28.9,51.2 C28.9,51.7 28.8,51.9 28.3,51.9 Z" fill="#FFFFFF"></path>
                    <path d="M55.2,64.6 C53.3,64.6 51.4,64.6 49.5,64.6 C48.2,64.6 47.5,64 47.5,62.9 C47.5,61.9 48.3,61.2 49.5,61.2 C53.3,61.2 57.2,61.2 61,61.2 C62.3,61.2 63,61.9 63,62.9 C63,64 62.3,64.6 61,64.6 C59,64.6 57.1,64.6 55.2,64.6 Z" fill="#FFFFFF"></path>
                    <path d="M55.3,42.5 C57.2,42.5 59.2,42.5 61.1,42.5 C62.3,42.5 63,43.1 63,44.1 C63,45.1 62.3,45.9 61.2,45.9 C57.2,45.9 53.3,45.9 49.3,45.9 C48.2,45.9 47.5,45.2 47.5,44.2 C47.5,43.2 48.2,42.5 49.4,42.5 C51.4,42.5 53.3,42.5 55.3,42.5 Z" fill="#FFFFFF"></path>
                    <path d="M0.7,53.5 C0.7,53.1 0.7,52.7 0.7,52.3 C0.7,50.9 1.3,50.3 2.8,50.3 C3.8,50.3 4.4,50.8 4.4,51.9 C4.5,53 4.5,54.1 4.4,55.1 C4.3,56.3 3.7,56.7 2.3,56.6 C1.3,56.6 0.7,56 0.7,54.9 C0.7,54.5 0.7,54 0.7,53.5 Z" fill="#FFFFFF"></path>
                    <path d="M61.6,4.5 C61.8,1.9 63.3,0.4 65.7,0.4 C66.2,0.4 66.4,0.5 66.4,1 C66.4,3.5 64.7,5.2 62.2,5.2 C61.5,5.3 61.6,4.9 61.6,4.5 Z" fill="#FFFFFF"></path>
                    <path d="M52.4,7.6 C52.4,6.8 52.7,6 53.1,5.3 C53.3,4.9 53.5,4.8 53.9,5.1 C56,6.4 56.5,8.8 55.1,10.7 C54.9,11 54.8,11.1 54.5,10.9 C53.3,10.1 52.4,9.1 52.4,7.6 Z" fill="#FFFFFF"></path>
                    <path d="M56,3.7 C56.1,2.7 56.3,1.3 57.1,1.2 C57.9,1 58.7,2.2 59.2,3.1 C59.8,4.2 59.5,6.2 58.7,7 C58.5,7.2 58.4,7.2 58.2,7.1 C57,6.2 56,5.3 56,3.7 Z" fill="#FFFFFF"></path>
                    <path d="M63.4,10.5 C62.2,10.5 61.4,10 60.7,9.5 C60.4,9.3 60.5,9.1 60.7,8.9 C62.1,7.2 64.3,7 65.9,8.4 C66.1,8.6 66.3,8.7 66.1,9 C65.5,9.8 64.1,10.5 63.4,10.5 Z" fill="#FEFFFF"></path>
                    <path d="M60,11.4 C61.2,11.4 62.1,12.1 62.8,13 C63,13.3 62.9,13.4 62.7,13.6 C61.1,15 58.7,14.7 57.5,13 C57.3,12.7 57.3,12.6 57.6,12.4 C58.1,11.8 59.1,11.4 60,11.4 Z" fill="#FEFFFF"></path>
                    <path d="M7.7,38.7 C7.5,38.7 7.2,38.6 7.3,38.4 C7.3,38.2 7.6,38.4 7.7,38.5 C7.8,38.6 7.8,38.6 7.7,38.7 Z" fill="#5B9CBF"></path>
                    <path d="M7.7,38.7 C7.7,38.6 7.7,38.6 7.7,38.5 C8,38.5 8.2,38.5 8.5,38.7 C8.4,38.8 8.3,38.8 8.3,38.9 C8,38.8 7.8,38.7 7.7,38.7 Z" fill="#E1EEF4"></path>
                </g>
                <path d="M539.8,230.5 C537.5,223.6 532.4,219.7 525.1,218.8 C524.4,218.7 524.1,218.4 523.8,217.8 C520.9,211.4 516,207.7 508.9,207.2 C501.4,206.7 494.8,211 491.9,218.1 C491.7,218.6 491.4,218.8 490.9,218.8 C486.5,219.2 482.8,221 479.8,224.2 C473,231.5 473.6,242.6 481.1,249.3 C481.6,249.7 481.7,250.1 481.5,250.7 C481,252.8 480.9,254.9 481.2,257.1 C482.8,269.5 496.7,276.1 507.3,269.5 C507.8,269.2 508.2,269.2 508.7,269.5 C511.4,271.1 514.3,272 517.5,272 C518.2,272 519,272 519.7,271.9 C529.8,270.5 536.5,261.1 534.4,251.1 C534.2,250.2 534.4,249.7 535.1,249 C540.4,243.7 542.2,237.5 539.8,230.5 Z M521.6,223 C521.6,223.5 521.7,224 521.7,224.5 C521.6,230.9 517.2,236.5 510.9,237.9 C510.2,238.1 509.9,238.1 509.8,237.2 C509,230.5 514.1,223.6 520.7,222.3 C521.4,222.3 521.6,222.4 521.6,223 Z M529.6,247.8 C529.9,248.4 529.7,248.5 529.3,248.7 C527.5,249.5 525.5,250 523.5,250 C518.3,249.8 514.3,247.4 511.6,243 C511.2,242.4 511.4,242.2 512,241.9 C518.4,238.8 526.3,241.5 529.6,247.8 Z M495.6,218.3 C498.3,213.3 502.4,210.6 508,210.6 C513.6,210.6 517.7,213.4 520.3,218.3 C520.5,218.6 520.6,218.9 520.1,219 C514.7,220.2 510.7,223.4 508.2,228.3 C508.2,228.3 508.1,228.4 508,228.5 C506.1,224.8 503.4,222 499.6,220.2 C498.5,219.7 497.3,219.3 496.1,219 C495.5,218.9 495.3,218.8 495.6,218.3 Z M496.5,222.8 C502.7,224.8 506.8,231.1 506,237.4 C505.9,238 505.7,238.2 505.1,238.1 C499.7,237 495,232.1 494.3,226.6 C494.2,225.9 494.2,225.2 494.1,224.8 C494.2,222.2 494.3,222.1 496.5,222.8 Z M504.2,243 C501.8,247.2 497.2,250 491.8,250 C490.3,250 488.4,249.6 486.6,248.7 C486.1,248.5 486.1,248.3 486.3,247.9 C489.6,241.7 497.5,239.1 503.9,242 C504.5,242.2 504.6,242.4 504.2,243 Z M482.5,245.8 C478.8,241.7 477.5,237 479.3,231.7 C481,226.5 484.7,223.4 490.1,222.3 C490.4,222.2 490.9,222 490.8,222.8 C490.3,228.3 492.1,233 495.9,236.9 C496,237 496.2,237.1 496.1,237.3 C494.8,237.5 493.4,237.8 492.1,238.3 C488.4,239.8 485.5,242.2 483.5,245.6 C483.2,246.2 483,246.3 482.5,245.8 Z M504.5,267 C496.4,271.4 485.9,265.9 484.7,256.7 C484.5,255.3 484.5,253.8 484.7,252.4 C484.8,252 484.8,251.7 485.3,252 C490.3,254.2 495.3,254 500.2,251.6 C500.2,251.6 500.3,251.6 500.5,251.6 C500.1,253.9 500.2,256.1 500.7,258.3 C501.4,261.2 502.7,263.9 504.7,266.1 C505.1,266.5 505.1,266.7 504.5,267 Z M508.6,263.8 C508.1,264.3 507.9,264.3 507.5,263.8 C505.1,261.1 504,258 503.9,254.5 C504,251 505.1,247.9 507.4,245.2 C507.8,244.7 508.1,244.7 508.5,245.2 C513.2,250.4 513.2,258.6 508.6,263.8 Z M516.9,268.3 C514.9,268.2 513.1,267.7 511.3,266.8 C510.9,266.6 510.7,266.5 511.1,266 C514.7,261.8 516,256.8 515.2,251.2 C517.3,252.3 519.4,253 521.7,253.2 C524.6,253.5 527.5,253.1 530.2,251.9 C530.8,251.6 531,251.7 531.1,252.4 C532.3,261.2 525.6,268.7 516.9,268.3 Z M533.3,245.8 C533,246.2 532.8,246.3 532.5,245.7 C529.7,241 525.6,238.1 520.2,237.2 C520.1,237.2 520,237.1 519.8,237.1 C521.9,235.1 523.4,232.8 524.3,230.1 C525.1,227.8 525.4,225.4 525.2,223 C525.1,222.2 525.4,222.3 525.9,222.4 C531.3,223.3 535.8,227.6 537,232.9 C538,237.8 536.7,242.1 533.3,245.8 Z" id="Shape" fill="#FFFFFF"></path>
            </g>
        </g>
    </g>
</svg>