<?xml version="1.0" encoding="UTF-8"?>
<svg width="175px" height="145px" viewBox="0 0 175 145" version="1.1" xmlns="http://www.w3.org/2000/svg" xmlns:xlink="http://www.w3.org/1999/xlink">
    <!-- Generator: Sketch 46 (44423) - http://www.bohemiancoding.com/sketch -->
    <title>Web update</title>
    <desc>Created with Sketch.</desc>
    <defs></defs>
    <g id="Page-1" stroke="none" stroke-width="1" fill="none" fill-rule="evenodd">
        <g id="Web-update" transform="translate(-1532.000000, -720.000000)" fill-rule="nonzero">
            <g id="Group-Copy-2" transform="translate(1532.000000, 720.000000)">
                <path d="M74.1,132 C74.1,131.2 74.1,130.5 74.1,129.9 C74.1,101.6 74.1,73.2 74.1,44.9 C74.1,43.7 74.1,42.8 75.4,42 C93.4,31.7 111.3,21.2 129.3,10.8 C129.5,10.7 129.7,10.6 130,10.5 C130.8,11.1 130.4,11.9 130.4,12.6 C130.4,46 130.4,79.5 130.4,112.9 C130.4,114.2 130.5,115.2 128.8,115.7 C111.1,121 93.4,126.4 75.7,131.7 C75.3,131.8 74.8,131.9 74.1,132 Z" id="Shape" fill="#FFFFFF"></path>
                <path d="M67.9,132.1 C64.2,131 60.5,129.9 56.9,128.8 C42.7,124.5 28.4,120.1 14.2,115.9 C12.8,115.5 12.1,115 12.1,113.4 C12.2,79.5 12.1,45.7 12.1,11.8 C12.1,11.5 12.1,11.1 12.2,10.8 C13,10.4 13.5,11.1 14,11.4 C31.5,21.5 48.9,31.6 66.4,41.7 C67.5,42.3 68.2,42.9 68.2,44.4 C68.1,73.3 68.2,102.2 68.2,131.1 C68,131.3 67.9,131.5 67.9,132.1 Z" id="Shape" fill="#FFFFFF"></path>
                <path d="M136.4,9.9 C138.4,11.5 139.8,12.7 141.2,13.7 C142.1,14.4 142.4,15.1 142.4,16.2 C142.4,50.9 142.4,85.6 142.4,120.4 C142.4,121.8 141.9,122.4 140.6,122.8 C119.2,129.5 97.9,136.4 76.5,143.2 C73.2,144.3 69.6,144.3 66.3,143.4 C44.8,137.5 23.4,131.5 1.9,125.6 C0.4,125.2 0,124.5 0,123 C0,87.5 0,52 0,16.6 C0,15.2 0.3,14.2 1.5,13.5 C2.9,12.5 4.3,11.4 6.1,10 C6.1,11.3 6.1,12.2 6.1,13 C6.1,48.1 6.1,83.1 6,118.2 C6,120.3 6.6,121.1 8.5,121.6 C27.8,126.9 47,132.4 66.3,137.7 C69.6,138.6 72.9,138.5 76.2,137.5 C95.4,131.2 114.5,125 133.8,118.9 C135.9,118.2 136.4,117.3 136.4,115.2 C136.3,81.3 136.4,47.4 136.4,13.5 C136.4,12.5 136.4,11.5 136.4,9.9 Z" id="Shape" fill="#FFFFFF"></path>
                <path d="M167.4,135.7 C165.3,128.3 163.2,121 161.2,113.6 C161,112.9 161.1,112.1 161.1,111.3 C161.1,81.7 161.1,52.1 161,22.5 C161,20.2 161.7,19.7 163.8,19.8 C166.6,20 169.3,20 172.1,19.8 C173.9,19.7 174.3,20.2 174.3,22 C174.2,39.6 174.3,57.2 174.3,74.8 C174.3,86.6 174.3,98.4 174.3,110.3 C174.3,112.3 174,114.3 173.5,116.2 C171.7,122.3 170,128.4 168.3,134.5 C168.1,135 168.1,135.5 167.4,135.7 Z" id="Shape" fill="#FFFFFF"></path>
                <path d="M168.2,14.8 C167.2,14.8 166.8,14.8 166.4,14.8 C163.4,14.9 161.2,15.5 161.1,12.8 C160.5,3.8 162.4,1.7 167.3,1 C170.9,0.5 174,3.4 174.2,7 C174.2,7.3 174.2,7.7 174.2,8 C174.1,10.2 174.9,13 173.8,14.3 C172.6,15.3 170,14.6 168.2,14.8 Z" id="Shape" fill="#FFFEFE"></path>
            </g>
        </g>
    </g>
</svg>