<?xml version="1.0" encoding="UTF-8"?>
<svg width="223px" height="95px" viewBox="0 0 223 95" version="1.1" xmlns="http://www.w3.org/2000/svg" xmlns:xlink="http://www.w3.org/1999/xlink">
    <!-- Generator: Sketch 45.2 (43514) - http://www.bohemiancoding.com/sketch -->
    <title>Icons web-13 copy</title>
    <desc>Created with Sketch.</desc>
    <defs></defs>
    <g id="Page-1" stroke="none" stroke-width="1" fill="none" fill-rule="evenodd">
        <g id="Icons-web-13-copy" transform="translate(2.000000, 2.000000)">
            <path d="M212.2,0.3 L7.3,0.3 C3.3,0.3 0.1,3.6 0.1,7.5 L0.1,65 C0.1,69 3.4,72.2 7.3,72.2 L28.9,72.2 C32.9,72.2 36.1,75.5 36.1,79.4 L36.1,87.3 C36.1,91.3 38.8,92.7 42.1,90.5 L63.6,76.1 C66.9,73.9 72.9,72.1 76.9,72.1 L212.2,72.1 C216.2,72.1 219.4,68.8 219.4,64.9 L219.4,7.5 C219.5,3.5 216.2,0.3 212.2,0.3" id="Shape" stroke="#000000" stroke-width="3"></path>
            <path d="M34.4444,52.9921 C41.5004,52.9921 47.7884,48.8641 47.7884,41.8081 C47.7884,36.9121 44.3324,34.6081 39.7244,32.7361 C35.1644,30.8641 33.8204,30.0961 33.8204,28.3201 C33.8204,26.6401 35.5964,24.9121 38.7164,24.9121 C41.9804,24.9121 44.2364,26.1601 46.7804,28.5121 L51.8684,23.4241 C49.0364,20.4001 45.0524,18.4321 39.2924,18.4321 C32.0924,18.4321 25.9484,22.6561 25.9484,29.5201 C25.9484,34.4641 29.8364,36.8161 34.2044,38.5921 C38.7164,40.4161 39.9164,41.3761 39.9164,43.0081 C39.9164,45.1201 37.7564,46.5121 34.7804,46.5121 C30.9404,46.5121 28.0124,44.9761 25.3724,42.0961 L19.8044,46.8001 C22.9724,50.8801 27.9644,52.9921 34.4444,52.9921 Z M59.6444,42.1921 C59.8844,45.2161 61.6604,47.2321 65.5004,47.2321 C67.4204,47.2321 69.1004,46.6561 71.2124,45.1681 L74.5724,49.6801 C72.2684,51.6001 69.0524,53.0881 64.6844,53.0881 C57.2924,53.0881 52.7804,48.7681 52.7804,41.6641 C52.7804,34.2241 58.8284,26.3041 68.0444,26.3041 C74.7164,26.3041 78.5564,30.6241 78.5564,36.3361 C78.5564,38.1601 78.0764,40.2241 77.2604,42.1921 L59.6444,42.1921 Z M60.2684,37.6321 L71.4524,37.6321 C71.5964,37.1521 71.6924,36.5761 71.6924,35.9521 C71.6924,33.8401 70.4444,32.1601 67.4684,32.1601 C64.1564,32.1601 61.4684,34.3681 60.2684,37.6321 Z M79.8044,52.5121 L87.1004,52.5121 L89.5484,43.3921 C91.3244,36.7201 95.0684,33.9361 99.9164,33.9361 L100.3004,33.9361 L102.3644,26.3041 C98.1404,25.9681 95.1644,28.1761 92.5724,31.9681 L93.9644,26.7841 L86.6684,26.7841 L79.8044,52.5121 Z M107.2604,52.7041 L104.1404,26.7841 L111.6284,26.7841 L112.7804,43.9201 L123.0044,26.7841 L130.8284,26.7841 L113.8844,52.7041 L107.2604,52.7041 Z M136.1084,23.9521 L143.7884,23.9521 L145.5644,17.4721 L137.8844,17.4721 L136.1084,23.9521 Z M128.6204,52.5121 L135.5324,26.7841 L142.8284,26.7841 L135.9164,52.5121 L128.6204,52.5121 Z M156.9884,53.0881 C161.3564,53.0881 164.0924,51.5041 166.7804,49.1041 L163.0364,44.3521 C161.1164,45.9841 159.4844,46.8961 157.2284,46.8961 C154.3964,46.8961 152.1884,44.7841 152.1884,41.4721 C152.1884,36.7201 155.7404,32.5441 159.5804,32.5441 C162.4604,32.5441 163.8524,33.9361 165.1484,35.9041 L170.7164,31.9681 C168.9404,28.8961 165.8204,26.3041 160.1564,26.3041 C151.9484,26.3041 144.9884,33.0721 144.9884,41.4721 C144.9884,48.4801 149.9804,53.0881 156.9884,53.0881 Z M177.9644,42.1921 C178.2044,45.2161 179.9804,47.2321 183.8204,47.2321 C185.7404,47.2321 187.4204,46.6561 189.5324,45.1681 L192.8924,49.6801 C190.5884,51.6001 187.3724,53.0881 183.0044,53.0881 C175.6124,53.0881 171.1004,48.7681 171.1004,41.6641 C171.1004,34.2241 177.1484,26.3041 186.3644,26.3041 C193.0364,26.3041 196.8764,30.6241 196.8764,36.3361 C196.8764,38.1601 196.3964,40.2241 195.5804,42.1921 L177.9644,42.1921 Z M178.5884,37.6321 L189.7724,37.6321 C189.9164,37.1521 190.0124,36.5761 190.0124,35.9521 C190.0124,33.8401 188.7644,32.1601 185.7884,32.1601 C182.4764,32.1601 179.7884,34.3681 178.5884,37.6321 Z" id="Service" fill="#000000"></path>
        </g>
    </g>
</svg>