<?xml version="1.0" encoding="UTF-8"?>
<svg width="122px" height="67px" viewBox="0 0 122 67" version="1.1" xmlns="http://www.w3.org/2000/svg" xmlns:xlink="http://www.w3.org/1999/xlink">
    <!-- Generator: Sketch 46 (44423) - http://www.bohemiancoding.com/sketch -->
    <title>moni</title>
    <desc>Created with Sketch.</desc>
    <defs>
        <path d="M118.176187,36.2667989 L118.176187,6.67415941 C118.176187,3.0854164 116.27529,1.19402993 112.473496,1 C43.181605,1 7.28980409,1 4.79809346,1 C0.130484189,1 0.130484189,5.82368102 0.130484189,6.67415941 C0.130484189,7.241145 0.0869894593,17.1053582 -7.10542736e-15,36.2667989" id="path-1"></path>
        <path d="M7.10542736e-15,0.651908792 L7.10542736e-15,-8.43640281 C7.10542736e-15,-11.1364028 2.50918403,-13.4364028 5.70269097,-13.4364028 L57.2550174,-13.4364028 C60.4485243,-13.4364028 65.1247309,-14.7364028 67.7479687,-16.2364028 L84.7419878,-26.2364028 C87.3652257,-27.8364028 89.5322483,-26.8364028 89.5322483,-24.0364028 L89.5322483,-18.5364028 C89.5322483,-15.8364028 92.0414323,-13.5364028 95.2349392,-13.5364028 L112.343012,-13.5364028 C115.422465,-13.5364028 118.045703,-11.3364028 118.045703,-8.53640281 L118.045703,0.651908792" id="path-3"></path>
    </defs>
    <g id="Page-1" stroke="none" stroke-width="1" fill="none" fill-rule="evenodd">
        <g id="moni" transform="translate(2.000000, 29.000000)">
            <mask id="mask-2" fill="white">
                <use xlink:href="#path-1"></use>
            </mask>
            <use id="Mask" stroke="#000000" stroke-width="3" transform="translate(59.088094, 18.633399) scale(1, -1) translate(-59.088094, -18.633399) " xlink:href="#path-1"></use>
            <mask id="mask-4" fill="white">
                <use xlink:href="#path-3"></use>
            </mask>
            <use id="Mask" stroke="#FFFFFF" stroke-width="3" xlink:href="#path-3"></use>
            <path d="M19.393703,23.250634 C16.010144,23.250634 13.4035504,22.1478444 11.749366,20.0174554 L14.6567204,17.5612422 C16.0352074,19.0650462 17.5640748,19.867075 19.5691468,19.867075 C21.1230776,19.867075 22.2509306,19.1402364 22.2509306,18.0374468 C22.2509306,17.1852912 21.6243456,16.6840232 19.268386,15.731614 C16.9876166,14.8042682 14.9574812,13.5761616 14.9574812,10.9946314 C14.9574812,7.4105652 18.1655964,5.204986 21.9251064,5.204986 C24.9327144,5.204986 27.0129766,6.2325854 28.4917172,7.8115796 L25.8349968,10.4683 C24.5066366,9.2401934 23.3286568,8.588545 21.6243456,8.588545 C19.9952246,8.588545 19.0678788,9.4908274 19.0678788,10.3680464 C19.0678788,11.2953922 19.769654,11.6964066 22.150677,12.6738792 C24.5567634,13.6513518 26.3613282,14.854395 26.3613282,17.4108618 C26.3613282,21.0951816 23.0780228,23.250634 19.393703,23.250634 Z M27.8651322,23 L32.7274318,4.703718 L36.5370686,4.703718 L34.8828842,10.969568 C35.8352934,10.1174124 37.0383366,9.3153836 38.5421406,9.3153836 C40.948227,9.3153836 42.5021578,10.7941242 42.5021578,13.225274 C42.5021578,13.977176 42.2765872,14.9295852 42.0510166,15.7817408 L40.1211348,23 L36.311498,23 L38.2915066,15.6313604 C38.3917602,15.2554094 38.4669504,14.7541414 38.4669504,14.4283172 C38.4669504,13.350591 37.7902386,12.7741328 36.6122588,12.7741328 C35.1084548,12.7741328 34.1309822,13.851859 33.7049044,15.4559166 L31.674769,23 L27.8651322,23 Z M47.6150914,23.250634 C45.2841952,23.250634 43.705201,21.74683 43.705201,19.6415044 C43.705201,16.5336428 46.2366044,14.8042682 49.4948464,14.8042682 C50.9485236,14.8042682 52.1515668,15.0549022 53.2794198,15.4057898 L53.3295466,15.230346 C53.4047368,14.9295852 53.479927,14.6288244 53.479927,14.22781 C53.479927,13.3004642 52.8282786,12.6488158 50.9485236,12.6488158 C49.6452268,12.6488158 48.34193,12.97464 47.3644574,13.3756544 L46.7629358,10.3680464 C48.1414228,9.7915882 49.845734,9.4156372 51.7505524,9.4156372 C55.359682,9.4156372 57.1893102,10.9194412 57.1893102,13.5510982 C57.1893102,14.2528734 57.0639932,14.9045218 56.8885494,15.5812336 L54.9085408,23 L51.224221,23 L51.6252354,21.4460692 C50.5475092,22.5989856 49.1940856,23.250634 47.6150914,23.250634 Z M49.2442124,20.6440404 C50.8232066,20.6440404 52.2016936,19.3908704 52.6277714,17.9371932 L52.728025,17.5863056 C52.0763766,17.3356716 51.1490308,17.110101 50.221685,17.110101 C48.6426908,17.110101 47.4897744,17.9121298 47.4897744,19.2154266 C47.4897744,20.0425188 48.1664862,20.6440404 49.2442124,20.6440404 Z M65.7860564,23.3007608 C61.8009758,23.3007608 59.3196992,20.6691038 59.3196992,17.0850376 C59.3196992,13.0748936 62.7784484,9.3153836 67.0893532,9.3153836 C71.0744338,9.3153836 73.5557104,11.9470406 73.5557104,15.5311068 C73.5557104,19.5412508 70.0969612,23.3007608 65.7860564,23.3007608 Z M65.9615002,20.0425188 C68.2923964,20.0425188 69.8212638,17.5361788 69.8212638,15.6313604 C69.8212638,13.6764152 68.643284,12.5736256 66.9139094,12.5736256 C64.5830132,12.5736256 63.0541458,15.0799656 63.0541458,16.984784 C63.0541458,18.9397292 64.2321256,20.0425188 65.9615002,20.0425188 Z M79.5959898,23.250634 C77.1899034,23.250634 75.6359726,21.7718934 75.6359726,19.3407436 C75.6359726,18.5888416 75.8615432,17.6364324 76.0871138,16.7842768 L78.0169956,9.5660176 L81.8266324,9.5660176 L79.8466238,16.9346572 C79.7463702,17.3106082 79.67118,17.8118762 79.67118,18.1377004 C79.67118,19.2154266 80.3478918,19.7918848 81.5258716,19.7918848 C83.0296756,19.7918848 84.0071482,18.7141586 84.433226,17.110101 L86.4633614,9.5660176 L90.2729982,9.5660176 L86.688932,23 L82.8792952,23 L83.2552462,21.5964496 C82.302837,22.4486052 81.0997938,23.250634 79.5959898,23.250634 Z M90.1226178,23 L93.706684,9.5660176 L97.5163208,9.5660176 L97.1403698,10.969568 C98.092779,10.1174124 99.2958222,9.3153836 100.799626,9.3153836 C103.205713,9.3153836 104.759643,10.7941242 104.759643,13.225274 C104.759643,13.977176 104.534073,14.9295852 104.308502,15.7817408 L102.37862,23 L98.5689836,23 L100.548992,15.6313604 C100.649246,15.2554094 100.724436,14.7541414 100.724436,14.4283172 C100.724436,13.350591 100.047724,12.7741328 98.8697444,12.7741328 C97.3659404,12.7741328 96.3884678,13.851859 95.96239,15.4559166 L93.9322546,23 L90.1226178,23 Z" id="Shaoun" fill="#000000"></path>
            <rect id="Rectangle-path" x="12" y="4" width="93" height="20"></rect>
        </g>
    </g>
</svg>