<?xml version="1.0" encoding="UTF-8"?>
<svg width="122px" height="68px" viewBox="0 0 122 68" version="1.1" xmlns="http://www.w3.org/2000/svg" xmlns:xlink="http://www.w3.org/1999/xlink">
    <!-- Generator: Sketch 46 (44423) - http://www.bohemiancoding.com/sketch -->
    <title>moni</title>
    <desc>Created with Sketch.</desc>
    <defs>
        <path d="M0.3,27.9883116 L0.3,18.9 C0.3,16.2 2.80918403,13.9 6.00269097,13.9 L57.5550174,13.9 C60.7485243,13.9 65.4247309,12.6 68.0479687,11.1 L85.0419878,1.1 C87.6652257,-0.5 89.8322483,0.5 89.8322483,3.3 L89.8322483,8.8 C89.8322483,11.5 92.3414323,13.8 95.5349392,13.8 L112.643012,13.8 C115.722465,13.8 118.345703,16 118.345703,18.8 L118.345703,27.9883116" id="path-1"></path>
    </defs>
    <g id="Page-1" stroke="none" stroke-width="1" fill="none" fill-rule="evenodd">
        <g id="moni" transform="translate(2.000000, 2.000000)">
            <path d="M112.643012,63.7 C115.836519,63.7 118.345703,61.4 118.345703,58.7 L118.345703,18.8 C118.345703,16 115.722465,13.8 112.643012,13.8 L95.5349392,13.8 C92.3414323,13.8 89.8322483,11.5 89.8322483,8.8 L89.8322483,3.3 C89.8322483,0.5 87.6652257,-0.5 85.0419878,1.1 L68.0479687,11.1 C65.4247309,12.6 60.7485243,13.9 57.5550174,13.9 L6.00269097,13.9 C2.80918403,13.9 0.3,16.2 0.3,18.9 L0.3,58.8 C0.3,61.4 2.92323785,63.7 6.11674479,63.7 L112.643012,63.7 Z" id="Shape" stroke="#000000" stroke-width="3"></path>
            <mask id="mask-2" fill="white">
                <use xlink:href="#path-1"></use>
            </mask>
            <use id="Shape-Copy" stroke="#FEFEFE" stroke-width="3" xlink:href="#path-1"></use>
            <rect id="Rectangle-path" mask="url(#mask-2)" x="12" y="29" width="69.3" height="20.4"></rect>
            <text id="Shaoun" fill="#000000" font-family="GothamBold-Italic, GothamBold" font-size="25.0634" font-style="italic" font-weight="bold">
                <tspan x="11" y="48">Shaoun</tspan>
            </text>
        </g>
    </g>
</svg>