<?xml version="1.0" encoding="UTF-8"?>
<svg width="108px" height="68px" viewBox="0 0 108 68" version="1.1" xmlns="http://www.w3.org/2000/svg" xmlns:xlink="http://www.w3.org/1999/xlink">
    <!-- Generator: Sketch 45.2 (43514) - http://www.bohemiancoding.com/sketch -->
    <title>Icons web-10 copy</title>
    <desc>Created with Sketch.</desc>
    <defs></defs>
    <g id="Page-1" stroke="none" stroke-width="1" fill="none" fill-rule="evenodd">
        <g id="Icons-web-10-copy" transform="translate(2.000000, 2.000000)">
            <rect id="Rectangle-path" x="17.3" y="16.7" width="69.3" height="20.4"></rect>
            <path d="M49.1144168,20.3035001 C49.897652,21.7475899 50.2892637,23.7260449 50.2892637,26.2389244 C50.2892637,28.6212647 49.9343656,30.5915611 49.2245587,32.1498728 C48.1965625,34.3853565 46.5158956,35.5030815 44.1825075,35.5030815 C42.077563,35.5030815 40.5111162,34.5893209 39.48312,32.7617722 C38.6264566,31.2360953 38.1981313,29.1882924 38.1981313,26.6183021 C38.1981313,24.6275793 38.4551264,22.9183574 38.9691245,21.490585 C39.9318511,18.8308489 41.6737073,17.5010008 44.1947455,17.5010008 C46.462864,17.5010008 48.102738,18.4351579 49.1144168,20.3035001 Z M46.8993409,31.9785409 C47.576513,30.9668622 47.9150939,29.0822308 47.9150939,26.3245903 C47.9150939,24.3338676 47.6703366,22.6960332 47.1808146,21.411038 C46.6912927,20.1260428 45.7408184,19.4835549 44.3293634,19.4835549 C43.0321301,19.4835549 42.0836955,20.0934085 41.4840311,21.3131341 C40.8843667,22.5328597 40.584539,24.3297864 40.584539,26.703968 C40.584539,28.4907232 40.7762655,29.9266328 41.1597244,31.0117398 C41.7471508,32.6679559 42.7506558,33.4960515 44.1702695,33.4960515 C45.3124875,33.4960515 46.2221688,32.9902197 46.8993409,31.9785409 Z M53.7526144,22.6164799 L53.7526144,20.9276375 C55.3435608,20.7726222 56.4531273,20.5135874 57.0813472,20.1505252 C57.709567,19.7874631 58.1786852,18.9287729 58.4887158,17.5744287 L60.2265102,17.5744287 L60.2265102,35.0258 L57.8768164,35.0258 L57.8768164,22.6164799 L53.7526144,22.6164799 Z" id="01" fill="#000000"></path>
            <path d="M5.3,0.3 L98.8,0.3 C101.6,0.3 103.8,2.6 103.8,5.3 L103.8,45.2 C103.8,48 101.5,50.2 98.8,50.2 L83.8,50.2 C81,50.2 78.8,52.5 78.8,55.2 L78.8,60.7 C78.8,63.5 76.9,64.5 74.6,62.9 L59.7,53 C57.4,51.5 53.3,50.2 50.5,50.2 L5.3,50.2 C2.5,50.2 0.3,47.9 0.3,45.2 L0.3,5.3 C0.2,2.6 2.5,0.3 5.3,0.3" id="Shape" stroke="#FFFFFF" stroke-width="3"></path>
            <path d="M30.7,0.3 L98.8,0.3 C101.6,0.3 103.8,2.6 103.8,5.3 L103.8,45.2 C103.8,48 101.5,50.2 98.8,50.2 L83.8,50.2 C81,50.2 78.8,52.5 78.8,55.2 L78.8,60.7 C78.8,63.5 76.9,64.5 74.6,62.9 L59.7,53 C57.4,51.5 53.3,50.2 50.5,50.2 L30.7,50.2" id="Shape" stroke="#000000" stroke-width="3"></path>
        </g>
    </g>
</svg>