<?xml version="1.0" encoding="UTF-8"?>
<svg width="108px" height="68px" viewBox="0 0 108 68" version="1.1" xmlns="http://www.w3.org/2000/svg" xmlns:xlink="http://www.w3.org/1999/xlink">
    <!-- Generator: Sketch 45.2 (43514) - http://www.bohemiancoding.com/sketch -->
    <title>Icons web-09 copy</title>
    <desc>Created with Sketch.</desc>
    <defs></defs>
    <g id="Page-1" stroke="none" stroke-width="1" fill="none" fill-rule="evenodd">
        <g id="Icons-web-09-copy" transform="translate(2.000000, 2.000000)">
            <rect id="Rectangle-path" x="17.3" y="16.7" width="69.3" height="18.7"></rect>
            <text id="02" fill="#000000" font-family="Helvetica" font-size="25.0634" font-weight="normal">
                <tspan x="35.1571" y="35.0248">02</tspan>
            </text>
            <path d="M98.7,0.3 L5.3,0.3 C2.5,0.3 0.3,2.6 0.3,5.3 L0.3,45.2 C0.3,48 2.6,50.2 5.3,50.2 L20.3,50.2 C23.1,50.2 25.3,52.5 25.3,55.2 L25.3,60.7 C25.3,63.5 27.2,64.5 29.5,62.9 L44.4,52.9 C46.7,51.4 50.8,50.1 53.6,50.1 L98.8,50.1 C101.6,50.1 103.8,47.8 103.8,45.1 L103.8,5.3 C103.8,2.6 101.5,0.3 98.7,0.3" id="Shape" stroke="#000" stroke-width="3"></path>
            <path d="M72.3,0.3 L5.3,0.3 C2.5,0.3 0.3,2.6 0.3,5.3 L0.3,45.2 C0.3,48 2.6,50.2 5.3,50.2 L20.3,50.2 C23.1,50.2 25.3,52.5 25.3,55.2 L25.3,60.7 C25.3,63.5 27.2,64.5 29.5,62.9 L44.4,52.9 C46.7,51.4 50.8,50.1 53.6,50.1 L72.4,50.1" id="Shape" stroke="#000000" stroke-width="3"></path>
        </g>
    </g>
</svg>