<?xml version="1.0" encoding="UTF-8"?>
<svg width="108px" height="68px" viewBox="0 0 108 68" version="1.1" xmlns="http://www.w3.org/2000/svg" xmlns:xlink="http://www.w3.org/1999/xlink">
    <!-- Generator: Sketch 46 (44423) - http://www.bohemiancoding.com/sketch -->
    <title>step-3-half</title>
    <desc>Created with Sketch.</desc>
    <defs></defs>
    <g id="Page-1" stroke="none" stroke-width="1" fill="none" fill-rule="evenodd">
        <g id="step-3-half" transform="translate(2.000000, 2.000000)">
            <rect id="Rectangle-path" x="17.3" y="16.7" width="69.3" height="20.4"></rect>
            <path d="M5.3,0.3 L98.8,0.3 C101.6,0.3 103.8,2.6 103.8,5.3 L103.8,45.2 C103.8,48 101.5,50.2 98.8,50.2 L83.8,50.2 C81,50.2 78.8,52.5 78.8,55.2 L78.8,60.7 C78.8,63.5 76.9,64.5 74.6,62.9 L59.7,53 C57.4,51.5 53.3,50.2 50.5,50.2 L5.3,50.2 C2.5,50.2 0.3,47.9 0.3,45.2 L0.3,5.3 C0.2,2.6 2.5,0.3 5.3,0.3" id="Shape" stroke="#FFFFFF" stroke-width="3"></path>
            <path d="M30.7,0.3 L98.8,0.3 C101.6,0.3 103.8,2.6 103.8,5.3 L103.8,45.2 C103.8,48 101.5,50.2 98.8,50.2 L83.8,50.2 C81,50.2 78.8,52.5 78.8,55.2 L78.8,60.7 C78.8,63.5 76.9,64.5 74.6,62.9 L59.7,53 C57.4,51.5 53.3,50.2 50.5,50.2 L30.7,50.2" id="Shape" stroke="#000000" stroke-width="3"></path>
            <path d="M46.04,34.288 C42.104,34.288 39.488,31.528 39.488,27.304 C39.488,22.408 42.8,16.912 48.488,16.912 C52.424,16.912 55.04,19.672 55.04,23.896 C55.04,28.792 51.728,34.288 46.04,34.288 Z M46.328,30.952 C49.328,30.952 51.248,26.992 51.248,23.872 C51.248,21.496 50.048,20.248 48.2,20.248 C45.2,20.248 43.28,24.208 43.28,27.328 C43.28,29.704 44.48,30.952 46.328,30.952 Z M61.088,34.288 C57.944,34.288 55.976,32.992 54.872,31.096 L57.608,29.08 C58.496,30.28 59.504,30.976 61.256,30.976 C63.056,30.976 64.424,29.848 64.424,28.624 C64.424,27.328 63.176,26.632 61.136,26.632 L60.104,26.632 L59.96,24.328 L64.904,20.368 L58.544,20.368 L59.408,17.2 L70.76,17.2 L69.992,19.984 L64.568,24.112 C66.68,24.616 68.144,25.84 68.144,28.288 C68.144,31.672 65.096,34.288 61.088,34.288 Z" id="03" fill="#000000"></path>
        </g>
    </g>
</svg>