<?xml version="1.0" encoding="UTF-8"?>
<svg width="108px" height="68px" viewBox="0 0 108 68" version="1.1" xmlns="http://www.w3.org/2000/svg" xmlns:xlink="http://www.w3.org/1999/xlink">
    <!-- Generator: Sketch 45.2 (43514) - http://www.bohemiancoding.com/sketch -->
    <title>Icons web-09 copy</title>
    <desc>Created with Sketch.</desc>
    <defs></defs>
    <g id="Page-1" stroke="none" stroke-width="1" fill="none" fill-rule="evenodd">
        <g id="Icons-web-09-copy" transform="translate(2.000000, 2.000000)">
            <rect id="Rectangle-path" x="17.3" y="16.7" width="69.3" height="18.7"></rect>
            <path d="M43.553339,35.3255608 C39.4429414,35.3255608 36.7110308,32.4432698 36.7110308,28.0321114 C36.7110308,22.9191778 40.16978,17.1796592 46.1098058,17.1796592 C50.2202034,17.1796592 52.952114,20.0619502 52.952114,24.4731086 C52.952114,29.5860422 49.4933648,35.3255608 43.553339,35.3255608 Z M43.8540998,31.8417482 C46.9870248,31.8417482 48.9920968,27.7062872 48.9920968,24.4480452 C48.9920968,21.9667686 47.7389268,20.6634718 45.809045,20.6634718 C42.67612,20.6634718 40.671048,24.7989328 40.671048,28.0571748 C40.671048,30.5384514 41.924218,31.8417482 43.8540998,31.8417482 Z M52.450846,35.0248 L53.3030016,31.8668116 L62.1754452,25.751342 C63.8797564,24.5733622 64.731912,23.620953 64.731912,22.4931 C64.731912,21.3401836 63.8797564,20.6885352 62.5263328,20.6885352 C60.9974654,20.6885352 59.719232,21.5406908 58.340745,22.869051 L55.9847854,20.4128378 C57.6890966,18.482956 59.9197392,17.229786 62.7017766,17.229786 C66.3359696,17.229786 68.6919292,19.234858 68.6919292,22.0670222 C68.6919292,24.2224746 67.6893932,25.8014688 64.5564682,27.9819846 L59.1427738,31.6913678 L66.5114134,31.6913678 L65.609131,35.0248 L52.450846,35.0248 Z" id="02" fill="#000000"></path>
            <path d="M98.7,0.3 L5.3,0.3 C2.5,0.3 0.3,2.6 0.3,5.3 L0.3,45.2 C0.3,48 2.6,50.2 5.3,50.2 L20.3,50.2 C23.1,50.2 25.3,52.5 25.3,55.2 L25.3,60.7 C25.3,63.5 27.2,64.5 29.5,62.9 L44.4,52.9 C46.7,51.4 50.8,50.1 53.6,50.1 L98.8,50.1 C101.6,50.1 103.8,47.8 103.8,45.1 L103.8,5.3 C103.8,2.6 101.5,0.3 98.7,0.3" id="Shape" stroke="#FFFFFF" stroke-width="3"></path>
            <path d="M72.3,0.3 L5.3,0.3 C2.5,0.3 0.3,2.6 0.3,5.3 L0.3,45.2 C0.3,48 2.6,50.2 5.3,50.2 L20.3,50.2 C23.1,50.2 25.3,52.5 25.3,55.2 L25.3,60.7 C25.3,63.5 27.2,64.5 29.5,62.9 L44.4,52.9 C46.7,51.4 50.8,50.1 53.6,50.1 L72.4,50.1" id="Shape" stroke="#000000" stroke-width="3"></path>
        </g>
    </g>
</svg>