<?xml version="1.0" encoding="UTF-8"?>
<svg width="108px" height="68px" viewBox="0 0 108 68" version="1.1" xmlns="http://www.w3.org/2000/svg" xmlns:xlink="http://www.w3.org/1999/xlink">
    <!-- Generator: Sketch 45.2 (43514) - http://www.bohemiancoding.com/sketch -->
    <title>Icons web-10 copy</title>
    <desc>Created with Sketch.</desc>
    <defs></defs>
    <g id="Page-1" stroke="none" stroke-width="1" fill="none" fill-rule="evenodd">
        <g id="Icons-web-10-copy" transform="translate(2.000000, 2.000000)">
            <rect id="Rectangle-path" x="17.3" y="16.7" width="69.3" height="20.4"></rect>
            <path d="M45.811139,35.3265608 C41.7007414,35.3265608 38.9688308,32.4442698 38.9688308,28.0331114 C38.9688308,22.9201778 42.42758,17.1806592 48.3676058,17.1806592 C52.4780034,17.1806592 55.209914,20.0629502 55.209914,24.4741086 C55.209914,29.5870422 51.7511648,35.3265608 45.811139,35.3265608 Z M46.1118998,31.8427482 C49.2448248,31.8427482 51.2498968,27.7072872 51.2498968,24.4490452 C51.2498968,21.9677686 49.9967268,20.6644718 48.066845,20.6644718 C44.93392,20.6644718 42.928848,24.7999328 42.928848,28.0581748 C42.928848,30.5394514 44.182018,31.8427482 46.1118998,31.8427482 Z M57.966888,35.0258 L61.7765248,35.0258 L66.5135074,17.356103 L63.8818504,17.356103 L58.3679024,18.8849704 L58.4180292,22.1682758 L61.601081,21.4414372 L57.966888,35.0258 Z" id="01" fill="#000000"></path>
            <path d="M5.3,0.3 L98.8,0.3 C101.6,0.3 103.8,2.6 103.8,5.3 L103.8,45.2 C103.8,48 101.5,50.2 98.8,50.2 L83.8,50.2 C81,50.2 78.8,52.5 78.8,55.2 L78.8,60.7 C78.8,63.5 76.9,64.5 74.6,62.9 L59.7,53 C57.4,51.5 53.3,50.2 50.5,50.2 L5.3,50.2 C2.5,50.2 0.3,47.9 0.3,45.2 L0.3,5.3 C0.2,2.6 2.5,0.3 5.3,0.3" id="Shape" stroke="#FFFFFF" stroke-width="3"></path>
            <path d="M30.7,0.3 L98.8,0.3 C101.6,0.3 103.8,2.6 103.8,5.3 L103.8,45.2 C103.8,48 101.5,50.2 98.8,50.2 L83.8,50.2 C81,50.2 78.8,52.5 78.8,55.2 L78.8,60.7 C78.8,63.5 76.9,64.5 74.6,62.9 L59.7,53 C57.4,51.5 53.3,50.2 50.5,50.2 L30.7,50.2" id="Shape" stroke="#000000" stroke-width="3"></path>
        </g>
    </g>
</svg>