<?xml version="1.0" encoding="UTF-8"?>
<svg width="108px" height="68px" viewBox="0 0 108 68" version="1.1" xmlns="http://www.w3.org/2000/svg" xmlns:xlink="http://www.w3.org/1999/xlink">
    <!-- Generator: Sketch 46 (44423) - http://www.bohemiancoding.com/sketch -->
    <title>step-1-full</title>
    <desc>Created with Sketch.</desc>
    <defs></defs>
    <g id="Page-1" stroke="none" stroke-width="1" fill="none" fill-rule="evenodd">
        <g id="step-1-full" transform="translate(2.000000, 2.000000)">
            <rect id="Rectangle-path" x="17.3" y="16.7" width="69.3" height="20.4"></rect>
            <path d="M5.3,0.3 L98.8,0.3 C101.6,0.3 103.8,2.6 103.8,5.3 L103.8,45.2 C103.8,48 101.5,50.2 98.8,50.2 L83.8,50.2 C81,50.2 78.8,52.5 78.8,55.2 L78.8,60.7 C78.8,63.5 76.9,64.5 74.6,62.9 L59.7,53 C57.4,51.5 53.3,50.2 50.5,50.2 L5.3,50.2 C2.5,50.2 0.3,47.9 0.3,45.2 L0.3,5.3 C0.2,2.6 2.5,0.3 5.3,0.3" id="Shape" stroke="#000000" stroke-width="3"></path>
            <path d="M30.7,0.3 L98.8,0.3 C101.6,0.3 103.8,2.6 103.8,5.3 L103.8,45.2 C103.8,48 101.5,50.2 98.8,50.2 L83.8,50.2 C81,50.2 78.8,52.5 78.8,55.2 L78.8,60.7 C78.8,63.5 76.9,64.5 74.6,62.9 L59.7,53 C57.4,51.5 53.3,50.2 50.5,50.2 L30.7,50.2" id="Shape" stroke="#000000" stroke-width="3"></path>
            <path d="M45.04,35.288 C41.104,35.288 38.488,32.528 38.488,28.304 C38.488,23.408 41.8,17.912 47.488,17.912 C51.424,17.912 54.04,20.672 54.04,24.896 C54.04,29.792 50.728,35.288 45.04,35.288 Z M45.328,31.952 C48.328,31.952 50.248,27.992 50.248,24.872 C50.248,22.496 49.048,21.248 47.2,21.248 C44.2,21.248 42.28,25.208 42.28,28.328 C42.28,30.704 43.48,31.952 45.328,31.952 Z M60.088,35.288 C56.944,35.288 54.976,33.992 53.872,32.096 L56.608,30.08 C57.496,31.28 58.504,31.976 60.256,31.976 C62.056,31.976 63.424,30.848 63.424,29.624 C63.424,28.328 62.176,27.632 60.136,27.632 L59.104,27.632 L58.96,25.328 L63.904,21.368 L57.544,21.368 L58.408,18.2 L69.76,18.2 L68.992,20.984 L63.568,25.112 C65.68,25.616 67.144,26.84 67.144,29.288 C67.144,32.672 64.096,35.288 60.088,35.288 Z" id="03" fill="#000000"></path>
        </g>
    </g>
</svg>