<?xml version="1.0" encoding="UTF-8"?>
<svg width="108px" height="68px" viewBox="0 0 108 68" version="1.1" xmlns="http://www.w3.org/2000/svg" xmlns:xlink="http://www.w3.org/1999/xlink">
    <!-- Generator: Sketch 45.2 (43514) - http://www.bohemiancoding.com/sketch -->
    <title>Icons web-02 copy</title>
    <desc>Created with Sketch.</desc>
    <defs></defs>
    <g id="Page-1" stroke="none" stroke-width="1" fill="none" fill-rule="evenodd">
        <g id="Icons-web-02-copy" transform="translate(2.000000, 2.000000)">
            <rect id="Rectangle-path" x="17.3" y="16.7" width="69.3" height="20.4"></rect>
            <path d="M43.553539,35.3254608 C39.4431414,35.3254608 36.7112308,32.4431698 36.7112308,28.0320114 C36.7112308,22.9190778 40.16998,17.1795592 46.1100058,17.1795592 C50.2204034,17.1795592 52.952314,20.0618502 52.952314,24.4730086 C52.952314,29.5859422 49.4935648,35.3254608 43.553539,35.3254608 Z M43.8542998,31.8416482 C46.9872248,31.8416482 48.9922968,27.7061872 48.9922968,24.4479452 C48.9922968,21.9666686 47.7391268,20.6633718 45.809245,20.6633718 C42.67632,20.6633718 40.671248,24.7988328 40.671248,28.0570748 C40.671248,30.5383514 41.924418,31.8416482 43.8542998,31.8416482 Z M52.451046,35.0247 L53.3032016,31.8667116 L62.1756452,25.751242 C63.8799564,24.5732622 64.732112,23.620853 64.732112,22.493 C64.732112,21.3400836 63.8799564,20.6884352 62.5265328,20.6884352 C60.9976654,20.6884352 59.719432,21.5405908 58.340945,22.868951 L55.9849854,20.4127378 C57.6892966,18.482856 59.9199392,17.229686 62.7019766,17.229686 C66.3361696,17.229686 68.6921292,19.234758 68.6921292,22.0669222 C68.6921292,24.2223746 67.6895932,25.8013688 64.5566682,27.9818846 L59.1429738,31.6912678 L66.5116134,31.6912678 L65.609331,35.0247 L52.451046,35.0247 Z" id="02" fill="#000000"></path>
            <path d="M5.3,0.3 L98.8,0.3 C101.6,0.3 103.8,2.6 103.8,5.3 L103.8,45.2 C103.8,48 101.5,50.2 98.8,50.2 L83.8,50.2 C81,50.2 78.8,52.5 78.8,55.2 L78.8,60.7 C78.8,63.5 76.9,64.5 74.6,62.9 L59.7,53 C57.4,51.5 53.3,50.2 50.5,50.2 L5.3,50.2 C2.5,50.2 0.3,47.9 0.3,45.2 L0.3,5.3 C0.2,2.6 2.5,0.3 5.3,0.3" id="Shape" stroke="#000000" stroke-width="3"></path>
        </g>
    </g>
</svg>