<?xml version="1.0" encoding="UTF-8"?>
<svg width="108px" height="68px" viewBox="0 0 108 68" version="1.1" xmlns="http://www.w3.org/2000/svg" xmlns:xlink="http://www.w3.org/1999/xlink">
    <!-- Generator: Sketch 46 (44423) - http://www.bohemiancoding.com/sketch -->
    <title>Icons web-05 copy</title>
    <desc>Created with Sketch.</desc>
    <defs></defs>
    <g id="Page-1" stroke="none" stroke-width="1" fill="none" fill-rule="evenodd">
        <g id="Icons-web-05-copy" transform="translate(2.000000, 2.000000)">
            <path d="M98.7,63.7 L5.3,63.7 C2.5,63.7 0.3,61.4 0.3,58.7 L0.3,18.8 C0.3,16 2.6,13.8 5.3,13.8 L20.3,13.8 C23.1,13.8 25.3,11.5 25.3,8.8 L25.3,3.3 C25.3,0.5 27.2,-0.5 29.5,1.1 L44.4,11.1 C46.7,12.6 50.8,13.9 53.6,13.9 L98.8,13.9 C101.6,13.9 103.8,16.2 103.8,18.9 L103.8,58.8 C103.8,61.4 101.5,63.7 98.7,63.7" id="Shape" stroke="#000000" stroke-width="3"></path>
            <rect id="Rectangle-path" x="17.3" y="29.1" width="69.3" height="20.4"></rect>
            <path d="M27.615103,47.608534 C31.2994228,47.608534 34.5827282,45.4530816 34.5827282,41.7687618 C34.5827282,39.212295 32.7781634,38.0092518 30.372077,37.0317792 C27.991054,36.0543066 27.2892788,35.6532922 27.2892788,34.7259464 C27.2892788,33.8487274 28.2166246,32.946445 29.8457456,32.946445 C31.5500568,32.946445 32.7280366,33.5980934 34.0563968,34.8262 L36.7131172,32.1694796 C35.2343766,30.5904854 33.1541144,29.562886 30.1465064,29.562886 C26.3869964,29.562886 23.1788812,31.7684652 23.1788812,35.3525314 C23.1788812,37.9340616 25.2090166,39.1621682 27.489786,40.089514 C29.8457456,41.0419232 30.4723306,41.5431912 30.4723306,42.3953468 C30.4723306,43.4981364 29.3444776,44.224975 27.7905468,44.224975 C25.7854748,44.224975 24.2566074,43.4229462 22.8781204,41.9191422 L19.970766,44.3753554 C21.6249504,46.5057444 24.231544,47.608534 27.615103,47.608534 Z M40.773388,41.969269 C40.898705,43.5482632 41.8260508,44.600926 43.8311228,44.600926 C44.8336588,44.600926 45.7108778,44.3001652 46.8136674,43.5231998 L48.5681054,45.8791594 C47.3650622,46.8816954 45.6858144,47.6586608 43.405045,47.6586608 C39.5452814,47.6586608 37.1893218,45.4029548 37.1893218,41.6935716 C37.1893218,37.8087446 40.3473102,33.6732836 45.159483,33.6732836 C48.6432956,33.6732836 50.6483676,35.9289896 50.6483676,38.9115342 C50.6483676,39.8639434 50.3977336,40.9416696 49.9716558,41.969269 L40.773388,41.969269 Z M41.0992122,39.588246 L46.9389844,39.588246 C47.0141746,39.337612 47.0643014,39.0368512 47.0643014,38.711027 C47.0643014,37.6082374 46.412653,36.7310184 44.8587222,36.7310184 C43.1293476,36.7310184 41.7257972,37.8839348 41.0992122,39.588246 Z M51.300016,47.3579 L55.1096528,47.3579 L57.1397882,39.8138166 C57.565866,38.209759 58.5433386,37.1320328 60.0471426,37.1320328 C61.2251224,37.1320328 61.9018342,37.708491 61.9018342,38.7862172 C61.9018342,39.1120414 61.826644,39.6133094 61.7263904,39.9892604 L59.7463818,47.3579 L63.5560186,47.3579 L65.4859004,40.1396408 C65.711471,39.2874852 65.9370416,38.335076 65.9370416,37.583174 C65.9370416,35.1520242 64.3831108,33.6732836 61.9770244,33.6732836 C60.4732204,33.6732836 59.2701772,34.4753124 58.317768,35.327468 L58.693719,33.9239176 L54.8840822,33.9239176 L51.300016,47.3579 Z M73.0550472,47.608534 C70.1226294,47.608534 67.8919868,45.478145 67.8919868,41.843952 C67.8919868,37.081906 71.5261798,33.6732836 75.3107532,33.6732836 C77.4160788,33.6732836 78.6441854,34.5505026 79.5214044,35.8788628 L81.3259692,29.061618 L85.135606,29.061618 L80.248243,47.3579 L76.4386062,47.3579 L76.8396206,45.9042228 C75.6867042,46.981949 74.5588512,47.608534 73.0550472,47.608534 Z M74.6340414,44.4004188 C76.739367,44.4004188 78.6943122,42.2950932 78.6943122,39.7386264 C78.6943122,38.0343152 77.491269,36.8813988 75.8120212,36.8813988 C73.7568224,36.8813988 71.8269406,38.8864708 71.8269406,41.593318 C71.8269406,43.347756 72.9297302,44.4004188 74.6340414,44.4004188 Z" id="Send" fill="#000000"></path>
        </g>
    </g>
</svg>