<?xml version="1.0" encoding="UTF-8"?>
<svg width="25px" height="21px" viewBox="0 0 25 21" version="1.1" xmlns="http://www.w3.org/2000/svg" xmlns:xlink="http://www.w3.org/1999/xlink">
    <!-- Generator: Sketch 46 (44423) - http://www.bohemiancoding.com/sketch -->
    <title>twitter</title>
    <desc>Created with Sketch.</desc>
    <defs></defs>
    <g id="Page-1" stroke="none" stroke-width="1" fill="none" fill-rule="evenodd">
        <g id="twitter" transform="translate(0.000000, 1.000000)" stroke="#000000">
            <path d="M0.1,17.1 C2.3,18.5 4.8,19.3 7.6,19.3 C16.7,19.3 21.8,11.6 21.5,4.8 C22.5,4.1 23.3,3.3 23.9,2.3 C23,2.7 22.1,2.9 21.1,3.1 C22.1,2.5 22.9,1.5 23.2,0.4 C22.3,1 21.2,1.4 20.1,1.6 C19.2,0.6 18,0 16.6,0 C13.4,0 11.1,2.9 11.8,6 C7.7,5.8 4.1,3.9 1.7,0.9 C0.4,3.1 1,6 3.2,7.4 C2.4,7.4 1.6,7.2 1,6.8 C0.9,9.1 2.6,11.2 4.9,11.6 C4.2,11.8 3.5,11.8 2.7,11.7 C3.3,13.6 5.1,15.1 7.3,15.1 C5.3,16.7 2.7,17.4 0.1,17.1 Z" id="Shape"></path>
        </g>
    </g>
</svg>