<?xml version="1.0" encoding="UTF-8"?>
<svg width="93px" height="100px" viewBox="0 0 93 100" version="1.1" xmlns="http://www.w3.org/2000/svg" xmlns:xlink="http://www.w3.org/1999/xlink">
    <!-- Generator: Sketch 45.2 (43514) - http://www.bohemiancoding.com/sketch -->
    <title>Group</title>
    <desc>Created with Sketch.</desc>
    <defs></defs>
    <g id="Page-1" stroke="none" stroke-width="1" fill="none" fill-rule="evenodd">
        <g id="Icons-web-01-copy" transform="translate(-502.000000, -52.000000)" fill-rule="nonzero" fill="#000000">
            <g id="Group" transform="translate(502.000000, 51.637820)">
                <g id="Shape">
                    <path d="M92.1,80.9 L70.8,50.8 L68.8,43.6 C68.7,43.1 68.1,42.7 67.6,42.8 C65.3,43.4 62.9,44 60.6,44.7 L57.8,45.5 L57.8,27.3 L63.7,32.2 C63.9,32.4 64.2,32.5 64.5,32.4 C64.8,32.4 65.1,32.2 65.2,32 L74.2,20.4 C74.4,20.2 74.4,19.9 74.4,19.6 C74.3,19.3 74.2,19 74,18.9 L57.3,7.3 C57.1,7.2 56.9,7.1 56.7,7.1 L53.3,7.1 L48.5,1.1 C48.3,0.9 48,0.7 47.6,0.7 L26.8,0.7 C26.6,0.8 26.4,0.9 26.2,1.1 L21.4,7.1 L18.1,7.1 C17.9,7.1 17.7,7.1 17.5,7.3 L0.8,18.9 C0.6,19.1 0.4,19.3 0.4,19.6 C0.3,19.9 0.4,20.2 0.6,20.4 L9.6,32 C9.9,32.4 10.6,32.5 11.1,32.2 L17.1,28.2 L17.1,53.2 C17.1,53.8 17.6,54.3 18.2,54.3 L29.5,54.3 L31.4,61.4 L31.4,61.4 L28,98.1 C28,98.4 28.1,98.7 28.4,99 C28.7,99.2 29,99.4 29.3,99.3 C30.4,99.2 31.6,99 32.8,98.8 C34,98.6 35.2,98.4 35.9,98.4 L36.1,98.4 L36.1,98.6 C36.1,98.9 36.2,99.2 36.4,99.4 C36.6,99.6 36.9,99.7 37.2,99.7 L44.2,99.2 L44.2,99.4 C44.3,99.7 44.4,99.9 44.7,100.1 C45,100.3 45.3,100.3 45.5,100.3 L54.4,97.9 L54.5,98.1 C54.7,98.6 55.3,99 55.8,98.8 L68.2,95.5 C68.7,95.3 69.1,94.7 68.9,94.2 L68.8,94 L77.7,91.6 C78,91.5 78.2,91.3 78.4,91 C78.5,90.7 78.5,90.3 78.4,90.1 L78.3,89.9 L78.5,89.8 C80.1,88.9 82.8,87.8 84.6,87.1 C84.9,87 85.1,86.8 85.2,86.5 C85.3,86.2 85.3,85.9 85.2,85.6 L85.1,85.4 L91.5,82.6 C91.8,82.5 92,82.2 92.1,81.9 C92.3,81.5 92.3,81.2 92.1,80.9 Z M48.8,4.7 L52.1,8.8 L45.1,15.8 L39.9,12.9 L48.8,4.7 Z M47.6,2.9 L37.3,12.3 L27.3,2.9 L47.6,2.9 Z M26.2,4.8 L34.9,13 L30,15.9 L23,8.9 L26.2,4.8 Z M19.3,52.1 L19.3,26.2 C19.3,25.8 19.1,25.5 18.7,25.3 C18.3,25.1 17.9,25.1 17.6,25.3 L10.7,29.9 L3,20 L18.5,9.3 L20.3,9.3 L29,18 C29.3,18.3 29.9,18.4 30.3,18.2 L33.3,16.4 L35.3,15.3 L37.3,14.1 L37.4,14.2 C37.8,14.5 38.3,14.7 38.8,15 L39.6,15.4 L41.6,16.5 L44.8,18.2 C45.2,18.4 45.8,18.3 46.1,18 L54.8,9.3 L56.7,9.3 L72.2,20 L64.6,29.8 L57.7,24.1 C57.4,23.8 56.9,23.9 56.6,24 C56.3,24.1 56,24.5 56,24.9 L56,46 L33.2,52.1 L19.3,52.1 L19.3,52.1 Z M37.6,61.4 L36.3,96 L30.4,97 L33.6,62.3 L37.7,61.2 L37.6,61.4 Z M38.3,97.5 L39.8,60.5 L43.9,59.4 L43.9,59.6 L44.2,97 L38.3,97.5 Z M33.3,60 L31.9,54.6 L67.1,45.2 L68.6,50.6 L33.3,60 Z M46.4,97.8 L46,58.8 L46.6,58.7 L46.6,58.9 L54,95.7 L46.4,97.8 Z M56.4,96.4 L48.7,58.1 L54.2,56.6 L54.3,56.8 L66.7,93.7 L56.4,96.4 Z M68.3,91.9 L56.3,56 L56.9,55.9 L57,56 L76.1,89.8 L68.3,91.9 Z M77.8,88 L59,55.3 L63.1,54.2 L63.2,54.3 L82.9,85.4 L77.8,88 Z M84.1,83.5 L84,83.4 L65.2,53.7 L69.3,52.6 L69.4,52.7 L89.5,81.1 L84.1,83.5 Z"></path>
                </g>
            </g>
        </g>
    </g>
</svg>