<?xml version="1.0" encoding="UTF-8"?>
<svg width="90px" height="101px" viewBox="0 0 90 101" version="1.1" xmlns="http://www.w3.org/2000/svg" xmlns:xlink="http://www.w3.org/1999/xlink">
  <!-- Generator: Sketch 45.2 (43514) - http://www.bohemiancoding.com/sketch -->
  <title>Group</title>
  <desc>Created with Sketch.</desc>
  <defs></defs>
  <g id="Page-1" stroke="none" stroke-width="1" fill="none" fill-rule="evenodd">
    <g id="Group" fill-rule="nonzero" fill="#000">
      <path
        d="M17.4,100.3 C8.3,100.3 0.9,92.9 0.9,83.8 C0.9,74.7 8.3,67.3 17.4,67.3 C26.5,67.3 33.9,74.7 33.9,83.8 C33.9,92.9 26.5,100.3 17.4,100.3 Z M17.4,69.6 C9.6,69.6 3.2,76 3.2,83.8 C3.2,91.6 9.6,98 17.4,98 C25.2,98 31.6,91.6 31.6,83.8 C31.6,76 25.2,69.6 17.4,69.6 Z"
        id="Shape"></path>
      <path
        d="M17.4,91.1 C13.4,91.1 10.1,87.8 10.1,83.8 C10.1,79.8 13.4,76.5 17.4,76.5 C21.4,76.5 24.7,79.8 24.7,83.8 C24.6,87.8 21.4,91.1 17.4,91.1 Z M17.4,78.8 C14.6,78.8 12.4,81 12.4,83.8 C12.4,86.6 14.6,88.8 17.4,88.8 C20.2,88.8 22.4,86.6 22.4,83.8 C22.4,81.1 20.1,78.8 17.4,78.8 Z"
        id="Shape"></path>
      <path
        d="M88,88 L88,88 L32.4,88 C32.1,88 31.7,87.8 31.5,87.6 C31.3,87.3 31.2,87 31.3,86.7 C31.5,85.8 31.6,84.8 31.6,83.9 C31.6,82.9 31.5,82 31.3,81.1 C31.2,80.8 31.3,80.4 31.5,80.2 C31.7,79.9 32,79.8 32.4,79.8 L88,79.8 C88.6,79.8 89.1,80.3 89.1,80.9 L89.1,87 C89.1,87.3 89,87.6 88.8,87.8 C88.6,87.9 88.3,88 88,88 Z M33.7,85.7 L86.8,85.7 L86.8,81.8 L33.7,81.8 C33.8,82.4 33.8,83.1 33.8,83.7 C33.9,84.5 33.8,85.1 33.7,85.7 Z"
        id="Shape"></path>
      <path
        d="M20.4,69.9 C20.3,69.9 20.2,69.9 20.2,69.9 C18.3,69.5 16.4,69.5 14.5,69.9 C14.2,70 13.8,69.9 13.6,69.7 C13.3,69.5 13.2,69.2 13.2,68.8 L13.2,19.4 C13.2,13.3 8.2,8.3 2.1,8.3 C1.5,8.3 1,7.8 1,7.2 L1,1.1 C1,0.5 1.5,2.13162821e-14 2.1,2.13162821e-14 C12.9,2.13162821e-14 21.7,8.8 21.7,19.6 L21.7,69 C21.7,69.3 21.5,69.7 21.3,69.9 C20.9,69.8 20.7,69.9 20.4,69.9 Z M17.4,67.3 C18,67.3 18.7,67.3 19.3,67.4 L19.3,19.4 C19.3,10.3 12.2,2.7 3.2,2.2 L3.2,6 C10.1,6.6 15.5,12.4 15.5,19.4 L15.5,67.5 C16.1,67.4 16.7,67.3 17.4,67.3 Z"
        id="Shape"></path>
      <path d="M45,45.1 L20.4,45.1 C19.8,45.1 19.3,44.6 19.3,44 L19.3,19.4 C19.3,18.8 19.8,18.3 20.4,18.3 L45,18.3 C45.6,18.3 46.1,18.8 46.1,19.4 L46.1,44 C46.1,44.5 45.6,45.1 45,45.1 Z M21.6,42.8 L43.9,42.8 L43.9,20.5 L21.6,20.5 L21.6,42.8 Z" id="Shape"></path>
      <path d="M63.4,45.1 L45,45.1 C44.4,45.1 43.9,44.6 43.9,44 L43.9,25.5 C43.9,24.9 44.4,24.4 45,24.4 L63.4,24.4 C64,24.4 64.5,24.9 64.5,25.5 L64.5,43.9 C64.5,44.5 64,45.1 63.4,45.1 Z M46.1,42.8 L62.2,42.8 L62.2,26.6 L46.1,26.6 L46.1,42.8 Z" id="Shape"></path>
      <path
        d="M75.7,81.9 L32.4,81.9 C31.9,81.9 31.4,81.5 31.3,81 C30.2,75.4 25.8,71.1 20.2,69.9 C19.7,69.8 19.3,69.3 19.3,68.8 L19.3,43.9 C19.3,43.3 19.8,42.8 20.4,42.8 L75.7,42.8 C76.3,42.8 76.8,43.3 76.8,43.9 L76.8,80.7 C76.8,81.4 76.3,81.9 75.7,81.9 Z M33.3,79.6 L74.5,79.6 L74.5,45 L21.5,45 L21.5,67.8 C27.3,69.4 31.8,73.9 33.3,79.6 Z"
        id="Shape"></path>
    </g>
  </g>
</svg>
