<?xml version="1.0" encoding="UTF-8"?>
<svg width="117px" height="71px" viewBox="0 0 117 71" version="1.1" xmlns="http://www.w3.org/2000/svg" xmlns:xlink="http://www.w3.org/1999/xlink">
    <!-- Generator: Sketch 45.2 (43514) - http://www.bohemiancoding.com/sketch -->
    <title>logo-dark</title>
    <desc>Created with Sketch.</desc>
    <defs></defs>
    <g id="Page-1" stroke="none" stroke-width="1" fill="none" fill-rule="evenodd">
        <g id="logo-dark" fill-rule="nonzero" fill="#fff">
            <path d="M110.8,0.1 L6.5,0.1 C3.4,0.1 0.9,2.6 0.9,5.7 L0.9,50.2 C0.9,53.3 3.4,55.8 6.5,55.8 L23.2,55.8 C26.3,55.8 28.8,58.3 28.8,61.4 L28.8,67.5 C28.8,70.6 30.9,71.7 33.5,70 L50.1,58.9 C52.7,57.2 57.3,55.8 60.4,55.8 L110.9,55.8 C114,55.8 116.5,53.3 116.5,50.2 L116.5,5.7 C116.4,2.6 113.9,0.1 110.8,0.1 L110.8,0.1 Z M30.9,32.2 L28.1,42.5 L21.2,42.5 L24.2,31.5 L18.5,14.8 L26.1,14.8 L29.1,25.3 L37.8,14.8 L46.2,14.8 L30.9,32.2 Z M71.8,21 L57.7,21 L56.5,25.5 L68.9,25.5 L67.2,31.6 L54.8,31.6 L53.5,36.3 L67.9,36.3 L66.2,42.5 L45.1,42.5 L52.6,14.8 L73.6,14.8 L71.8,21 Z M87.1,23.4 C87.2,23.6 87.4,23.8 87.7,24 C88,24.2 88.5,24.5 89.1,24.8 C89.7,25.1 90.5,25.4 91.4,25.8 C92.3,26.2 93.2,26.6 94,27.1 C94.8,27.5 95.5,28.1 96.1,28.7 C96.7,29.3 97.2,30 97.6,30.8 C98,31.6 98.1,32.5 98.1,33.6 C98.1,35.1 97.8,36.4 97.2,37.6 C96.6,38.8 95.8,39.8 94.7,40.6 C93.7,41.4 92.5,42 91.2,42.4 C89.9,42.8 88.5,43 87,43 C81.6,43 77.6,41.3 75,37.9 L74.7,37.5 L79.9,33.1 L80.2,33.4 C81.2,34.5 82.3,35.3 83.5,35.9 C84.6,36.5 85.9,36.7 87.4,36.7 C88.5,36.7 89.4,36.5 90.1,36 C90.7,35.6 91,35.1 91,34.4 C91,34.2 91,33.9 90.8,33.7 C90.7,33.5 90.5,33.3 90.2,33.1 C89.9,32.8 89.4,32.6 88.9,32.3 C88.3,32 87.6,31.7 86.7,31.3 C85.8,30.9 85,30.5 84.2,30.1 C83.4,29.7 82.6,29.1 82,28.5 C81.3,27.9 80.8,27.2 80.4,26.4 C80,25.6 79.8,24.7 79.8,23.6 C79.8,22.2 80.1,20.8 80.7,19.7 C81.3,18.6 82.1,17.6 83.1,16.8 C84.1,16 85.3,15.4 86.6,15 C87.9,14.6 89.3,14.4 90.8,14.4 C93.2,14.4 95.2,14.8 96.9,15.5 C98.6,16.2 100,17.3 101.2,18.5 L101.5,18.8 L96.8,23.5 L96.4,23.2 C95.4,22.3 94.5,21.6 93.5,21.1 C92.6,20.7 91.5,20.4 90.3,20.4 C89.2,20.4 88.3,20.6 87.7,21.1 C87.1,21.6 86.9,22.1 86.9,22.6 C86.9,23 86.9,23.2 87.1,23.4 L87.1,23.4 Z" id="Shape"></path>
        </g>
    </g>
</svg>