<svg version="1" xmlns="http://www.w3.org/2000/svg" width="154.667" height="154.667" viewBox="0 0 116.000000 116.000000"><path d="M3.2 23.4c-.9.5-2 1.4-2.4 2C.4 26 0 37.3 0 50.6 0 69.7.3 75 1.4 76.5c1.2 1.7 2.8 2 11.8 2.1 12.4.2 11.3 0 13.2 2 1 .9 1.6 3.3 1.6 6.2 0 2.6.4 5.3.9 6.1 1 1.6 2.4 1 12.6-5.9 13.1-8.8 10.5-8.3 42.9-8.5 27.1-.1 28.9-.2 30.2-2 1.1-1.5 1.4-7 1.4-26.1 0-20.7-.2-24.5-1.6-25.8-.8-.9-1.8-1.7-2.2-1.7-3.7-.7-107.7-.2-109 .5zm21.9 14.5c.3.1 1.1 2.4 1.9 5.3 1.3 5.1 1.3 5.2 3 3 6.2-7.6 7.2-8.4 10.3-8.7 4.3-.2 4.9.2 2.9 2.3-7.9 8.1-12.9 14.8-14.2 19.5-1.4 4.7-1.9 5.2-4.8 5.5-3.6.4-3.7.3-1.8-5.9 1.3-4.3 1.2-5-1.5-13-1.6-4.6-2.9-8.4-2.9-8.5 0-.1 6.1.4 7.1.5zm46.7 1.4c.6 3.2-1.4 4.3-8.2 4.2-5.7-.1-6.7.2-7.2 1.8-.8 2.6.5 3.2 6.6 3.1 4.1-.1 5 .1 4.6 1.3-.3.8-.6 2.1-.6 2.9 0 1.1-1.5 1.4-6.4 1.4s-6.5.4-7 1.6c-1.2 3.1-.5 3.4 6.5 3.4 6.1 0 7 .2 6.5 1.6-.3.9-.6 2.2-.6 3 0 1.1-2.1 1.4-10.5 1.4-5.8 0-10.5-.3-10.5-.8 0-.4 1.1-4.8 2.4-9.7 1.4-5 2.9-10.8 3.5-13l1.1-4h9.7c8.6 0 9.8.2 10.1 1.8zm24.8-.7c4 1.9 4.1 2.4 1.4 4.9-1.7 1.6-2.4 1.6-4.4.5-2.8-1.4-7.9-.6-7.4 1.3.2.7 1.9 1.9 3.7 2.9 7.9 4 9.3 8.8 4.2 13.9-2.4 2.4-3.8 2.9-7.6 2.9-5.2 0-11.5-2.5-11.5-4.6 0-.7 1-2 2.2-2.8 1.8-1.3 2.4-1.3 3.7-.2 2.5 2.1 5.8 2.5 7.8 1.1 2.1-1.6 1.3-2.8-3.8-5.3-4.8-2.4-6.6-6-5-10 2.3-5.5 10.1-7.7 16.7-4.6z"/></svg>