<?xml version="1.0" encoding="UTF-8"?>
<svg width="175px" height="78px" viewBox="0 0 175 78" version="1.1" xmlns="http://www.w3.org/2000/svg" xmlns:xlink="http://www.w3.org/1999/xlink">
    <!-- Generator: Sketch 45.2 (43514) - http://www.bohemiancoding.com/sketch -->
    <title>Icons web-07 copy</title>
    <desc>Created with Sketch.</desc>
    <defs></defs>
    <g id="Page-1" stroke="none" stroke-width="1" fill="none" fill-rule="evenodd">
        <g id="Icons-web-07-copy" transform="translate(1.000000, 1.000000)">
            <path d="M166.6,0.6 L6.8,0.6 C3.5,0.6 0.9,3.3 0.9,6.5 L0.9,53.5 C0.9,56.8 3.6,59.4 6.8,59.4 L24.4,59.4 C27.7,59.4 30.3,62.1 30.3,65.3 L30.3,71.8 C30.3,75.1 32.5,76.2 35.2,74.4 L52.8,62.7 C55.5,60.9 60.4,59.4 63.6,59.4 L166.5,59.4 C169.8,59.4 172.4,56.7 172.4,53.5 L172.4,6.5 C172.6,3.3 169.9,0.6 166.6,0.6" id="Shape" stroke="#000000" stroke-width="3"></path>
            <rect id="Rectangle-path" x="14.9" y="16.6" width="145.1" height="26.7"></rect>
            <path d="M15.6957236,42.3163 L22.31526,17.66909 L27.948908,17.66909 L31.5051483,28.0913388 L40.6950366,17.66909 L46.96247,17.66909 L40.3429336,42.3163 L34.8501268,42.3163 L39.1457834,26.2251929 L29.4981612,36.7530726 L29.35732,36.7530726 L25.4137664,26.3308238 L21.1181098,42.3163 L15.6957236,42.3163 Z M43.8287533,42.3163 L61.04659,17.4930385 L66.2577144,17.4930385 L70.1660577,42.3163 L64.6028303,42.3163 L63.8282037,36.7882829 L53.4059549,36.7882829 L49.6736631,42.3163 L43.8287533,42.3163 Z M56.6453025,31.9996821 L63.1944183,31.9996821 L62.0676887,23.8661028 L56.6453025,31.9996821 Z M73.1941435,42.3163 L79.8136799,17.66909 L88.7923064,17.66909 C92.4541776,17.66909 94.9541089,18.4789269 96.608993,20.133811 C97.8413535,21.3661715 98.5103492,23.0914762 98.5103492,25.0984633 C98.5103492,29.5349611 95.7991561,32.6686778 90.5528214,33.9010383 L94.7428471,42.3163 L88.5810446,42.3163 L84.7783322,34.4291928 L80.7291477,34.4291928 L78.6165297,42.3163 L73.1941435,42.3163 Z M82.0319288,29.640592 L86.8557399,29.640592 C90.2359287,29.640592 92.8414909,28.2673903 92.8414909,25.5561972 C92.8414909,24.71115 92.5950188,24.1125749 92.0668643,23.5844204 C91.3978686,22.9154247 90.2007184,22.5633217 88.4754137,22.5633217 L83.933285,22.5633217 L82.0319288,29.640592 Z M103.087688,42.3163 L108.369233,22.6689526 L100.869439,22.6689526 L102.207431,17.66909 L122.629405,17.66909 L121.291413,22.6689526 L113.791619,22.6689526 L108.510074,42.3163 L103.087688,42.3163 Z M119.988632,42.3163 L126.608169,17.66909 L132.030555,17.66909 L125.411018,42.3163 L119.988632,42.3163 Z M131.572821,42.3163 L138.192357,17.66909 L143.19222,17.66909 L150.375121,33.3376735 L154.600357,17.66909 L159.952323,17.66909 L153.332786,42.3163 L148.720237,42.3163 L141.255653,26.1547723 L136.924786,42.3163 L131.572821,42.3163 Z" id="MARTIN" fill="#000000"></path>
        </g>
    </g>
</svg>