<?xml version="1.0" encoding="UTF-8"?>
<svg width="123px" height="70px" viewBox="0 0 123 70" version="1.1" xmlns="http://www.w3.org/2000/svg" xmlns:xlink="http://www.w3.org/1999/xlink">
    <!-- Generator: Sketch 45.2 (43514) - http://www.bohemiancoding.com/sketch -->
    <title>Icons web-06 copy</title>
    <desc>Created with Sketch.</desc>
    <defs></defs>
    <g id="Page-1" stroke="none" stroke-width="1" fill="none" fill-rule="evenodd">
        <g id="Icons-web-06-copy" transform="translate(1.000000, 1.000000)">
            <path d="M113.999931,0.7 L6.34548559,0.7 C3.17274279,0.7 0.547024619,3.1 0.547024619,6 L0.547024619,47.9 C0.547024619,50.8 3.17274279,53.2 6.34548559,53.2 L23.5220586,53.2 C26.6948014,53.2 29.3205196,55.6 29.3205196,58.5 L29.3205196,64.3 C29.3205196,67.2 31.5086181,68.3 34.1343363,66.6 L51.3109093,56.1 C53.9366275,54.5 58.7504441,53.2 61.9231869,53.2 L113.999931,53.2 C117.172673,53.2 119.798392,50.8 119.798392,47.9 L119.798392,6 C119.798392,3 117.172673,0.7 113.999931,0.7" id="Shape" stroke="#000000" stroke-width="3"></path>
            <rect id="Rectangle-path" x="12.6909712" y="15.4" width="94.9634739" height="23.4"></rect>
            <path d="M8.210371,36 L23.563504,13.865115 L28.21026,13.865115 L31.695327,36 L26.734601,36 L26.043867,31.070671 L16.750355,31.070671 L13.422273,36 L8.210371,36 Z M19.638879,26.800679 L25.478721,26.800679 L24.474017,19.547972 L19.638879,26.800679 Z M34.395469,36 L40.298105,14.0221 L44.756479,14.0221 L51.161467,27.993765 L54.929107,14.0221 L59.701451,14.0221 L53.798815,36 L49.685808,36 L43.029644,21.588777 L39.167813,36 L34.395469,36 Z M59.073511,36 L64.976147,14.0221 L69.434521,14.0221 L75.839509,27.993765 L79.607149,14.0221 L84.379493,14.0221 L78.476857,36 L74.36385,36 L67.707686,21.588777 L63.845855,36 L59.073511,36 Z M81.58516,36 L96.938293,13.865115 L101.585049,13.865115 L105.070116,36 L100.10939,36 L99.418656,31.070671 L90.125144,31.070671 L86.797062,36 L81.58516,36 Z M93.013668,26.800679 L98.85351,26.800679 L97.848806,19.547972 L93.013668,26.800679 Z" id="ANNA" fill="#000000"></path>
        </g>
    </g>
</svg>