<?xml version="1.0" encoding="UTF-8"?>
<svg width="112px" height="70px" viewBox="0 0 112 70" version="1.1" xmlns="http://www.w3.org/2000/svg" xmlns:xlink="http://www.w3.org/1999/xlink">
    <!-- Generator: Sketch 45.2 (43514) - http://www.bohemiancoding.com/sketch -->
    <title>Icons web-06 copy</title>
    <desc>Created with Sketch.</desc>
    <defs></defs>
    <g id="Page-1" stroke="none" stroke-width="1" fill="none" fill-rule="evenodd">
        <g id="Icons-web-06-copy" transform="translate(1.000000, 1.000000)">
            <path d="M104.2,0.7 L5.8,0.7 C2.9,0.7 0.5,3.1 0.5,6 L0.5,47.9 C0.5,50.8 2.9,53.2 5.8,53.2 L21.5,53.2 C24.4,53.2 26.8,55.6 26.8,58.5 L26.8,64.3 C26.8,67.2 28.8,68.3 31.2,66.6 L46.9,56.1 C49.3,54.5 53.7,53.2 56.6,53.2 L104.2,53.2 C107.1,53.2 109.5,50.8 109.5,47.9 L109.5,6 C109.5,3 107.1,0.7 104.2,0.7" id="Shape" stroke="#000000" stroke-width="3"></path>
            <rect id="Rectangle-path" x="11.6" y="15.4" width="86.8" height="23.4"></rect>
            <path d="M14.538864,38.3283 L20.4415,16.3504 L28.447735,16.3504 C31.713023,16.3504 33.94221,17.072531 35.417869,18.54819 C36.516764,19.647085 37.113307,21.185538 37.113307,22.975167 C37.113307,26.931189 34.695738,29.725522 30.017585,30.824417 L33.753828,38.3283 L28.259353,38.3283 L24.868477,31.295372 L21.257822,31.295372 L19.374002,38.3283 L14.538864,38.3283 Z M22.419511,27.02538 L26.7209,27.02538 C29.735012,27.02538 32.05839,25.800897 32.05839,23.383328 C32.05839,22.6298 31.838611,22.096051 31.367656,21.625096 C30.771113,21.028553 29.703615,20.714583 28.165162,20.714583 L24.114949,20.714583 L22.419511,27.02538 Z M37.584262,38.3283 L43.486898,16.3504 L48.322036,16.3504 L42.4194,38.3283 L37.584262,38.3283 Z M45.747482,38.3283 L61.100615,16.193415 L65.747371,16.193415 L69.232438,38.3283 L64.271712,38.3283 L63.580978,33.398971 L54.287466,33.398971 L50.959384,38.3283 L45.747482,38.3283 Z M57.17599,29.128979 L63.015832,29.128979 L62.011128,21.876272 L57.17599,29.128979 Z M71.93258,38.3283 L77.835216,16.3504 L84.240204,16.3504 C88.510196,16.3504 91.178941,17.512089 92.842982,19.17613 C94.475626,20.808774 95.229154,22.94377 95.229154,25.612515 C95.229154,28.9092 93.973274,31.923312 91.618499,34.278087 C88.981151,36.915435 85.182114,38.3283 80.0958,38.3283 L71.93258,38.3283 Z M77.929407,33.964117 L80.660946,33.964117 C83.580867,33.964117 86.249612,33.053604 88.007844,31.295372 C89.420709,29.882507 90.205634,27.935893 90.205634,25.800897 C90.205634,24.293841 89.734679,23.132152 88.918357,22.31583 C87.94505,21.342523 86.343803,20.714583 83.86344,20.714583 L81.508665,20.714583 L77.929407,33.964117 Z" id="RIAD" fill="#000000"></path>
        </g>
    </g>
</svg>