<?xml version="1.0" encoding="UTF-8"?>
<svg width="292px" height="296px" viewBox="0 0 292 296" version="1.1" xmlns="http://www.w3.org/2000/svg" xmlns:xlink="http://www.w3.org/1999/xlink">
    <!-- Generator: Sketch 46 (44423) - http://www.bohemiancoding.com/sketch -->
    <title>Group</title>
    <desc>Created with Sketch.</desc>
    <defs></defs>
    <g id="Page-1" stroke="none" stroke-width="1" fill="none" fill-rule="evenodd">
        <g id="Pie-2-copy" fill-rule="nonzero" fill="#000000">
            <g id="Group">
                <g id="Rectangle-path">
                    <rect x="0.3" y="0" width="2" height="295.9"></rect>
                    <rect x="10" y="0" width="2" height="295.9"></rect>
                    <rect x="19.6" y="0" width="2" height="295.9"></rect>
                    <rect x="29.3" y="0" width="2" height="295.9"></rect>
                    <rect x="38.9" y="0" width="2" height="295.9"></rect>
                    <rect x="48.5" y="0" width="2" height="295.9"></rect>
                    <rect x="58.2" y="0" width="2" height="295.9"></rect>
                    <rect x="67.8" y="0" width="2" height="295.9"></rect>
                    <rect x="77.4" y="0" width="2" height="295.9"></rect>
                    <rect x="87.1" y="0" width="2" height="295.9"></rect>
                    <rect x="96.7" y="0" width="2" height="295.9"></rect>
                    <rect x="106.3" y="0" width="2" height="295.9"></rect>
                    <rect x="116" y="5.68434189e-14" width="2" height="295.9"></rect>
                    <rect x="125.6" y="5.68434189e-14" width="2" height="295.9"></rect>
                    <rect x="135.3" y="5.68434189e-14" width="2" height="295.9"></rect>
                    <rect x="144.9" y="5.68434189e-14" width="2" height="295.9"></rect>
                    <rect x="154.5" y="5.68434189e-14" width="2" height="295.9"></rect>
                    <rect x="164.2" y="5.68434189e-14" width="2" height="295.9"></rect>
                    <rect x="173.8" y="0" width="2" height="295.9"></rect>
                    <rect x="183.4" y="0" width="2" height="295.9"></rect>
                    <rect x="193.1" y="0" width="2" height="295.9"></rect>
                    <rect x="202.7" y="0" width="2" height="295.9"></rect>
                    <rect x="212.4" y="0" width="2" height="295.9"></rect>
                    <rect x="222" y="0" width="2" height="295.9"></rect>
                    <rect x="231.6" y="0" width="2" height="295.9"></rect>
                    <rect x="241.3" y="0" width="2" height="295.9"></rect>
                    <rect x="250.9" y="0" width="2" height="295.9"></rect>
                    <rect x="260.5" y="0" width="2" height="295.9"></rect>
                    <rect x="270.2" y="0" width="2" height="295.9"></rect>
                    <rect x="279.8" y="0" width="2" height="295.9"></rect>
                    <rect x="289.4" y="0" width="2" height="295.9"></rect>
                </g>
            </g>
        </g>
    </g>
</svg>