<?xml version="1.0" encoding="UTF-8"?>
<svg width="297px" height="292px" viewBox="0 0 297 292" version="1.1" xmlns="http://www.w3.org/2000/svg" xmlns:xlink="http://www.w3.org/1999/xlink">
    <!-- Generator: Sketch 46 (44423) - http://www.bohemiancoding.com/sketch -->
    <title>Group</title>
    <desc>Created with Sketch.</desc>
    <defs></defs>
    <g id="Page-1" stroke="none" stroke-width="1" fill="none" fill-rule="evenodd">
        <g id="Pie-1-copy" fill-rule="nonzero" fill="#000000">
            <g id="Group">
                <rect id="Rectangle-path" x="0.8" y="289.3" width="295.9" height="2"></rect>
                <rect id="Rectangle-path" x="0.8" y="279.7" width="295.9" height="2"></rect>
                <rect id="Rectangle-path" x="0.8" y="270.1" width="295.9" height="2"></rect>
                <rect id="Rectangle-path" x="0.8" y="260.4" width="295.9" height="2"></rect>
                <rect id="Rectangle-path" x="0.8" y="250.8" width="295.9" height="2"></rect>
                <rect id="Rectangle-path" x="0.8" y="241.2" width="295.9" height="2"></rect>
                <rect id="Rectangle-path" x="0.8" y="231.5" width="295.9" height="2"></rect>
                <rect id="Rectangle-path" x="0.8" y="221.9" width="295.9" height="2"></rect>
                <rect id="Rectangle-path" x="0.8" y="212.2" width="295.9" height="2"></rect>
                <rect id="Rectangle-path" x="0.8" y="202.6" width="295.9" height="2"></rect>
                <rect id="Rectangle-path" x="0.8" y="193" width="295.9" height="2"></rect>
                <rect id="Rectangle-path" x="0.8" y="183.3" width="295.9" height="2"></rect>
                <rect id="Rectangle-path" x="0.8" y="173.7" width="295.9" height="2"></rect>
                <rect id="Rectangle-path" x="0.8" y="164.1" width="295.9" height="2"></rect>
                <rect id="Rectangle-path" x="0.8" y="154.4" width="295.9" height="2"></rect>
                <rect id="Rectangle-path" x="0.8" y="144.8" width="295.9" height="2"></rect>
                <rect id="Rectangle-path" x="0.8" y="135.1" width="295.9" height="2"></rect>
                <rect id="Rectangle-path" x="0.8" y="125.5" width="295.9" height="2"></rect>
                <rect id="Rectangle-path" x="0.8" y="115.9" width="295.9" height="2"></rect>
                <rect id="Rectangle-path" x="0.8" y="106.2" width="295.9" height="2"></rect>
                <rect id="Rectangle-path" x="0.8" y="96.6" width="295.9" height="2"></rect>
                <rect id="Rectangle-path" x="0.8" y="87" width="295.9" height="2"></rect>
                <rect id="Rectangle-path" x="0.8" y="77.3" width="295.9" height="2"></rect>
                <rect id="Rectangle-path" x="0.8" y="67.7" width="295.9" height="2"></rect>
                <rect id="Rectangle-path" x="0.8" y="58.1" width="295.9" height="2"></rect>
                <rect id="Rectangle-path" x="0.8" y="48.4" width="295.9" height="2"></rect>
                <rect id="Rectangle-path" x="0.8" y="38.8" width="295.9" height="2"></rect>
                <rect id="Rectangle-path" x="0.8" y="29.1" width="295.9" height="2"></rect>
                <rect id="Rectangle-path" x="0.8" y="19.5" width="295.9" height="2"></rect>
                <rect id="Rectangle-path" x="0.8" y="9.9" width="295.9" height="2"></rect>
                <rect id="Rectangle-path" x="0.8" y="0.2" width="295.9" height="2"></rect>
            </g>
        </g>
    </g>
</svg>